<?xml version="1.0" encoding="UTF-8"?>
<svg width="22px" height="22px" viewBox="0 0 22 22" version="1.1" xmlns="http://www.w3.org/2000/svg" xmlns:xlink="http://www.w3.org/1999/xlink">
    <!-- Generator: sketchtool 40.1 (33804) - http://www.bohemiancoding.com/sketch -->
    <title>A49F52BB-4BEE-439F-BD6F-C42C56703EF9</title>
    <desc>Created with sketchtool.</desc>
    <defs></defs>
    <g id="full-screen" stroke="none" stroke-width="1" fill="none" fill-rule="evenodd">
        <g id="Desktop-index" transform="translate(-878.000000, -11.000000)">
            <g id="top">
                <g id="wt" transform="translate(879.000000, 12.000000)">
                    <circle id="Oval" stroke="#FFFFFF" cx="10" cy="10" r="10"></circle>
                    <path d="M15.8,7.06543868 C15.4031695,7.24615395 14.9759112,7.36836405 14.5277337,7.42296863 C14.9854199,7.14214522 15.3366084,6.69685808 15.5020602,6.16641383 C15.0735342,6.42643553 14.6000001,6.61560135 14.0941364,6.71700975 C13.6909668,6.27562297 13.1147384,6 12.4770207,6 C11.2541997,6 10.2621236,7.0173348 10.2621236,8.2719393 C10.2621236,8.45005425 10.2811411,8.62296855 10.3191759,8.78938238 C8.47765445,8.69447445 6.8453249,7.7908992 5.75182242,6.41473463 C5.56101433,6.75146265 5.4519809,7.14214522 5.4519809,7.5581799 C5.4519809,8.34604553 5.84310627,9.04160355 6.43771783,9.44918745 C6.07511885,9.43813658 5.73280497,9.33477788 5.4335975,9.16576373 L5.4335975,9.19371615 C5.4335975,10.294908 6.1974644,11.2134345 7.2117275,11.4214517 C7.02599045,11.4747562 6.83011085,11.5014084 6.62789232,11.5014084 C6.48526145,11.5014084 6.34580037,11.4877574 6.21077653,11.4611051 C6.49286847,12.3633802 7.31061815,13.020585 8.2805072,13.0381366 C7.5223454,13.6478873 6.56640252,14.0112677 5.52868453,14.0112677 C5.34992067,14.0112677 5.17305853,14.0008668 5,13.9800651 C5.98066565,14.6236186 7.14580025,15 8.39651337,15 C12.4725832,15 14.7007924,11.5384616 14.7007924,8.53586138 C14.7007924,8.43705307 14.6988907,8.33824478 14.6950871,8.24138677 C15.1280508,7.92091005 15.5039619,7.52112667 15.8,7.06543868" id="Twitter" fill="#FFFFFF"></path>
                </g>
            </g>
        </g>
    </g>
</svg>