<?xml version="1.0" encoding="utf-8"?>
<!-- Generator: Adobe Illustrator 19.2.0, SVG Export Plug-In . SVG Version: 6.00 Build 0)  -->
<svg version="1.1" xmlns="http://www.w3.org/2000/svg" xmlns:xlink="http://www.w3.org/1999/xlink" x="0px" y="0px"
	 viewBox="0 0 1000 1000" style="enable-background:new 0 0 1000 1000;" xml:space="preserve">
<style type="text/css">
	.st0{fill:#3A9B84;}
	.st1{fill:#A3F2C0;}
	.st2{fill:#50BF94;}
	.st3{fill:#00D49C;}
	.st4{fill:#F72449;}
	.st5{fill:#FF716C;}
</style>
<g id="template">
</g>
<g id="Layer_2">
	<path class="st0" d="M181.6,296.1c-0.6-40.1-0.6-40.1,34.3-40c50.1,0.2,562.3,0.1,575.7-0.1c13.4-0.2,17.4-0.3,17.1,20.1
		c-0.3,20.1,0.1,414.3,0.1,422.9s0,19.3-15.8,18.6c-17.4-0.8-231.4,2.9-231.4,2.9s6,17.7-8.6,22.5c-10.7,3.5-99.8,1.7-111.3,0
		c-17.3-2.6-13-22.5-13-22.5s-209.1-2.6-227.1-2.9c-18.1-0.2-22.3-1.9-22.3-18.6C179.2,666.3,182,325,181.6,296.1z"/>
	<path class="st1" d="M213.1,263.1c0.3-15.3,5.9-24.1,19.9-22.8c27.6,2.7,232.2,33.9,240.1,34.3c14.4,0.8,14.4-1.2,14.4,27.2
		c0,44.3,0,367.1,0,381.1s1.2,18.9-21.6,16S239,683.3,226,681c-16.5-3-13.9-7.9-13.9-33C212.1,613.7,212.8,278.5,213.1,263.1z"/>
	<path class="st2" d="M524.4,296.1c0,0,173.7-45.3,231.8-60.5c12.8-3.3,22.1-0.8,22.4,14.7c1.5,73.9,0.4,374.5,0.3,389.7
		s-3.9,26.3-18.7,27.6c-30.2,2.5-250,31.7-250,31.7L524.4,296.1z"/>
	<path class="st3" d="M504.6,269.9l79.8-109.4c0,0,14.3-15.7,21.4,0c6.2,13.7,5.5,310.1,5.8,384.6c0.1,16.7-6.2,26.1-6.2,26.1
		S525.2,677,517.7,690.3c-7.5,13.3-17.8,13-17.7,3c0.1-9.1,0-343.9,0-407C500,274.3,504.6,269.9,504.6,269.9z"/>
	<g>
		<path class="st4" d="M368.9,403.5l0.1,4.5v0.5c0,2-0.7,2.6-1.9,2.4c-1.7-0.3-6.8-3-6.8-6c0-0.2,0.1-0.5,0.1-0.7
			c0.2-1.5,0.4-3,0.4-5v-2.2l-1.9-64.8c-0.1-2.3-0.8-5.4-1.9-7.4c-0.5-1-0.8-1.8-0.8-2.3c0-0.5,0.4-0.8,1.3-0.6
			c1.4,0.3,4.2,1.5,8.9,4.3l52.1,6.6l0.8,0.1c2.1,0.4,5.7,2.7,5.7,5.1c0,0.9-0.5,1.4-0.6,2.2l-3.3,63.5c2.3,3.1,3.3,4.8,3.3,5.7
			c0,1.2-1.6,0.9-3.7,0.7L368.9,403.5z M416.3,339l-49.6-6.3l0.8,27.8l47.6,5.8L416.3,339z M414.9,372.9l-47.2-5.9l1,29.9l44.9,5.9
			L414.9,372.9z"/>
		<path class="st4" d="M394.8,502.3v20.2c0,2.1-0.9,2.8-2.4,2.6c-0.7-0.1-1.5-0.4-2.5-1c-2.1-1.3-3.6-2.5-3.6-4.3
			c0-0.2,0-0.4,0.1-0.7c0.5-2.1,0.8-4.3,0.8-6.6v-11l-14.4-1.4l-2.1-0.3c-2.1-0.3-3.5-0.7-4.4-1.7c-1.3-1.4-2.4-3.6-2.6-4.8
			c-0.1-0.2-0.1-0.5-0.1-0.7c0-0.2,0.1-0.4,0.5-0.4c0.1,0,0.4,0,0.6,0.2c1.4,0.5,3,1,4.5,1.2c0.7,0.1,1.4,0.1,2,0.2l16,1.7v-33.1
			c-20.8,30-48,38.7-50.9,38.3c-0.7-0.1-1.1-0.4-1.1-0.9c0-0.5,0.6-1.2,1.9-2c14.8-8,32.6-22.1,46.1-42.1l-25.5-2.5
			c-1.4-0.1-2.6-0.3-3.6-0.4c-1.8-0.3-5.4-0.8-7.5-6.1c-0.1-0.3-0.2-0.7-0.2-0.9c0-0.5,0.4-0.7,1-0.6c0.1,0,0.5,0.1,0.7,0.2
			c1.4,0.5,3.1,0.9,4.9,1.2l1.8,0.3l32.3,3.2v-19c0-1.7-0.6-3.6-1.5-4.9c-0.4-0.6-0.6-1.1-0.6-1.4c0-0.5,0.5-0.7,1.4-0.5
			c0.1,0,8.2,1.8,8.2,5.3v21.2l29,2.8c1.5,0.1,3.5,0.2,5.1-0.1c0.3-0.1,0.7-0.1,1-0.1c2.3,0.3,6.8,5,6.8,6.3c0,0.9-1.3,1.1-2.9,1
			l-36-3.5c14.6,19.8,30,38,49.4,49.9c1,0.7,1.6,1.2,1.6,1.6c0,0.7-4.6,3.2-6.6,3c-0.8-0.1-1.4-0.6-2.2-1.2
			c-18.5-13.7-32.7-28.7-45.3-48.6v34.4l12.7,1.3c2.2,0.2,3.5,0.1,5-0.3c0.5,0,0.9-0.1,1.3,0c3.3,0.5,6.3,4.4,6.3,5.7
			c0,1.1-1.1,1.7-3,1.5L394.8,502.3z"/>
		<path class="st4" d="M344.9,557.8c-1.4-0.1-2.5-0.2-3.5-0.3c-1.3-0.2-2.2-0.4-2.7-0.9c-3.4-3.1-3.8-5.1-3.8-5.7
			c0-0.4,0.2-0.6,0.7-0.6c0.2,0,0.5,0.1,0.8,0.2c1.3,0.5,2.5,0.8,3.9,0.9c0.7,0.1,1.3,0.1,2.1,0.1l29.3,2.2c1.4,0,3.2,0,4.9-0.5
			c0.4-0.1,0.6-0.1,1.1-0.1c1.8,0.2,6.2,3.7,6.2,5.7c0,1-0.9,1.4-2.4,1.3L344.9,557.8z M354.1,621.8l0.1,1.4v0.3
			c0,1.6-0.8,2.3-2.3,2.2c-0.2,0-5.7-1.1-5.7-4.7v-0.7c0.1-1.4,0.2-2.8,0.2-4.1V615l-1.2-14.4c-0.2-2.4-0.8-4.6-1.8-6.2
			c-0.6-0.9-1-1.8-1-2.2c0-0.4,0.2-0.6,1.1-0.5c1.3,0.2,4,1.1,8.8,3.3l18.7,1.3l1.1,0.1c1.8,0.2,5.2,2.3,5.2,4.4
			c0,0.8-0.6,1.3-0.7,2l-1.9,14.8c1.9,2.6,2.7,4.1,2.7,5c0,1.1-1.4,0.9-3.2,0.8L354.1,621.8z M352.5,572.3c-1,0-1.9-0.1-2.6-0.2
			c-0.6-0.1-1.1-0.1-1.6-0.3c-0.7-0.1-1.3-0.4-1.7-0.8c-1.3-1.1-3.4-4.1-3.4-5.6c0-0.4,0.2-0.6,0.6-0.6c0.1,0,0.2,0.1,0.5,0.2
			c1.6,0.5,3,0.8,4.5,1l1.3,0.2l16.3,1c1.4,0.1,2.7,0,4.3-0.2c0.4-0.1,0.6-0.1,1-0.1c1.5,0.2,5.5,3.4,5.5,5.3c0,1.1-1.2,1.5-2.5,1.4
			L352.5,572.3z M352.6,585.9l-3.5-0.4c-1.1-0.2-1.8-0.4-2.4-0.8c-1.8-1.6-2.8-3.4-3.4-5c-0.1-0.2-0.1-0.5-0.1-0.7
			c0-0.3,0.2-0.5,0.6-0.5c0.1,0,0.4,0,0.6,0.2c1.6,0.5,3,0.8,4.5,1l1.3,0.2l15.9,1.1c1.4,0.1,2.7,0,4.2-0.4c0.4-0.1,0.7-0.1,1.1-0.1
			c2,0.2,5.4,4,5.4,5.3c0,1.1-1.1,1.5-2.4,1.5L352.6,585.9z M366,549.3c-5-3.8-10.2-7.1-15-9.7c-1.6-0.9-2.5-1.5-2.5-2.5
			c0-1.4,1.3-3.4,3.1-3.2c1,0.1,7.4,2.9,18.2,9.5c1.7,1.1,2.5,1.8,2.5,2.9c0,1.5-1.9,4.4-3.8,4.2C367.8,550.5,367,549.9,366,549.3z
			 M369.2,602.1l-16.8-1.2l1.2,14.9l14.3,1.3L369.2,602.1z M385.7,588.6l-1.1-0.1c-2.4-0.3-3.4-0.7-4.4-1.8c-1.8-2-2.4-4-2.4-4.7
			c0-0.3,0.1-0.5,0.6-0.5c0.1,0,0.4,0,0.7,0.2c1.2,0.5,2.4,0.7,3.7,0.9c0.7,0.1,1.5,0.1,2.4,0.2l11.8,0.9l4.1-15.1l-6.4-0.5
			c-0.8,0-1.4-0.1-2.1-0.2c-2.8-0.3-3.5-1.2-4.8-3c-0.6-0.9-1.1-2-1.4-3.1c-0.1-0.2-0.1-0.4-0.1-0.7c0-0.2,0.1-0.3,0.5-0.3
			c0.2,0,0.5,0.2,0.8,0.2c1.3,0.4,2.6,0.6,3.9,0.8c0.8,0.1,1.8,0.1,2.7,0.2l8.5,0.6l2.9-11l-13.3-0.9c-0.7-0.1-1.3-0.1-1.8-0.1
			c-4-0.5-5.7-3.2-6.6-6.2c-0.1-0.2-0.1-0.4-0.1-0.7c0-0.2,0.1-0.4,0.6-0.4c0.2,0,0.5,0.1,0.8,0.2c1.3,0.4,2.5,0.6,4,0.8l1.7,0.2
			l36.5,2.6c1.7,0.1,2.8,0,4-0.1c0.6,0,1.2-0.1,1.5,0c1.6,0.2,5.8,3.8,5.8,5.6c0,1-1.2,1.2-3.4,1.1l-22.3-1.7l-2.8,11l16.8,1.1
			c0.5,0.1,0.8,0,1.2,0c1.6,0.2,5.1,2.5,5.1,4.5c0,0.9-0.6,1.4-0.7,2.1l-3.3,15.1l6.8,0.5c1.7,0.1,3.1,0.1,4.9-0.1
			c0.6,0,1.2-0.1,1.6,0c2.5,0.3,5.3,4.2,5.3,5.3c0,1.1-1.2,1.4-3,1.2L385.7,588.6z M398.6,626.4l0.4,3.8v0.3c0,1.4-0.6,2.2-2,2.1
			c-0.7-0.1-6.3-2.2-6.3-4.8c0-0.2,0-0.5,0.1-1c0.2-1.2,0.4-2.5,0.4-3.8c0-0.8-0.1-1.6-0.1-2.4l-1.3-16.2c-0.2-2.7-0.5-4.4-1.3-6.2
			c-0.4-0.8-0.6-1.4-0.6-1.8c0-0.4,0.4-0.6,1.1-0.5c1.3,0.2,3.7,1.1,8,3.1l31,2.2l1.2,0.1c2.4,0.3,5.5,2.6,5.5,4.5
			c0,1-0.8,1.6-0.9,2.5l-2.7,15.1c2.1,2.8,2.9,4.3,2.9,5c0,1-1.3,0.8-3.1,0.7L398.6,626.4z M426,607l-29.1-2.1l1.2,15.6l25.8,2.2
			L426,607z M425,570.1l-16.5-1.1l-4,15.2l17.6,1.4L425,570.1z"/>
	</g>
	<g>
		<path class="st5" d="M268,369.6c0-0.2,0-0.5-0.1-0.8c-0.1-0.4-0.5-0.8-0.5-1.1l0-0.1c0.1-0.2,0.4-0.2,1-0.1
			c0.7,0.2,3.6,1.1,3.6,2.7c0,0.4-0.1,0.9-0.2,1.2c-1.3,6.3-3.3,17.7-3.5,25.1c0,0.9,0,1.7,0,2.4c1.1-1.9,3.1-4.6,3.6-5.4
			c0.4-0.8,0.9-1.1,1.2-1c0.2,0.1,0.5,0.4,0.5,1c0,0.3-0.1,0.8-0.3,1.3c-0.3,1.3-3,10.6-3.4,11.6c-0.3,0.8-1.1,0.9-1.8,0.8
			c-1.2-0.2-3.6-0.8-3.3-11.6c0.2-9,2.5-20.5,3.3-25.6L268,369.6z M298.8,378.3c1.6,0.4,2.3,1.8,2.3,2.8c0,0.8-0.4,1.3-1.3,1.1
			c-3.4-0.8-13.1-2.2-17-2.3c-1,0-1.9-0.2-2.5-0.3c-0.7-0.2-1.1-0.4-1.1-0.6c0-0.4,0.8-0.8,2.6-1.3c3.4-0.9,14.4,0,16.8,0.5
			L298.8,378.3z M300.2,410.5c-6.2-1.3-17.6-6.6-19.7-12.9c-0.3-0.8-0.4-1.3-0.4-1.7c0-0.5,0.3-0.7,0.6-0.6c0.4,0.1,1,0.6,1.6,1.4
			c3.2,4.8,14,8.6,17.2,9.5l0.2,0c0.5,0.1,1.1,0.1,1.5,0.2l0.2,0.1c0.5,0.2,2.5,1.8,2.5,3.1c0,0.1-0.1,0.2-0.1,0.3
			c-0.2,1.1-0.6,1.1-2.8,0.8L300.2,410.5z"/>
		<path class="st5" d="M270.5,447c0.3,0.1,0.4,0.6,0.4,1c0,0.9-3.9,12.9-4.2,13.5c-0.3,1-1.1,1.1-1.8,1c-1.7-0.3-3.5-0.7-3.1-14.8
			l0.1-2c0.4-6.3,3.1-22.6,3.2-23.4c0.1-0.2,0.1-0.3,0.1-0.5c0-0.2,0-0.4,0-0.7c0-0.7-0.7-1.5-0.6-1.8l0-0.1
			c0.1-0.2,0.3-0.2,0.6-0.1c0.1,0,4,1,4,3.2c0,0.4-0.1,0.7-0.1,1c-1.6,7.9-3.4,20.7-3.6,28.5c0,0.9,0,1.7,0,2.4
			c1.6-2.4,3.6-5.9,4-6.6c0.3-0.5,0.5-0.7,1-0.6L270.5,447z M283.5,464.7c-6-1-8.9-4.3-8.9-7.1l0-0.1c0.1-2.9,3.2-5.4,8.7-4.4
			l0.3,0.1c2.4,0.5,4.9,1.2,7.3,2.3c0.2-1,0.2-2.1,0.2-3.2l-0.1-10.9c-2.3-0.1-4.3-0.3-5.6-0.6c-4.3-0.8-7.9-2.7-7.8-4.5
			c0-0.2,0.1-0.4,0.2-0.6c0.1-0.2,0.4-0.2,0.7-0.1c0.6,0.1,1.2,0.4,1.5,0.6c0.5,0.3,1.6,0.7,3.2,1c1.5,0.3,3.5,0.7,7.8,0.8
			c0-3.3-0.1-6.2-0.2-7.6c-0.1-0.5-1-1.4-1-2c-3-0.1-5.9,0-8.9-0.1c-0.7,0-1.3,0-1.8-0.1c-1.5-0.3-3.1-2.7-3.1-3.6
			c0-0.2,0.1-0.3,0.3-0.4c0.1,0,0.1,0,0.2,0c0.4,0.1,1.1,0.6,1.7,0.7l0.1,0c2.9,0.3,12.7,0,19.7,1c0.8,0.2,1.3-0.2,2-0.1
			c0.1,0,0.2,0.1,0.4,0.1c1.2,0.5,2.2,1.5,2.5,2.4c0,0.1,0.1,0.2,0.1,0.3c0,0.8-0.8,1-2.1,0.8c-2.9-0.5-5.6-0.8-8.1-0.9
			c1.3,0.5,1.6,0.9,1.5,2.1c0,0.5,0.1,3.6,0.2,7.4c2.1,0,3.7-0.1,4.2-0.2c0.7-0.2,0.9-0.6,1.6-0.5l0.2,0c1.4,0.3,2.9,1.6,3.1,2.5
			c0,0.1,0.1,0.2,0.1,0.4c0,0.8-0.7,1.5-9,1.3c0.1,4.4,0.2,8.9,0.3,11.2c0,0.6,0.1,1.2,0,1.9c0,0.9-0.1,1.9-0.3,2.7
			c1.4,0.8,9.9,6.2,9.9,8.7c0,0.4-0.1,0.9-0.4,1.4c-0.3,0.6-0.8,1-1.5,0.9c-0.4-0.1-1-0.5-1.6-1.2c-1.6-2.2-4.4-4.6-7.5-6.6
			c-1.8,3.4-4.9,4.9-9.4,4.3L283.5,464.7z M283.1,461.3c2.7,0.5,5.7-0.2,6.9-2.7c-2.3-1.2-4.3-1.7-6.5-2.1l-0.2,0
			c-2.9-0.5-5.1,0-5.1,1.7l0,0.1c0,1.2,2.3,2.6,4.7,3.1L283.1,461.3z"/>
		<path class="st5" d="M265,512.3c-1.1,1.2-2.4,4.4-2.9,5.3c-0.3,0.8-1.5,1.7-2.4,1.6c-1-0.1-1.8-2.3-1.8-3.7c0-0.3,0.1-0.7,0.2-1
			c0.3-0.7,0.7-0.8,1-1.5c0.1-0.2,17.9-35.3,18-36.3c0-0.8-0.6-1.6-0.6-2.1c0-0.1,0.1-0.2,0.1-0.3c0.2-0.2,0.4-0.2,0.8-0.2
			c0.8,0.1,4.1,1.7,4.1,3.5c0,0.6-0.3,1.2-0.7,1.8c-0.8,1.4-9,16.3-13.2,24.6c2.5-2.1,6.8-6.1,8.4-7.4c0.5-0.4,1-0.4,1.6-0.3
			c1.5,0.2,3,1.8,3,2.9c0,0.2-0.1,0.3-0.1,0.5c-0.1,0.2-0.3,0.4-0.3,0.7c-0.1,0.7-0.2,1.5-0.2,2.5c-0.1,5.4,1.4,14.3,7.7,15.1
			c8.5,1.2,15.7-11.1,17.4-14.6c0.8-1.6,1.4-2.5,1.8-2.4c0.2,0,0.3,0.3,0.3,0.9c0,5.2-7.5,21.9-19.6,20.3
			c-9.9-1.3-11.7-14.2-11.6-20.9C273.8,503.3,268.1,508.4,265,512.3z"/>
		<path class="st5" d="M296.8,576.4c1,0.1,3.6,1.5,3.8,3c0,0.1,0.1,0.3,0.1,0.4c0,1.7-1.2,2.3-8.7,1.6c-6.8-0.6-16.2-2.5-22-6
			c-6.8-4.1-7.5-9.9-7.5-11.3c0-1.1,0.4-1.5,1.4-1.5l0.3,0c0.6,0.1,0.8,0.4,1.2,1.6c2.4,6.1,8.4,10.4,23.7,11.9
			c2.4,0.2,4.3,0.3,5.8,0.4c0.7,0.1,1.2-0.3,1.9-0.2L296.8,576.4z M267.8,539c-1.2-0.1-1.7-0.5-1.7-1.4l0-0.1
			c0.1-1.3,0.5-1.6,2.4-1.6c2.8,0,5.7,0.2,8.6,0.6c6.3,0.8,12.2,2.2,16.1,4.2c0.7,0.3,1.8,0.9,1.8,2.5c0,0.2,0,0.3-0.1,0.5
			c-0.1,0.7-0.5,1.1-1.1,1.3c-3.9,1.7-10.4,4.2-11,4.4c-0.7,0.2-1.3,0.3-1.6,0.2c-0.3,0-0.5-0.2-0.5-0.4c0-0.4,0.7-1.2,2.1-2.1
			c1.7-1.3,3.8-2.7,5.3-4c-4.3-1.6-9.8-2.8-15.8-3.5c-1.4-0.2-2.8-0.3-4.2-0.4L267.8,539z M301.4,545.7c-0.4,0-0.8-0.3-1.2-0.9
			c-1-1.9-3.7-5.5-4.9-6.8c-0.3-0.3-0.4-0.7-0.4-1c0-0.9,0.8-1.6,1.7-1.5c1.3,0.2,7,7.2,7,8.5C303.5,545.1,302.4,545.8,301.4,545.7z
			 M306.2,542.7c-0.4-0.1-0.8-0.3-1.1-0.8c-0.8-1.3-3.8-5.5-5.2-6.8c-0.3-0.2-0.4-0.6-0.4-0.8c0-0.7,0.8-1.4,1.7-1.3
			c0.4,0,0.8,0.2,1.2,0.6c0.3,0.3,5.9,5.8,5.9,7.3c0,0.5-0.3,1-0.6,1.3C307.4,542.4,306.8,542.8,306.2,542.7z"/>
	</g>
</g>
</svg>
