<?xml version="1.0" encoding="utf-8"?>
<!-- Generator: Adobe Illustrator 19.2.0, SVG Export Plug-In . SVG Version: 6.00 Build 0)  -->
<svg version="1.1" xmlns="http://www.w3.org/2000/svg" xmlns:xlink="http://www.w3.org/1999/xlink" x="0px" y="0px"
	 viewBox="0 0 1000 1000" style="enable-background:new 0 0 1000 1000;" xml:space="preserve">
<style type="text/css">
	.st0{fill:#F72449;}
	.st1{fill:#FF716C;}
	.st2{fill:#FFB6A7;}
	.st3{fill:#A3F2C0;}
	.st4{fill:#00D49C;}
	.st5{fill:#50BF94;}
	.st6{fill:#3A9B84;}
	.st7{fill:#CFFBE2;}
</style>
<g id="frame">
</g>
<g id="Layer_2">
	<ellipse class="st0" cx="728" cy="203" rx="163" ry="110.3"/>
	<ellipse class="st1" cx="728" cy="213" rx="121.2" ry="82.1"/>
	<ellipse class="st2" cx="729.9" cy="223.6" rx="78.3" ry="53"/>
	<path class="st3" d="M646.3,632.7c0,0-1.3,34.7,49.3,58c46.8,21.5,103.2,13.5,128.4,2.7c2.1-0.9,5.6-4.5-0.3-5.8
		c-4.4-1-12-1.7-25.3-1.3c-20.8,0.6-46.9-0.5-73.5-17.8c-26.6-17.3-34.7-32.5-37.3-35.8C685,629.3,646.3,632.7,646.3,632.7z"/>
	<path class="st4" d="M760.7,683.4c-22.7-5.7-32.5-12.9-35.7-15c-26.6-17.3-34.7-32.5-37.3-35.8c-2.7-3.3-41.3,0-41.3,0
		s-0.7,18.7,19,37.9C687.3,686.4,737.1,687.7,760.7,683.4z"/>
	<path class="st5" d="M656.9,660.8c12.1,6.9,47.1,14.1,70.6,9.3c-21.7-12.4-34.8-30.2-38.1-35.1h-42.9
		C646.8,639.4,648.7,649.4,656.9,660.8z"/>
	<path class="st4" d="M528.3,300.5c-87.5,0-108,25.5-108,25.5s-64.7-38.9-136-27.3c-52.8,8.5-112.7,32-124.7,64.7
		c-18.1,49.2-5.9,91.6-0.7,104.7c6.7,16.7,40.7,74,63.5,88.3c31.7,19.8,59.8,27,75.8,34.4c16,7.3,25.3,16.7,25.3,28.7s-8,22,4,30
		s17.3,12,18.7,22c1.3,10,25.2,47.8,34.7,58.7c18.7,21.3,53.7,32,71.3,11.3c9.7-11.4,13-23.2,17.3-32.7c21.9-48,85.2-78,106-79.3
		c21.3-1.3,55.1,18.3,82.7,23.3c32.7,6,110-5.3,151.7-55.1c12.9-15.5,20.2-26.5,25.7-58.5c3.2-18.4,7.3-61.7-14-89.1
		c-21.3-27.3-43.1-36.9-71.1-43.6c-28-6.7-50.9,5.6-61.5-11.7c-5-8.2,1.4-25.8,6.7-31.3c6.1-6.5,22-15.4,30.7-21.3
		c4.5-3.1,11.3-8,10-16c-1.3-8-7.5-9.9-1.3-16c8-8,8.9-14.2,4-16c-27.3-10.4-67.9,21.1-88,49.3c-33.3,46.7-14,114.6,11.7,125.4
		c28.7,12,65.2,2.1,77.6,22c13.3,21.3-6,54-36,42.7c-19.2-7.2-20.7-19.3-27.3-30.7c-6.7-11.3-17.3-43.3-21.3-52
		c-4-8.7-7-26.7-8.3-36c-1.3-9.3-13.2-43.7-22.3-58.6C614.9,339.6,587.3,300.5,528.3,300.5z"/>
	<g id="Layer_3">
		<path class="st5" d="M502.9,301c-62.4,1.5-82.6,25-82.6,25s-64.7-38.9-136-27.3c-27.2,4.4-56.2,12.7-79.6,24.2
			c29.1-7,99.2-20.6,146.7,4.6c77.1,40.8,86,89.8,86,89.8S444.9,311.2,502.9,301z"/>
		<path class="st6" d="M430,372c0,0,1-49.3,34.5-66.1c-25.5,2.6-44.1,20.1-44.1,20.1s-47.9-28.8-106.8-29.5
			C346.4,301.6,413.6,324.9,430,372z"/>
		<g>
			<path class="st5" d="M325,647.3c12.1,8.7,17.5,14.6,21.7,25.9c1,2.6,3.5,5.3,4.1,8.6c30.7-27.4,49.4-61.7,59.6-117
				C401.4,574,359.6,626.5,325,647.3z"/>
		</g>
		<g>
			<path class="st6" d="M332.9,652.9c6.1,4.8,9.5,7.9,13.4,18.4c19.5-20.6,42.7-47.3,51.3-82.7C390.9,595.1,358.3,638.4,332.9,652.9
				z"/>
		</g>
		<path class="st5" d="M498.8,635.8c0,0-11.8-5.2-16.5-17.2c-3.3-8.5-0.6-29,13.3-36.3c18-9.4,40.7-5.6,48.9,12.3
			c5.1,11.2-4.8,20.5-4.8,20.5L498.8,635.8z"/>
		<path class="st5" d="M721.2,478.8c8.3,1.9,15.1,5.2,19.2,11.8c13.3,21.3-6,54-36,42.7c-16-6.1-19.7-15.5-24.4-25.1
			c2.8,14.6,8.6,35.2,19.7,43.1c18,12.7,37.7,12.1,50.4,4.8c7.4-4.3,22.9-15,22.9-36.3S757.7,475.3,721.2,478.8z"/>
		<path class="st5" d="M728.1,404.2c-17.6,0.1-31.5,2.9-39.1-9.5c-5-8.2,1.4-25.8,6.7-31.3c2.1-2.2,5.3-4.7,8.9-7.2
			c-10.8-1.1-48.3,8.2-38.6,43.6c4.8,17.6,23.5,21,30.5,21C714.2,420.8,724.9,406.8,728.1,404.2z"/>
		<path class="st5" d="M356.3,569c0,0-72.9,0.5-92.8,8c8.6,3.6,20.5,7.1,26.6,10.2c17.9,8.9,37,14.4,32.9,38.6
			c-0.4,2.6-1.4,6.4-1.7,8.9C339.7,624.8,356.3,569,356.3,569z"/>
		<path class="st6" d="M707,326.7c0,0,6.9,7.9,29.4-0.4c0-0.1,0-0.2,0-0.3c-1.3-8-7.5-9.9-1.3-16c7.8-7.8,8.8-13.8,4.4-15.8
			c-10.6,0.3-25.7,4.2-32,11.2C697.3,316.3,707,326.7,707,326.7z"/>
		<path class="st5" d="M716.7,311.5c-1.9,8.7,2.3,11.1,9.4,11c7.6-0.1,8.7-1.3,8.7-1.3c-2-4.3-4.4-6.5,0.2-11.2
			c3.6-3.6,5.8-6.9,6.6-9.5C741.6,300.5,718.6,302.6,716.7,311.5z"/>
		<path class="st6" d="M344.3,577.3c0,0-47.9,1-63.6,6.4c6.8,2.5,11.8,4.9,16.6,7.1c16,7.3,26.3,16.5,26.3,28.5c0,1.9,0.3-1.8,0,0
			C332.7,610.3,344.3,577.3,344.3,577.3z"/>
		<path class="st5" d="M557,608.7c-14,0-36.4,8.5-45.2,16C475,656.7,475.1,696,475,698.6c25.4-41.3,76.3-65,90.9-67.5
			c15.1-2.5,27.7,0.1,38.3,3.7C599,619.3,572.3,608.7,557,608.7z"/>
		<path class="st6" d="M504.3,633.1c0,0-12.3-3.1-14.3-13.6s4.3-21.1,13-24.6c15.5-6.3,32-2.3,36.6,9.3c2.9,7.3-3.1,17.2-8.6,21.7
			S504.3,633.1,504.3,633.1z"/>
		<path class="st6" d="M739.8,489.9c0.2,0.2,0.3,0.5,0.5,0.7c13.3,21.3-6,54-36,42.7c-1.3-0.5-2.4-1-3.5-1.5
			c2.5,5.6,30.2,24.3,50.9,4.2C766,522,758,495.7,739.8,489.9z"/>
		<path class="st6" d="M502.3,649.3c-3.3,4.4-8.6,17.3-8.5,25.7c26.4-26.7,60.6-41.9,72.2-43.8c4.4-0.7,8.7-1,12.7-1
			c-1-2.8-2.6-5.2-16.9-6.9C542.4,620.9,508.2,641.3,502.3,649.3z"/>
	</g>
	<path class="st3" d="M536.3,609.4c9,6.4,19.5,104.1,142.8,139.6c2.8,0.8,6.4,3.8,2,5.5c-8.8,3.4-26.7,7.6-54.9,2.2
		C515,735.3,492.8,623,493.5,616.2C494.2,609.3,515.7,594.7,536.3,609.4z"/>
	<path class="st6" d="M713.5,404.5c-10.6,0.1-19.1-1.1-24.5-9.9c-3.8-6.2-1.1-17.6,2.8-25.3c-6.8-1.3-27.2,18.5-10.4,34.7
		C690.3,412.7,703,409.2,713.5,404.5z"/>
	<path class="st7" d="M537.6,631.2c2,1.3,14.8,42.9,34.8,64.6c19.4,21.2,51.7,36.6,51.7,36.6c0.8,0.5,3.5,3.3-0.9,1.9
		c-17.1-5.6-44.5-19.1-61.6-40.1c-18.4-22.6-29.9-56.8-30.2-60S535.7,629.9,537.6,631.2z"/>
	<ellipse class="st1" cx="535.3" cy="238.3" rx="20.3" ry="14.7"/>
	<ellipse class="st0" cx="497" cy="269.7" rx="14.5" ry="10.2"/>
</g>
</svg>
