<?xml version="1.0" encoding="utf-8"?>
<!-- Generator: Adobe Illustrator 19.2.1, SVG Export Plug-In . SVG Version: 6.00 Build 0)  -->
<svg version="1.1" xmlns="http://www.w3.org/2000/svg" xmlns:xlink="http://www.w3.org/1999/xlink" x="0px" y="0px"
	 viewBox="0 0 1000 1000" style="enable-background:new 0 0 1000 1000;" xml:space="preserve">
<style type="text/css">
	.st0{fill:#F72449;}
	.st1{fill:#00D49C;}
	.st2{fill:#A3F2C0;}
	.st3{fill:none;}
	.st4{fill:#CFFBE2;}
	.st5{fill:#B3B3B3;}
	.st6{fill:#333333;stroke:#333333;stroke-width:0.5;stroke-linecap:round;stroke-linejoin:round;}
	.st7{fill:#CCCCCC;stroke:#333333;stroke-width:0.5;stroke-linecap:round;stroke-linejoin:round;}
	.st8{fill:#333333;}
	.st9{fill:#808080;}
	.st10{fill:#808080;stroke:#666666;stroke-width:3;stroke-miterlimit:10;}
	.st11{fill:none;stroke:#4D4D4D;stroke-width:6;stroke-miterlimit:10;}
</style>
<g id="template">
	
		<ellipse transform="matrix(0.998 -6.283868e-02 6.283868e-02 0.998 -28.3522 32.5251)" class="st0" cx="502.9" cy="467" rx="289.5" ry="289.5"/>
	
		<ellipse transform="matrix(0.998 -6.283868e-02 6.283868e-02 0.998 -28.2532 32.5444)" class="st1" cx="503.3" cy="465.4" rx="262.3" ry="262.3"/>
	<circle class="st2" cx="503.3" cy="465.4" r="205.6"/>
	<circle class="st2" cx="499.3" cy="473.4" r="151.3"/>
	<circle class="st2" cx="506.2" cy="452.8" r="130.7"/>
	<circle class="st3" cx="503.2" cy="463.9" r="264.3"/>
</g>
<g id="Layer_2">
	
		<ellipse transform="matrix(0.999 -4.372726e-02 4.372726e-02 0.999 -18.4279 22.3004)" class="st4" cx="500.5" cy="432.4" rx="68.5" ry="68.5"/>
	<path class="st5" d="M826.9,422.9c-12.3-22.2-28.9-27.2-40.4-30.7c10.7-14.7,46.9-7.2,46.9-7.2c-23.4-41.1-73.3-36.6-73.3-36.6
		c21.7-13.8,43.9-4.1,44.7-3.7c-16.6-14-76.6-8.6-76.6-8.6l9.7-11.8c-57.2,13.3-78.4,38.6-86.1,53.5
		c-37.7-34.6-88.9-55.7-154.1-55.4c-45.7,0.2-96.5,10.7-129,33.5c-11.5-14-43.9-35.2-104.3-37.7c22.9,10,36.2,17.2,37.1,17.7
		c-2-0.2-57.4-6-74.7,7.8c0,0,29.8,5.5,35.8,10.9c0,0-62.5,1-69.8,54.8c0,0,21.5-15.4,54-16.4c0,0-32,11.5-40.5,50.5l32.5-10.5
		c0,0-20.4,27.1-19.6,46.4c0,0,31.8,1.4,38.4-5.6c-0.6,1-11.1,18-8.1,35.6c0,0,14.2-16,33.6-24.2c-0.3,16.4-13.7,37-13.7,37
		s17.6,0.3,26.6-2.9c6.5-2,12.6-5.7,12.6-5.7c10,54.4,42.5,97.3,97.7,115.7l-9.7,12.7c23.9,8.7,60.4,15.4,88.3,15.8
		c32.8,0.6,103.2-0.5,127.5-10.6c1.8-0.8-20.3-17.3-18.6-18c47.3-19.8,93.5-67,104.2-117.6c0,0,9.9,16.3,38.4,17.1
		c30.4,0.8,45.2-6.8,45.2-6.8c-19-18.8-27.1-22.1-27.1-22.1c11.3-1.6,46.2,9.4,46.2,9.4c1.5-18.3-14.1-36.9-14.1-36.9
		c17.4-4.8,36.4-0.5,36.4-0.5c-1-35.8-28.5-39.7-35-45.7C813,414.4,826.9,422.9,826.9,422.9z"/>
	
		<ellipse transform="matrix(9.779325e-02 -0.9952 0.9952 9.779325e-02 19.6831 880.9302)" class="st6" cx="495.7" cy="429.6" rx="21.2" ry="17.7"/>
	<ellipse transform="matrix(0.42 -0.9075 0.9075 0.42 -98.9826 690.772)" class="st7" cx="490.9" cy="422.8" rx="13.2" ry="9.1"/>
	
		<ellipse transform="matrix(0.6441 -0.765 0.765 0.6441 -156.6242 474.3028)" class="st8" cx="431.4" cy="405.5" rx="4.8" ry="4.3"/>
	
		<ellipse transform="matrix(0.7648 -0.6443 0.6443 0.7648 -129.0816 456.0553)" class="st8" cx="560" cy="404.8" rx="4.3" ry="4.8"/>
	<path class="st9" d="M346.7,382.3c0,0-9.4-12-32.3-10.9c-28.3,1.3-30.6,29.7-30.6,29.7s8.2-10.4,27.6-6.9
		c13.4,2.4,17.4,19.4,17.6,23C329.1,420.7,330.3,395.6,346.7,382.3z"/>
	<path class="st9" d="M271.4,522.3c0,0,32.3-9.3,45.1-45.6c-6.9,33.5,0.6,66.3,0.6,66.3s-7.2-22.8-7.7-30.6
		C300.6,522,271.4,522.3,271.4,522.3z"/>
	<path class="st9" d="M333,333.7c0,0,38.5,20.8,26.3,38.7l37-27.8c-5.5,0.1-25.6,13.7-25.6,13.7S354.1,338.9,333,333.7z"/>
	<path class="st9" d="M674.4,402.9c0,0,8.2-15.8,31.2-16.6c28.3-1,37.4,32.6,37.4,32.6s-40.4-13.3-47.8,25.7
		C691.4,423.2,681.2,410.6,674.4,402.9z"/>
	<path class="st9" d="M639.9,371.5c0,0,16.8,18.5,20.5,23c0,0-6.1-21.6,20.4-44.6c-19.8,11.8-28.9,30.5-28.9,30.5L639.9,371.5z"/>
	<path class="st9" d="M677.1,557c11.8-19.8,17.5-51.6,16.8-67.9c0,0,29.6,35.9,85.8,34.2c-60.4,19.4-83.8-9.4-83.8-9.4
		S694.1,528.8,677.1,557z"/>
	<path class="st9" d="M368.6,608.9c-2.1-1.1,44.8,17.7,62,20.3c0,0-17-0.3-31.8,12.9l7.5-12.6C406.3,629.5,377.5,619.7,368.6,608.9z
		"/>
	<path class="st9" d="M669.2,568.4c0,0-28.2,37.5-70.2,50.1c-19.3,5.8-25.4,6.8-43.7,7.6c0,0,30.5,3,52.9,19.9l-10.7-17.3
		C597.5,628.6,634.2,612.3,669.2,568.4z"/>
	<path class="st10" d="M479.8,838.5"/>
	<path class="st11" d="M825.9,422.9c-8-23.6-27.9-27.2-39.4-30.7c10.7-14.7,46.9-7.2,46.9-7.2c-23.4-41.1-73.3-36.6-73.3-36.6
		c13.6-8.2,20.5-8.4,37.9-5.9c-28.1-18.5-69.7-6.4-69.7-6.4l9.7-11.8c-57.2,13.3-78.4,38.6-86.1,53.5
		c-37.7-34.6-88.9-55.7-154.1-55.4c-45.7,0.2-96.5,10.7-129,33.5c-11.5-14-49.3-40.1-104.3-37.7c22.9,10,36.2,17.2,37.1,17.7
		c-2-0.2-57.4-6-74.7,7.8c0,0,29.8,5.5,35.8,10.9c0,0-62.5,1-69.8,54.8c0,0,23.6-18,54-16.4c0,0-32,11.5-40.5,50.5l32.5-10.5
		c0,0-20.4,27.1-19.6,46.4c0,0,25-1,38.4-5.6c-0.6,1-11.1,18-8.1,35.6c0,0,14.2-16,33.6-24.2c-0.3,16.4-13.7,37-13.7,37
		s17.6,0.3,26.6-2.9c6.5-2,12.6-5.7,12.6-5.7c10,54.4,42.5,97.3,97.7,115.7l-6.8,7.9c0,0-5.8,4.9,1.2,7.7
		c23,9.4,57.5,12.5,84.2,12.9c32.8,0.6,103.2-0.5,127.5-10.6c1.8-0.8-20.3-17.3-18.6-18c47.3-19.8,93.5-67,104.2-117.6
		c0,0,9.9,16.3,38.4,17.1c30.4,0.8,45.2-6.8,45.2-6.8c-19.5-18.2-23.6-21-23.6-21c18.3-3.2,42.7,8.3,42.7,8.3
		c1.5-18.3-14.1-36.9-14.1-36.9c17.4-4.8,36.4-0.5,36.4-0.5c-1-35.8-28.5-39.7-35-45.7C812.7,417,825.9,422.9,825.9,422.9z"/>
</g>
</svg>
