<?xml version="1.0" encoding="utf-8"?>
<!-- Generator: Adobe Illustrator 19.2.1, SVG Export Plug-In . SVG Version: 6.00 Build 0)  -->
<svg version="1.1" xmlns="http://www.w3.org/2000/svg" xmlns:xlink="http://www.w3.org/1999/xlink" x="0px" y="0px"
	 viewBox="0 0 1000 1000" style="enable-background:new 0 0 1000 1000;" xml:space="preserve">
<style type="text/css">
	.st0{clip-path:url(#SVGID_2_);fill:#00D49C;}
	.st1{clip-path:url(#SVGID_2_);fill:#00D49C;stroke:#FFFFFF;stroke-miterlimit:10;}
	.st2{clip-path:url(#SVGID_2_);fill:#50BF94;}
	.st3{clip-path:url(#SVGID_2_);fill:#3A9B84;}
	.st4{clip-path:url(#SVGID_2_);fill:#A3F2C0;}
	.st5{clip-path:url(#SVGID_2_);fill:#FFB6A7;}
	.st6{clip-path:url(#SVGID_2_);fill:none;stroke:#1A1A1A;stroke-miterlimit:10;}
	.st7{clip-path:url(#SVGID_2_);fill:#F72449;}
	.st8{clip-path:url(#SVGID_2_);fill:none;stroke:#FF887A;stroke-width:2;stroke-miterlimit:10;}
	.st9{clip-path:url(#SVGID_2_);fill:#1A1A1A;stroke:#1A1A1A;stroke-miterlimit:10;}
	.st10{clip-path:url(#SVGID_2_);fill:#FF887A;}
	.st11{clip-path:url(#SVGID_2_);fill:#FF716C;}
</style>
<g id="template">
</g>
<g id="Layer_2">
	<g>
		<defs>
			<circle id="SVGID_1_" cx="512.6" cy="458.6" r="396.3"/>
		</defs>
		<clipPath id="SVGID_2_">
			<use xlink:href="#SVGID_1_"  style="overflow:visible;"/>
		</clipPath>
		<path class="st0" d="M725.2,820.4c0-41.9-59.3-120.4-110.2-152.6c-46.9-29.7-78.5-39.5-88.2-42.4c-9.4-2.8-31.1-0.5-31.1-0.5
			S316,674.6,306.6,802.9c-2.5,34.5,71.6,114.1,71.6,114.1H446c0,0-71.5-80.2-74-104.1c-4-40,38.3-61.7,52.5-66L411,861.3l205.7-8
			l-23-108.2c0,0,55.6,13.1,62.5,49.3c7.9,41.3-52.8,92.7-52.8,92.7l52.8,28.8C656.3,916,725.2,846.4,725.2,820.4z"/>
		<path class="st0" d="M725.2,820.4c0-41.9-59.3-120.4-110.2-152.6c-46.9-29.7-78.5-39.5-88.2-42.4c-9.4-2.8-31.1-0.5-31.1-0.5
			S316,674.6,306.6,802.9c-2.5,34.5,71.6,114.1,71.6,114.1H446c0,0-71.5-80.2-74-104.1c-4-40,38.3-61.7,52.5-66L411,861.3l205.7-8
			l-23-108.2c0,0,55.6,13.1,62.5,49.3c7.9,41.3-52.8,92.7-52.8,92.7l52.8,28.8C656.3,916,725.2,846.4,725.2,820.4z"/>
		<path class="st1" d="M570.3,658.3c32.1-10.7,28.3-28.5,38.7-34c10-5.3,53.3,10,77.3-29.3c7.3-12,12.2-35.1,7.7-48.5
			c-3.4-10.1-5.3-13.5,1.5-13.5c6.8,0,32.7-4.2,42.2-38.1c10.6-37.8-6.4-44.5-4.5-55.4c1.4-8,32.3-23.8,18.5-69.7
			c-11.3-37.9-54.3-37.9-59.2-45.1c-3.5-5.1,15.8-57.4-23.7-82.3c-40-25.1-74.5,2.3-84-2.6c-16.6-8.7-17.7-48.5-65.2-50.5
			c-54.3-2.2-59.5,35.5-67.4,37.7c-10.9,3-57.6-20.7-88.9,8.7c-34.7,32.4-18.8,60.7-23.4,65.9s-23.4-0.4-45.2,17.7
			c-21.9,18.1-27.1,35-23.4,61.4c3.8,26.4,26.4,38.4,24.1,47.5s-20.6,29-10.6,75c9.4,43,44.5,49.1,51.7,57.8
			c9.5,11.5-8.8,41.3,26.5,60.5c35,19,61.3,2.2,70,4.8c3.7,1.1,10,28,38,33.3C524.6,669.9,528.3,672.3,570.3,658.3z"/>
		<path class="st2" d="M497,664.6c30.5,5.6,39.4,5,73.3-6.3c32.1-10.7,27.5-28.6,38.7-34c12-5.8,53.3,10,77.3-29.3
			c7.3-12,12.2-35.3,7.7-48.7c-1.2-3.5-2.5-6.6-4-8.1L497,538V664.6z"/>
		<path class="st3" d="M507,493l-223.9,1c0.4,3,0.8,6,1.6,9c12.7,48,44.7,44.5,51.7,57.9c7.5,14.4-8.7,45.8,26,66.1
			c35,20.5,58.5-5.7,68-1c10,5,3,27,32.5,34c34.8,8.3,29.9,4.4,47,2L507,493z"/>
		<path class="st0" d="M725.2,820.4c0-41.9-59.3-120.4-110.2-152.6c-46.9-29.7-78.5-39.5-88.2-42.4c-9.4-2.8-31.1-0.5-31.1-0.5
			S316,674.6,306.6,802.9c-2.5,34.5,71.6,114.1,71.6,114.1H446c0,0-71.5-80.2-74-104.1c-4-40,38.3-61.7,52.5-66L411,861.3l205.7-8
			l-23-108.2c0,0,55.6,13.1,62.5,49.3c7.9,41.3-52.8,92.7-52.8,92.7l52.8,28.8C656.3,916,725.2,846.4,725.2,820.4z"/>
		<path class="st2" d="M497.3,647.3c15,7.6,38.8-3.3,38.7-19c-1-0.3-7-2.2-7.8-2.5l-37.1,0.5c-1.5,0.5-6.2,1.8-8.4,2.5
			C484.2,633.8,485.4,641.3,497.3,647.3z"/>
		<path class="st4" d="M566.9,640.9c-7-3.3-13.9-5.8-18.9-7.9l2.5,97l-80.5,2l4.2-99.9c-5.6,2.1-12,4.3-19.1,7.3
			C450.4,673.9,432,811,426.5,860h172.8L566.9,640.9z"/>
		<polygon class="st2" points="470,732 549,730 548,633 543,631 543,719 471,722 		"/>
		<path class="st2" d="M455.1,639.2l-5.5,2.6c0,0-22.1,165.2-27.6,213.2h5C433.1,803,455.1,639.2,455.1,639.2z"/>
		<path class="st3" d="M528.2,625.9l-37.1,0.5c-0.9-0.5-4.1,1-5.3,1.3c0.6,5.1,5.3,14.7,15.3,17c21.4,4.8,33-11.3,32.4-17
			C533.8,627.7,533.3,627.3,528.2,625.9z"/>
		<path class="st5" d="M661.2,417.3c-9.4-18.1,3-33.5-0.9-36.5c-4-3-21.3,13.2-55.1-1.8c-39.4-17.5-30.6-43.1-35.3-44.6
			c-6.6-2.1-17.9,29.8-54.4,30.3c-44.5,0.6-60.7-35.6-67.1-32.5c-6.4,3-5.5,41.3-27.9,48.6c-28.6,9.4-50.9-6.8-56.3-2.3
			c-5.5,4.5-3.1,21.7-9.9,31.1c-9.6,13.4-32.4,16.9-32.4,16.9s13.1,28.4,18.9,61.3c-3.6-1.2-7.9-0.8-11.4,4.8
			c-7.5,12.1,3.1,35.4,9.4,38.2c2.5,1.1,5.3,1.6,8,1.6c4.2,23,12.7,49.7,31.5,61.1c23.1,14.1,63.2,26.4,111,28.4
			c2.1,7,3.4,12.6,13.6,15.1c7.5,1.8,15.8,0.7,20.3-2.8c4-3.1,5.4-7.5,6.5-12.9c61-4.7,104.8-19.9,124.9-43.3
			c12.5-14.6,20.1-32,24.6-46.8c4.9,0,8.1-1.9,12.5-4.7c6-3.8,15.8-24.1,6-36.2c-2.9-3.6-5.5-5-7.6-5.3c5.2-18.2,12.2-39,13.7-41.6
			C706,439.5,675,443.7,661.2,417.3z"/>
		<path class="st6" d="M538.2,444.4c0,0,22.8-31.4,61.5-30.7c20.1,0.3,33.6,10.7,33.6,10.7"/>
		<path class="st7" d="M477.7,546.1c9,1.3,16.7,1.4,31.7-1.6c15.1-3,40.6-2.8,43.6,15.9c1.8,11.2,0.1,19.7-4.5,24.9
			c-7.5,8.5-49,8.1-62.9,7.3c-11.6-0.6-23.7-6.2-23.2-17.5c0.3-5.3-0.6-18.5,0.9-23C464.9,547.7,468.6,544.8,477.7,546.1z"/>
		<path class="st8" d="M594.5,534.1c0,0-18.8,26.4,0,44.5"/>
		
			<ellipse transform="matrix(0.7071 -0.7071 0.7071 0.7071 -169.0171 536.8279)" class="st9" cx="563.5" cy="472.4" rx="7.7" ry="7.7"/>
		
			<ellipse transform="matrix(0.5722 -0.8201 0.8201 0.5722 -203.7445 554.5635)" class="st9" cx="429.7" cy="472.6" rx="7.9" ry="7.7"/>
		<path class="st2" d="M346.7,532.4c-2.7-0.1-5.5-0.5-8-1.6c-6.3-2.8-17-26.1-9.4-38.2c3.5-5.6,7.8-6,11.4-4.8
			c-5.9-32.9-18.9-61.3-18.9-61.3s22.8-3.5,32.4-16.9c6.8-9.4,4.5-26.6,9.9-31.1c5.5-4.5,27.7,11.7,56.3,2.3
			c22.4-7.4,21.4-45.6,27.9-48.6c6.4-3,22.6,33.2,67.1,32.5c15.5-0.2,26.5-6.1,34.5-12.6c5.3-4.6,15.6-15.6,17.7-17.5
			c0,0-18.1,6.6-34,7.8c-15.8,1.1-30-13.6-28.3-37.3c1.7-24.4,31.1-51.4,53.1-36.2c27.4,19,46.9,5.1,66.1-13.6
			c12-11.6,27.8-15.1,46.1-11.5c-0.6-0.4-1.3-0.9-2-1.3c-40-25.1-74.5,2.3-84-2.6c-16.6-8.7-17.7-48.5-65.2-50.5
			c-54.3-2.2-59.5,35.5-67.4,37.7c-10.9,3-57.6-20.7-88.9,8.7c-34.7,32.4-18.8,60.7-23.4,65.9c-4.5,5.3-23.4-0.4-45.2,17.7
			c-21.9,18.1-27.1,35-23.4,61.4c3.8,26.4,26.4,38.4,24.1,47.5s-20.6,29-10.6,75c9.4,43,39.7,49,54.3,53.1c3.9,1.1,9.3,2.5,15,3.9
			C350.7,551.2,348.3,541.5,346.7,532.4z"/>
		<path class="st2" d="M735.1,490.4c-0.8-12.2-11.5-17.1-14.1-24.9c-7.3-21.8,8.2-31.4-0.8-37.3c-3.2-2.1-32.2-1.1-43.9-15.4
			c-11.7-14.3-15.8-31.8-15.8-31.8c3.2,3.5-8.5,18.6,0.7,36.3c13.8,26.5,44.8,22.2,42.6,26.2c-1.5,2.6-8.5,23.5-13.7,41.6
			c2.2,0.3,4.7,1.7,7.6,5.3c9.8,12.1,0,32.4-6,36.2c-4.4,2.7-7.6,4.7-12.5,4.7c-4.3,14.2-11.5,30.8-23.2,45
			c6.3-0.4,12.1-1.4,15.3-3.3c9.8-6,15.8-13.6,17.3-24.1c1.5-10.6,0-15.8,6.8-15.8c4.8,0,19.3-2.1,30.7-15.5
			C733.7,508.7,735.7,498.8,735.1,490.4z"/>
		<path class="st10" d="M346.7,532.4c1.6,8.8,3.9,18.2,7.1,27c-0.7-6.9-1.9-16.3-3.3-24.4c-2.5-15-7.3-29.1-7.3-29.1
			c0.8,6.6,0.5,17.8,0.1,26.2C344.4,532.3,345.5,532.4,346.7,532.4z"/>
		<path class="st10" d="M684.3,508.2c0,0-10.7,34.8-16.1,49.8c4.9-9.1,8.5-18.3,11-26.7c1.7,0,3.2-0.2,4.6-0.7L684.3,508.2z"/>
		<path class="st10" d="M518.3,379c27.1-4.2,43.3-31,44.6-40.1c-7.8,8.4-21,25.4-47.6,25.8c-44.5,0.6-60.7-35.6-67.1-32.5
			c-6.4,3-5.5,41.3-27.9,48.6c-28.6,9.4-50.9-6.8-56.3-2.3c-5.5,4.5-3.1,21.7-9.9,31.1c-9.6,13.4-32.4,16.9-32.4,16.9
			s16.1,39.8,17.1,52.1c0,0-1.8-26.9,14.3-44.3c10.6-11.4,14.1-35.8,18.6-37.8c6.4-2.8,28.5,6.2,53.7-1.6
			c17.8-5.6,24.9-32.8,30.9-34.4C462.6,358.9,483.5,384.4,518.3,379z"/>
		<path class="st10" d="M690.1,485.1c5.2-18.2,12.2-39,13.7-41.6c2.3-4-28.8,0.3-42.6-26.2c-2.9-5.6-3.7-10.9-3.6-15.7l-0.5-0.3
			c0,0-2,25.6,18.1,42c13.7,11.1,13.1,12.4,14.1,15.3c3.5,10.4-2.4,31.9-2.4,31.9S690.8,485.2,690.1,485.1z"/>
		<path class="st2" d="M372.1,812.7c-3.5-35,25.3-56.7,52.5-65.9c-11.8-1.7-51.2-1.8-67.4,20.5c-20,27.5,0.5,70.4,0.5,70.4
			l35.5,13.6C381.8,835.5,372.9,820.8,372.1,812.7z"/>
		<path class="st2" d="M657.8,759.8c-16.7-15.8-52.9-16.2-64.1-14.7c15.5,5.1,56,17.7,62.5,49.3c3.1,15.2-3.5,31.9-12.8,46.8
			c20.4-9.2,26.7-34.3,26.7-34.3S678.9,779.8,657.8,759.8z"/>
		<path class="st11" d="M464.5,583.1c3.9,6,12.6,9.1,21.1,9.5c14,0.8,55.4,1.1,62.9-7.3c1.2-1.4,2.2-2.9,3-4.7
			c-2.3-3.8-5.2-7.7-8.3-10.8c-8.8-8.8-19.5-9.9-27.1-8.5c-5,0.9-14.7,9-14.7,9s-5.4-4.2-15.3-1.7
			C479.2,570.4,469.6,578.5,464.5,583.1z"/>
		<path class="st3" d="M370.9,772.4c-24.2,36.5,8.2,70.9,8.2,70.9l3.6-7.6c-5.9-9.5-11.2-19-10.7-32.3c0.9-26.9,24.1-44.1,52.7-56.7
			C424.6,746.8,386,749.5,370.9,772.4z"/>
		<path class="st3" d="M656.3,794.5c3.1,15.2-3.5,31.9-12.8,46.8c2.5-2,4.9-4.1,7-6.2c8.7-14,18.1-35.9,10.9-53.6
			c-14.1-34.5-67.6-36.3-67.6-36.3C609.2,750.2,649.8,762.8,656.3,794.5z"/>
		<path class="st3" d="M487.9,343.4c-28.3-29.4-47.1-36.5-63.7-26.4c-15.7,9.6-22.2,35.4-35.8,35.4c-13.6,0-24.3-21.8-43.7-25.6
			c-34.3-6.8-76.3,24.8-73.5,53.9c2.6,27.2,33.2,37.7,20.7,55.4c-4.4,6.3-7.4,18.9-9.6,31.6c-1,9.7-0.6,21.4,2.5,35.5
			c9.4,43,39.6,50.2,54.2,54.3c3.9,1.1,9.7,3.1,15.5,4.5c-3.4-9.1-6.2-20.5-7.8-29.6c-2.7-0.1-5.5-0.5-8-1.6
			c-6.3-2.8-17-26.1-9.4-38.2c3.5-5.6,7.8-6,11.4-4.8c-5.9-32.9-18.9-61.3-18.9-61.3s22.8-3.5,32.4-16.9c6.8-9.4,4.5-26.6,9.9-31.1
			c5.5-4.5,27.7,11.7,56.3,2.3c22.4-7.4,21.4-45.6,27.9-48.6c6.4-3,22.6,33.2,67.1,32.5c15.5-0.2,26.5-6.1,34.5-12.6
			c3.3-2.9,8.6-8.3,12.6-12.4l0.5-0.7C563,338.9,516.1,372.8,487.9,343.4z"/>
		<path class="st10" d="M501,598h15c0,0-2.5,3.8-7.5,4C503.5,602.2,501,598,501,598z"/>
		<path class="st6" d="M363,407c0,0,46-20,78.3,22.3c9.8,12.9,15.3,15.7,22,14.7c5-0.8,6.3-4.7,6.3-4.7"/>
	</g>
</g>
</svg>
