<?xml version="1.0" encoding="utf-8"?>
<!-- Generator: Adobe Illustrator 19.2.0, SVG Export Plug-In . SVG Version: 6.00 Build 0)  -->
<svg version="1.1" xmlns="http://www.w3.org/2000/svg" xmlns:xlink="http://www.w3.org/1999/xlink" x="0px" y="0px"
	 viewBox="0 0 1000 1000" style="enable-background:new 0 0 1000 1000;" xml:space="preserve">
<style type="text/css">
	.st0{fill:#3A9B84;}
	.st1{fill:#A4E1B6;}
	.st2{fill:#5EC1A1;}
	.st3{fill:#F72449;}
</style>
<g id="template">
</g>
<g id="Layer_2">
	<path class="st0" d="M799,769.3l-1.3-100.9c0,0,2.2-12.9-9.1-14.3c-9.8-1.3-14.5,5.8-25.6,8.7c-11.1,2.9-31.4-1.2-36.7-17.9
		c-5.4-17-3.1-35.9,15.3-44.7c16.4-7.9,32.3,0.1,42.5,5.9c7.6,4.4,13.9,3.5,14.2-7.8c0.3-10.6,1.1-124.7,1.1-124.7
		s-93.1-1.7-103.1-1.3c-16.2,0.6-18.2,0.2-10-13.3c7.4-12.2,12.1-35.4-0.7-52.7c-13-17.5-84.7-18.9-78.5,24.7
		c2.2,15.9,12,29.2,11.2,35.3c-1.2,9.4,7.1,9-14,8.7c-22-0.3-92.1-2.7-92.1-2.7l-0.1,110c0,0-2.6,16.7,13.2,15
		c9.7-1.1,23.1-9.8,38.2-9.4c12.3,0.3,29.7,10.3,30.5,29.4c1.3,27.9-20,38.9-39.4,36.4c-20.6-2.6-27.9-11.5-35.1-8.7
		c-7.5,2.8-7.6,7.9-7.4,24.7c0.2,14.1,0.6,100.6,0.6,100.6l0.2,0c0,0.1,0,0.2,0,0.2s79.1-0.1,104-0.4c1.4,0.1,4.1,0.3,6.8-0.1
		c15.9-0.6,24.3,5.2,16.2,18.7c-7.3,12.2-16.1,35.5-3.6,52.8c12.7,17.5,61,17.6,54.9-25.9c-2.2-15.9-12-28.1-11.3-34.3
		c0.8-6.4,3.7-9.2,12.2-10.1C716.8,771.6,799,771,799,771v0h0.1L799,769.3z"/>
	<path class="st1" d="M223,191.9l0.3,103.1c0,0-3.1,19.4,11.5,16.4c8.8-1.8,17.9-11,30.3-12c17.3-1.5,35.6,6.4,37.4,31.1
		s-15.8,30.2-21.4,32.9c-5.7,2.7-17.7,5.3-35.7-3.8c-22-11.2-22.1,1-22.9,4.9c-0.9,3.8,0,119.5,0,119.5l102.5-1.3
		c0,0,12.9,1.3,14.4-10c1.3-9.8-5.9-19.7-8.8-30.8c-2.9-11.1,1.2-31.4,17.9-36.7c17-5.4,35.9-3.1,44.7,15.3
		c7.9,16.4-0.1,32.3-6,42.5c-4.4,7.6-2.6,18.8,8.6,19.2c10.6,0.3,139.9,0.2,139.9,0.2s-11.7-94.6-12-104.6
		c-0.6-16.2,5.2-14.9,18.7-6.7c12.2,7.4,40.1,4.1,57.3-8.7c17.5-13,4.2-85.5-39.3-79.3c-15.9,2.2-25.2,15.4-31.3,14.7
		c-9.4-1.2-9,5.1-8.7-16c0.3-22,0.7-90.6,0.7-90.6L411,191c0,0-16.7-2.6-15,13.2c1.1,9.7,9.8,23.1,9.4,38.2
		c-0.3,12.3-10.3,29.7-29.4,30.5c-27.9,1.3-38.9-20-36.4-39.4c2.6-20.6,11.5-27.9,8.7-35.1c-2.8-7.5-7.9-7.6-24.7-7.4
		C309.5,191.3,223,191.9,223,191.9z"/>
	<path class="st2" d="M511.9,190.9l0.3,103.1c0,0-3.1,19.4,11.5,16.4c8.8-1.8,17.9-11,30.3-12c17.3-1.5,35.6,6.4,37.4,31.1
		c1.8,24.7-15.8,30.2-21.4,32.9c-5.7,2.7-17.7,5.3-35.7-3.8c-22-11.2-22.1,1-22.9,4.9c-0.9,3.8,0,119.5,0,119.5l102.5-1.3
		c0,0,12.9,1.3,14.4-10c1.3-9.8-5.9-19.7-8.8-30.8s1.2-31.4,17.9-36.7c17-5.4,35.9-3.1,44.7,15.3c7.9,16.4-0.1,32.3-6,42.5
		c-4.4,7.6-2.6,18.8,8.6,19.2c10.6,0.3,114.7,0,114.7,0s0-102.5-0.3-112.5c-0.6-16.2,5.3-24.7,18.8-16.5
		c12.2,7.4,35.5,16.4,52.8,3.7c17.5-13,17.7-62.1-25.9-55.9c-15.9,2.2-28.1,12.2-34.3,11.5c-9.4-1.2-10.9-7-10.6-28.2
		c0.3-22-0.3-93-0.3-93l-99.9-0.1c0,0-16.7-2.6-15,13.2c1.1,9.7,9.8,23.1,9.4,38.2c-0.3,12.3-10.3,29.7-29.4,30.5
		c-27.9,1.3-38.9-20-36.4-39.4c2.6-20.6,11.5-27.9,8.7-35.1c-2.8-7.5-7.9-7.6-24.7-7.4C598.4,190.3,511.9,190.9,511.9,190.9z"/>
	<path class="st3" d="M461.3,795.6c-14.2-7.2-29.7-6.2-34.3-10.3c-7-6.2-4.9-11.7,7.1-28.2c12.5-17.2,51.7-73.6,51.7-73.6
		l-69.7-48.4l-0.2,0.2c-11.6-8-20.6-14.2-23.1-15.8c-13.5-8.7-17.1-18.2-2.8-24.3c12.9-5.5,33.4-19,32.8-40
		c-0.7-21.2-40.5-49.2-60.1-11c-7.2,14-5.9,29.3-10,33.8c-6.3,6.8-11.9,4.7-28.9-7.5c-17.7-12.7-75.8-52.4-75.8-52.4l-56.4,79.4
		c0,0-11.6,11.8,2.2,19.4c8.5,4.6,24.3,5.3,36.4,14.1c9.9,7.2,18.3,24.9,8.3,40.6c-14.7,22.9-38.2,19.7-52.5,6.7
		c-15.2-13.7-16.2-24.9-23.6-26.8c-7.7-2-10.7,2-20,15.5c-7.8,11.3-56.1,80.5-56.1,80.5l84,58c0,0,14,13.4,19.8,0.2
		c3.5-8,1.2-20.4,7.3-30.9c8.6-14.6,25.3-24.7,46.4-12.2c21,12.5,15.7,29.6,14.6,35.6c-1.1,6.1-5.7,17.1-23.2,26.3
		c-21.5,11.2-11.6,18.1-9,21c2.6,2.9,97.1,67.5,97.1,67.5l13.1-19c17.2-24.4,45.6-64.6,49.3-70.2c8.6-13.1,18.1-16.5,24.5-2.4
		c5.8,12.7,19.7,33,40.9,32.7C472.6,854,500.2,815.3,461.3,795.6z"/>
</g>
</svg>
