<?xml version="1.0" encoding="utf-8"?>
<!-- Generator: Adobe Illustrator 19.2.1, SVG Export Plug-In . SVG Version: 6.00 Build 0)  -->
<svg version="1.1" xmlns="http://www.w3.org/2000/svg" xmlns:xlink="http://www.w3.org/1999/xlink" x="0px" y="0px"
	 viewBox="0 0 1000 1000" style="enable-background:new 0 0 1000 1000;" xml:space="preserve">
<style type="text/css">
	.st0{clip-path:url(#SVGID_2_);fill:#A3F2C0;}
	.st1{clip-path:url(#SVGID_2_);}
	.st2{fill:#F72449;}
	.st3{clip-path:url(#SVGID_2_);fill:#00D49C;}
	.st4{fill:#FF716C;}
	.st5{clip-path:url(#SVGID_2_);fill:#50BF94;}
	.st6{fill:#FFB6A7;}
	.st7{clip-path:url(#SVGID_2_);fill:#3A9B84;}
</style>
<g id="template">
</g>
<g id="Layer_2">
	<g>
		<defs>
			<path id="SVGID_1_" d="M788.1,396.6c-9,199.5-127.5,352.6-316,348.9c-198.5-3.9-309.4-135.9-310.9-354.9
				c-1.8-266.2-21-259.5,310.9-258C806.1,134.1,797.7,184.2,788.1,396.6z"/>
		</defs>
		<clipPath id="SVGID_2_">
			<use xlink:href="#SVGID_1_"  style="overflow:visible;"/>
		</clipPath>
		<path class="st0" d="M792.2,395.5c-10.5-25.5-63.6-27.2-72.6-0.2c-9,26.9-62.1,26.4-72.6,0.9c-10.9-26.5-62-28.1-71-1.1
			c-8.9,26.6-62.5,27-72,0c-9.1-25.8-63-26-72.5,1c-9.3,26.4-62.5,24.5-71,0c-9.6-27.5-62.5-27-71.5-1
			c-10.1,29.3-64.2,28.9-72.5,0.5c-8-27.5-64-27-73,1L143.1,735H793L792.2,395.5z"/>
		<g class="st1">
			<path class="st2" d="M731.1,445.9L703.1,462l-1.6-2.8c-2.7-4.8-4.4-8.9-5.1-12.5c-0.6-3.6-0.6-7.2,0.1-10.9
				c0.7-3.7,3-10.8,6.9-21.3c2.1-5.5,2.4-9.6,0.8-12.3c-1.6-2.7-3.6-4.3-6-4.9c-2.5-0.6-5.3,0.1-8.5,1.9c-3.5,2-5.7,4.8-6.6,8.5
				c-0.9,3.6-0.1,8.5,2.6,14.6l-30.6,13c-5.1-11.1-6.2-21.7-3.2-31.9c2.9-10.2,11.3-19.3,25-27.3c10.7-6.2,20.6-8.9,29.8-8.3
				c12.4,0.9,21.5,6.3,27.3,16.4c2.4,4.2,3.6,8.9,3.5,14.1c-0.1,5.2-2,12.7-5.9,22.4c-2.7,6.8-4,11.7-3.9,14.9
				C727.7,438.6,728.9,442.1,731.1,445.9z M706.5,470l29.9-17.3l15.3,26.4l-29.9,17.3L706.5,470z"/>
		</g>
		<g class="st1">
			<path class="st2" d="M543,433.4l-41.7-5.6l0.6-4.2c1-7.1,2.5-12.8,4.7-17c2.2-4.2,5.1-7.9,8.8-11.2c3.7-3.2,11.7-8.7,24-16.4
				c6.6-4,10.1-8.1,10.7-12.1c0.5-4-0.2-7.3-2.3-9.9c-2.1-2.6-5.5-4.1-10.4-4.8c-5.2-0.7-9.7,0.4-13.6,3.4c-3.9,3-6.8,8.7-8.9,17.1
				l-41.9-11c3.6-15.5,10.9-27.3,22.1-35.5c11.2-8.2,27-11,47.5-8.2c16,2.1,28.4,7.2,37.3,15.2c12.1,10.8,17.2,23.7,15.2,38.7
				c-0.8,6.2-3.4,12-7.6,17.3c-4.2,5.3-12.2,11.4-23.9,18.4c-8.2,4.9-13.5,8.9-15.9,12.2C545.3,423.2,543.8,427.6,543,433.4z
				 M498.4,438.7l44.7,6l-5.3,39.4l-44.7-6L498.4,438.7z"/>
		</g>
		<g class="st1">
			<path class="st2" d="M299.7,421.1l-27.2,32.1l-3.2-2.7c-5.5-4.6-9.4-9-11.7-13.1c-2.4-4.1-3.9-8.6-4.7-13.4
				c-0.7-4.8-1-14.5-0.9-29.1c0.1-7.7-1.3-12.9-4.4-15.5c-3.1-2.6-6.3-3.7-9.6-3.4c-3.3,0.4-6.5,2.4-9.6,6.1
				c-3.4,4-4.9,8.4-4.4,13.3c0.4,4.9,3.6,10.4,9.6,16.8l-31.8,29.4c-11.1-11.3-17.1-23.9-18-37.8c-0.9-13.9,5.3-28.7,18.7-44.5
				c10.4-12.3,21.4-20,32.9-23.3c15.6-4.4,29.2-1.7,40.8,8.1c4.8,4.1,8.3,9.3,10.5,15.7c2.2,6.4,3.1,16.4,2.6,30
				c-0.3,9.5,0.3,16.2,1.7,20C292.4,413.6,295.3,417.4,299.7,421.1z M280.2,461.6l29.1-34.4l30.4,25.7l-29.1,34.4L280.2,461.6z"/>
		</g>
		<path class="st3" d="M792.2,468.5c-10.5-25.5-63.6-27.2-72.6-0.2c-9,26.9-62.1,26.4-72.6,0.9c-10.9-26.5-62-28.1-71-1.1
			c-8.9,26.6-62.5,27-72,0c-9.1-25.8-63-26-72.5,1c-9.3,26.4-62.5,24.5-71,0c-9.6-27.5-62.5-27-71.5-1
			c-10.1,29.3-64.2,28.9-72.5,0.5c-8-27.5-64-27-73,1L143.1,808H793L792.2,468.5z"/>
		<g class="st1">
			<path class="st4" d="M670.7,552l-36.9,5.3l-0.5-3.7c-0.9-6.3-0.9-11.5-0.1-15.6c0.9-4.1,2.5-8,4.8-11.6
				c2.4-3.6,7.9-10.3,16.5-19.8c4.6-5,6.7-9.3,6.2-12.9c-0.5-3.6-2-6.2-4.3-7.9c-2.4-1.7-5.7-2.2-10-1.6c-4.6,0.7-8.2,2.7-10.8,6.2
				c-2.6,3.5-3.7,9.1-3.5,16.8l-38.4,0.7c-0.7-14,2.7-25.9,10.3-35.6c7.6-9.7,20.4-15.9,38.6-18.5c14.1-2,25.9-0.7,35.5,3.9
				c12.9,6.3,20.3,16.1,22.3,29.3c0.8,5.5,0,11-2.3,16.6c-2.3,5.6-7.6,12.7-16,21.4c-5.8,6.1-9.3,10.9-10.6,14.3
				C670.2,542.7,669.9,546.9,670.7,552z M633.9,567.2l39.6-5.7l5,34.9l-39.6,5.7L633.9,567.2z"/>
		</g>
		<g class="st1">
			<path class="st4" d="M413.6,543.9l-33.8-15.7l1.6-3.4c2.7-5.8,5.5-10.1,8.5-13.1c3-3,6.4-5.4,10.4-7.1c4-1.8,12.2-4.3,24.7-7.6
				c6.6-1.7,10.7-4.2,12.2-7.4c1.5-3.3,1.7-6.2,0.6-9c-1.1-2.7-3.6-5-7.5-6.8c-4.2-2-8.3-2.2-12.4-0.7c-4.1,1.5-8.1,5.6-12.1,12.1
				L373.2,465c7.1-12.2,16.4-20.2,28.1-24.2c11.6-4,25.8-2.2,42.4,5.6c12.9,6,22.1,13.6,27.6,22.7c7.4,12.3,8.3,24.6,2.7,36.7
				c-2.3,5-6,9.3-11,12.7c-5,3.4-13.3,6.5-25.1,9.3c-8.2,2-13.8,4-16.7,6.2C418.3,535.9,415.7,539.3,413.6,543.9z M374.4,536.7
				l36.2,16.8l-14.8,32l-36.2-16.8L374.4,536.7z"/>
		</g>
		<path class="st5" d="M792.2,557.5c-10.5-25.5-63.6-27.2-72.6-0.2c-9,26.9-62.1,26.4-72.6,0.9c-10.9-26.5-62-28.1-71-1.1
			c-8.9,26.6-62.5,27-72,0c-9.1-25.8-63-26-72.5,1c-9.3,26.4-62.5,24.5-71,0c-9.6-27.5-62.5-27-71.5-1
			c-10.1,29.3-64.2,28.9-72.5,0.5c-8-27.5-64-27-73,1L143.1,897H793L792.2,557.5z"/>
		<g class="st1">
			<path class="st6" d="M270.1,648.7l-20.2-23.6l2.4-2c4-3.4,7.7-5.8,10.9-7c3.3-1.2,6.7-1.8,10.3-1.8c3.6,0,10.7,0.9,21.3,2.8
				c5.6,1,9.5,0.5,11.8-1.4c2.3-2,3.5-4.1,3.6-6.6c0.1-2.4-1-5-3.3-7.7c-2.5-2.9-5.6-4.5-9.2-4.8c-3.6-0.3-8,1.4-13.3,5l-17.7-26.6
				c9.6-6.8,19.4-9.7,29.6-8.7c10.2,1,20.3,7.2,30.2,18.8c7.7,9,12.1,17.9,13.1,26.7c1.4,11.9-2.2,21.5-10.6,28.7
				c-3.5,3-7.7,5-12.7,5.8c-4.9,0.9-12.3,0.3-22.2-1.6c-6.9-1.3-11.8-1.7-14.7-1.1C276.4,644.2,273.3,645.9,270.1,648.7z
				 M242.9,629.7l21.7,25.2L242.3,674l-21.7-25.2L242.9,629.7z"/>
		</g>
		<g class="st1">
			<path class="st6" d="M558,625.7l-23.9,19.8l-2-2.4c-3.4-4.1-5.6-7.8-6.8-11.1c-1.2-3.3-1.7-6.8-1.6-10.4
				c0.1-3.6,1.1-10.7,3.1-21.3c1.1-5.6,0.7-9.5-1.2-11.8c-1.9-2.3-4.1-3.5-6.5-3.7c-2.4-0.1-5,0.9-7.8,3.2c-3,2.5-4.6,5.5-4.9,9.1
				c-0.3,3.6,1.3,8.1,4.8,13.4l-26.9,17.2c-6.6-9.7-9.3-19.6-8.2-29.8c1.1-10.2,7.6-20.1,19.3-29.9c9.1-7.6,18.1-11.8,26.9-12.6
				c11.9-1.2,21.4,2.6,28.5,11.1c3,3.6,4.8,7.8,5.6,12.8c0.8,4.9,0.1,12.3-2,22.1c-1.5,6.9-1.9,11.8-1.3,14.7
				C553.7,619.3,555.3,622.4,558,625.7z M538.6,652.5l25.6-21.2l18.7,22.6l-25.6,21.2L538.6,652.5z"/>
		</g>
		<path class="st7" d="M792.2,650.5c-10.5-25.5-63.6-27.2-72.6-0.2c-9,26.9-62.1,26.4-72.6,0.9c-10.9-26.5-62-28.1-71-1.1
			c-8.9,26.6-62.5,27-72,0c-9.1-25.8-63-26-72.5,1c-9.3,26.4-62.5,24.5-71,0c-9.6-27.5-62.5-27-71.5-1
			c-10.1,29.3-64.2,28.9-72.5,0.5c-8-27.5-64-27-73,1L143.1,990H793L792.2,650.5z"/>
	</g>
</g>
</svg>
