<?xml version="1.0" encoding="utf-8"?>
<!-- Generator: Adobe Illustrator 19.2.0, SVG Export Plug-In . SVG Version: 6.00 Build 0)  -->
<svg version="1.1" xmlns="http://www.w3.org/2000/svg" xmlns:xlink="http://www.w3.org/1999/xlink" x="0px" y="0px"
	 viewBox="0 0 1000 1000" style="enable-background:new 0 0 1000 1000;" xml:space="preserve">
<style type="text/css">
	.st0{fill:#3A9B84;}
	.st1{fill:#50BF94;}
	.st2{fill:#00D49C;}
	.st3{fill:#A3F2C0;}
	.st4{fill:#F72449;}
	.st5{fill:#FF887A;}
</style>
<g id="template">
</g>
<g id="Layer_2">
	<g>
		<path class="st0" d="M621.9,355.8l-6.2-3.6c-2.7-1.6-3.6-5-2.1-7.7l65.5-113.4c1.6-2.7,5-3.6,7.7-2.1l6.2,3.6
			c2.7,1.6,3.6,5,2.1,7.7l-65.5,113.4C628.1,356.4,624.6,357.4,621.9,355.8z"/>
		<path class="st0" d="M378.8,352.8l-5.9,4c-2.6,1.8-6.1,1.1-7.9-1.4l-74.3-107.8c-1.8-2.6-1.1-6.1,1.4-7.9l5.9-4
			c2.6-1.8,6.1-1.1,7.9,1.4l74.3,107.8C382.1,347.4,381.4,351,378.8,352.8z"/>
		<path class="st0" d="M335.5,824.9l-10.5-7c-4.6-3.1-5.9-9.3-2.8-13.9l45.9-69.2c3.1-4.6,9.3-5.9,13.9-2.8l10.5,7
			c4.6,3.1,5.9,9.3,2.8,13.9l-45.9,69.2C346.4,826.7,340.1,828,335.5,824.9z"/>
		<path class="st0" d="M660,816.4l-10.2,7.1c-4.5,3.1-10.7,2-13.8-2.5l-46-66.7c-3.1-4.5-2-10.7,2.5-13.8l10.2-7.1
			c4.5-3.1,10.7-2,13.8,2.5l46,66.7C665.6,807.1,664.5,813.3,660,816.4z"/>
		<circle class="st1" cx="490.2" cy="553.9" r="250"/>
		<circle class="st2" cx="490.2" cy="553.9" r="199.3"/>
		<circle class="st3" cx="490.2" cy="553.9" r="140.1"/>
		<path class="st4" d="M249.8,374.7c-8.7-0.8-28.2-25-13-58.6s114.8-76.1,125.9-81.4c39.1-18.5,83.6,16.1,76,36.9
			S270.5,376.6,249.8,374.7z"/>
		<path class="st4" d="M546.4,271.9c-7.3-15.5,6.1-37.2,42.6-42.3s126.8,54.9,136.1,63.1c39.3,34.6,29.3,84,9.3,84
			S553.7,287.4,546.4,271.9z"/>
		<path class="st0" d="M284.6,265c-7.9,3-11.8-7-4.3-11.1c2.5-1.3,54.4-24.3,63.7-35.5c6.3-7.4,4.8-15.6,3.2-25
			c-1.4-8-3-17,0.9-25.6c10.7-24,31.4-47.2,154.9-44c115.3,2.9,126.4,42.9,130,56.1c0.2,0.6,0.3,1.2,0.5,1.6
			c2.2,6.5,2,12.9,1.9,19.1c-0.3,11.6,0,18.4,9.8,24.2c18.7,11.1,52.5,25.1,57.8,27.6c8.9,4.1,2.1,15.1-5,12s-40-16.8-59.4-28.4
			c-16.8-10-16.5-24.3-16.2-35.8c0.1-5.3,0.3-10.4-1.2-14.6c-0.2-0.6-0.4-1.4-0.7-2.3c-1.5-5.4-4.3-15.6-19-25.2
			c-19.7-13-52.9-20.1-98.7-21.3c-125.1-3.2-136.1,21.5-142.6,36.3c-2.2,5-1.2,11.1,0.1,18.1c1.8,10.5,4.1,23.5-6.1,35.6
			C342.2,240.8,290.7,262.7,284.6,265z"/>
		<circle class="st4" cx="488" cy="552.8" r="19.5"/>
		<path class="st4" d="M467.9,535.2l-4.4,7.6c-1.9,3.3-6.2,4.5-9.6,2.6l-104.8-60.5c-3.3-1.9-4.5-6.2-2.6-9.6l4.4-7.6
			c1.9-3.3,6.2-4.5,9.6-2.6l104.8,60.5C468.7,527.6,469.9,531.9,467.9,535.2z"/>
		<path class="st4" d="M560.5,619.3l-5.9,5.9c-2.6,2.6-6.8,2.6-9.4,0l-37.4-37.4c-2.6-2.6-2.6-6.8,0-9.4l5.9-5.9
			c2.6-2.6,6.8-2.6,9.4,0l37.4,37.4C563.1,612.5,563.1,616.7,560.5,619.3z"/>
		
			<ellipse transform="matrix(0.9104 -0.4137 0.4137 0.9104 -74.2701 173.6258)" class="st5" cx="363.7" cy="258.3" rx="33" ry="15"/>
		<ellipse transform="matrix(0.3342 -0.9425 0.9425 0.3342 164.0139 748.7543)" class="st5" cx="612" cy="258.3" rx="15" ry="33"/>
	</g>
</g>
</svg>
