<svg xmlns="http://www.w3.org/2000/svg" xmlns:xlink="http://www.w3.org/1999/xlink" version="1.1" id="Layer_1" x="0px" y="0px" width="100px" height="71.962px" viewBox="-19.8 -17.0492 100.0 97.1487" enable-background="new -24.8 -9.853 100 71.962" xml:space="preserve">
<g id="Layer_2">
	<path d="M57.082,7.434c-4.775,0.035-8.672-3.817-8.678-8.597c-0.025-4.772,3.828-8.663,8.61-8.69   c4.771-0.016,8.653,3.834,8.682,8.606C65.716,3.532,61.87,7.424,57.082,7.434z"/>
</g>
<path d="M5.038,32.694l8.326,3.425c2.449-4.228,5.516-7.823,9.323-9.573c4.265-1.947,8.965-2.935,13.972-2.935  c5.053,0,9.93,0.998,14.316,2.405c2.54-5.133,5.196-10.014,7.773-13.827C54.74,8.058,46.66,8.234,44.24,15.802l-2.139,4.788  l-10.234-6.669V-0.915L20.213-1.019l-8.475-7.983v22.444l6.709,6.32L0.907,14.657c-1.988-0.581-4.146,0.11-5.423,1.751  l-19.205,24.543c-1.73,2.21-1.337,5.411,0.872,7.142c0.928,0.73,2.033,1.083,3.133,1.083c1.507,0,3.003-0.675,4.007-1.953  l11.077-14.165v23.984c0,6.791,9.67,6.76,9.67-0.122C5.038,50.545,5.038,32.694,5.038,32.694z"/>
<path d="M65.204,8.676c-3.522,3.272-7.647,10.399-11.532,18.269c6.935,2.577,12.259,5.944,14.509,7.475L75.2,5.353  C74.973,5.316,69.675,4.52,65.204,8.676z"/>
<g>
	<path d="M7.648,61.725c0,0,4.479-27.383,16.161-32.732c20.307-9.277,43.93,8.409,43.93,8.409l-6.068,24.382L7.648,61.725z"/>
</g>
<text x="-24.8" y="74.70235" font-size="3.5981" font-weight="bold" font-family="Helvetica Neue, Helvetica, Arial-Unicode, Arial, Sans-serif" fill="#000000">Created by Luis Prado</text><text x="-24.8" y="78.30045" font-size="3.5981" font-weight="bold" font-family="Helvetica Neue, Helvetica, Arial-Unicode, Arial, Sans-serif" fill="#000000">from the Noun Project</text></svg>