<svg xmlns="http://www.w3.org/2000/svg" xmlns:xlink="http://www.w3.org/1999/xlink" version="1.1" id="Layer_1" x="0px" y="0px" width="100px" height="100px" viewBox="5.0 -10.0 100.0 135.0" enable-background="new 0 0 100 100" xml:space="preserve">
<g>
	<rect x="44.882" y="47.958" width="37.808" height="3.55"/>
	<rect x="44.882" y="54.529" width="37.808" height="3.548"/>
	<rect x="44.882" y="61.805" width="37.808" height="3.551"/>
	<rect x="79.145" y="15.918" width="3.546" height="22.013"/>
	<rect x="71.157" y="24.438" width="3.546" height="13.493"/>
	<rect x="63.169" y="32.426" width="3.546" height="5.505"/>
	<path d="M46.806,16.112v10.01h10.008C56.309,20.812,52.115,16.624,46.806,16.112z"/>
	<path d="M56.814,28.253H46.271l-7.566,7.564c1.926,1.572,4.354,2.555,7.036,2.555C51.553,38.372,56.273,33.924,56.814,28.253z"/>
	<path d="M44.675,16.112c-5.671,0.544-10.117,5.265-10.117,11.075c0,2.728,1.013,5.193,2.634,7.134l7.483-7.486V16.112z"/>
	<path d="M85.586,5H31.63c-4.502,0-8.169,3.667-8.169,8.169v37.813c0.031,0,0.059-0.004,0.09-0.004c0.495,0,0.982,0.031,1.466,0.074   c-0.484-0.04-0.971-0.074-1.466-0.074c-9.558,0-17.308,7.748-17.308,17.307c0,9.559,7.75,17.308,17.308,17.308   c0.494,0,0.979-0.033,1.462-0.074c-0.482,0.044-0.968,0.074-1.462,0.074c-0.031,0-0.059-0.004-0.09-0.004v1.242   c0,4.503,3.667,8.169,8.169,8.169h38.339c1.777,0,3.45-0.662,5.275-2.194c1.826-1.533,14.866-14.862,16.198-16.509   c1.961-2.421,2.314-3.841,2.314-6.148V13.169C93.757,8.667,90.093,5,85.586,5z M26.362,51.227   c-0.259-0.043-0.517-0.089-0.779-0.119C25.845,51.14,26.104,51.183,26.362,51.227z M19.95,77.19l-7.446-7.446l4.518-4.518   l3.024,3.024l10.431-9.997l4.424,4.614L19.95,77.19z M25.587,85.463c0.246-0.029,0.488-0.072,0.731-0.111   C26.076,85.392,25.833,85.432,25.587,85.463z M31.63,90.74c-2.155,0-3.909-1.754-3.909-3.909v-1.765   c-0.006,0.001-0.012,0.002-0.017,0.004c7.549-1.863,13.154-8.661,13.154-16.785c0-8.129-5.61-14.929-13.165-16.787   c0.009,0.002,0.019,0.004,0.028,0.006V13.169c0-2.155,1.753-3.909,3.909-3.909h53.956c2.157,0,3.909,1.753,3.909,3.909   l0.018,58.235c-0.097,0.406-0.431,1.016-0.938,1.766h-10.08c-3.333,0-6.04,2.704-6.04,6.038v10.538   c-0.722,0.521-1.312,0.87-1.721,0.994H31.63z"/>
</g>
<text x="0.0" y="117.5" font-size="5.0" font-weight="bold" font-family="Helvetica Neue, Helvetica, Arial-Unicode, Arial, Sans-serif" fill="#000000">Created by Yamini Chandra</text><text x="0.0" y="122.5" font-size="5.0" font-weight="bold" font-family="Helvetica Neue, Helvetica, Arial-Unicode, Arial, Sans-serif" fill="#000000">from the Noun Project</text></svg>