<?xml version="1.0" encoding="UTF-8" standalone="no"?>
<svg
   xmlns:dc="http://purl.org/dc/elements/1.1/"
   xmlns:cc="http://creativecommons.org/ns#"
   xmlns:rdf="http://www.w3.org/1999/02/22-rdf-syntax-ns#"
   xmlns:svg="http://www.w3.org/2000/svg"
   xmlns="http://www.w3.org/2000/svg"
   xmlns:sodipodi="http://sodipodi.sourceforge.net/DTD/sodipodi-0.dtd"
   xmlns:inkscape="http://www.inkscape.org/namespaces/inkscape"
   viewBox="0 0 300 52.208172"
   height="52.208172"
   width="300"
   xml:space="preserve"
   version="1.1"
   id="svg2"
   inkscape:version="0.91 r13725"
   sodipodi:docname="text_only.svg"><sodipodi:namedview
     pagecolor="#ffffff"
     bordercolor="#666666"
     borderopacity="1"
     objecttolerance="10"
     gridtolerance="10"
     guidetolerance="10"
     inkscape:pageopacity="0"
     inkscape:pageshadow="2"
     inkscape:window-width="1280"
     inkscape:window-height="736"
     id="namedview3506"
     showgrid="false"
     inkscape:zoom="3.8066667"
     inkscape:cx="84.990744"
     inkscape:cy="27.823292"
     inkscape:window-x="0"
     inkscape:window-y="0"
     inkscape:window-maximized="0"
     inkscape:current-layer="svg2" /><metadata
     id="metadata8"><rdf:RDF><cc:Work
         rdf:about=""><dc:format>image/svg+xml</dc:format><dc:type
           rdf:resource="http://purl.org/dc/dcmitype/StillImage" /></cc:Work></rdf:RDF></metadata><defs
     id="defs6"><clipPath
       id="clipPath12"
       clipPathUnits="userSpaceOnUse"><path
         id="path14"
         d="M 0,0 225,0 225,152 0,152 0,0 Z" /></clipPath><clipPath
       id="clipPath22"
       clipPathUnits="userSpaceOnUse"><path
         id="path24"
         d="M 0,0 225,0 225,152 0,152 0,0 Z" /></clipPath><clipPath
       clipPathUnits="userSpaceOnUse"
       id="clipPath3514"><rect
         style="fill:#0000ff;fill-rule:evenodd;stroke:#000000;stroke-width:0.75px;stroke-linecap:butt;stroke-linejoin:miter;stroke-opacity:1"
         id="rect3516"
         width="230.51665"
         height="40.783714"
         x="-1.576178"
         y="-40.78371"
         transform="scale(1,-1)" /></clipPath></defs><g
     clip-path="url(#clipPath3514)"
     transform="matrix(1.3333333,0,0,-1.3333333,0.26269508,52.733564)"
     id="g10"><g
       id="g16" /><g
       id="g18"><g
         clip-path="url(#clipPath22)"
         id="g20"><path
           id="path26"
           style="fill:#393536;fill-opacity:1;fill-rule:evenodd;stroke:none"
           d="m 131.656,70.887 c 1.246,-2.04 2.056,-5.012 2.473,-7.165 l 0.838,-4.337 -20.769,-0.148 0.086,-0.143 -22.511,0.212 -0.243,3.377 c -0.13,1.802 0.028,4.037 0.701,5.719 0.119,0.297 0.239,0.594 0.361,0.891 -0.075,0.092 -0.148,0.185 -0.218,0.28 -0.521,0.693 -0.986,1.506 -1.268,2.326 l -0.432,1.258 0.777,2.04 c -0.46,0.531 -0.788,1.142 -1.001,1.795 l -18.863,1.851 c -0.974,0.065 -1.861,0.558 -2.484,1.306 -0.671,0.804 -0.98,1.811 -1.141,2.828 -0.072,0.456 -0.067,0.922 0.014,1.376 0.435,2.446 2.931,4.02 5.094,4.818 l 0.754,0.279 16.233,-2.305 c 1.097,2.477 3.409,4.286 6.165,4.692 l 1.76,11.172 1.532,-0.667 25.971,5.942 0.962,-3.067 1.65,1.211 3.917,-14.445 c 4.99,-0.537 8.877,-4.764 8.877,-9.895 0,-0.398 -0.024,-0.793 -0.07,-1.185 l 18.932,-1.65 -4.759,-4.818 c -1.924,-1.948 -4.988,-4.138 -7.751,-4.463 -0.543,-0.064 -1.085,-0.071 -1.632,-0.07 -0.655,0.003 -1.31,0.025 -1.965,0.054 -1.585,0.069 -3.167,0.18 -4.748,0.301 -1.888,0.145 -3.774,0.309 -5.658,0.484 -0.528,0.049 -1.056,0.096 -1.584,0.146"
           inkscape:connector-curvature="0" /><path
           id="path28"
           style="fill:#393536;fill-opacity:1;fill-rule:evenodd;stroke:none"
           d="m 92.857,79.461 -21.066,2.068 c -0.244,0.006 -0.468,0.161 -0.619,0.343 -0.327,0.392 -0.473,1.035 -0.55,1.525 -0.25,1.579 2.163,2.799 3.381,3.248 l 0.116,0.043 17.952,-2.549 c 0.126,2.833 2.463,5.091 5.326,5.091 0.385,0 0.76,-0.04 1.121,-0.118 l 1.581,10.037 1.206,-0.525 0.2,1.411 22.156,5.07 1.344,-4.286 1.521,1.116 3.431,-12.652 c 0.321,0.043 0.648,0.065 0.981,0.065 4.009,0 7.26,-3.251 7.26,-7.26 0,-1.301 -0.342,-2.521 -0.941,-3.577 l 16.554,-1.443 -0.732,-0.741 c -1.464,-1.482 -4.073,-3.437 -6.15,-3.681 -0.426,-0.05 -0.88,-0.052 -1.309,-0.051 -0.618,0.002 -1.238,0.023 -1.855,0.051 -1.555,0.068 -3.11,0.177 -4.662,0.296 -1.872,0.143 -3.744,0.306 -5.614,0.48 -0.85,0.079 -1.708,0.152 -2.556,0.246 l -2.707,0.301 2.643,0.661 c 0.002,0 0.003,0.001 0.006,0.001 0.26,0.062 0.532,0.142 0.805,0.234 -0.244,-0.025 -0.492,-0.038 -0.742,-0.038 -1.378,0 -2.667,0.384 -3.765,1.051 0.135,-0.399 0.271,-0.799 0.408,-1.198 0.169,-0.496 0.341,-0.99 0.514,-1.485 0.049,-0.138 0.097,-0.276 0.146,-0.415 0.013,-0.036 0.026,-0.072 0.038,-0.108 0.006,-0.016 0.012,-0.033 0.019,-0.052 0.075,-0.224 0.066,-0.472 -0.024,-0.69 -0.095,-0.228 -0.256,-0.371 -0.445,-0.48 0.373,-0.453 0.739,-0.912 1.111,-1.366 1.261,-1.544 2.164,-4.905 2.545,-6.873 l 0.224,-1.157 -22.241,-0.158 0.038,-0.064 -15.226,0.143 -0.064,0.901 c -0.099,1.366 0.005,3.251 0.515,4.526 0.337,0.843 0.682,1.684 1.058,2.511 l 0.009,0.027 c -0.481,0.339 -0.906,0.762 -1.27,1.248 -0.346,0.461 -0.688,1.042 -0.875,1.587 l -0.116,0.335 1.195,3.138 c -0.161,0.03 -0.32,0.078 -0.475,0.145 -0.109,0.047 -0.214,0.103 -0.314,0.168 -0.099,0.064 -0.194,0.137 -0.281,0.217 -0.727,0.668 -0.892,1.726 -0.807,2.665 10e-4,0.006 10e-4,0.012 0.002,0.018"
           inkscape:connector-curvature="0" /><path
           id="path30"
           style="fill:#b0aead;fill-opacity:1;fill-rule:evenodd;stroke:none"
           d="m 97.397,88.741 c 2.674,0 4.843,-2.169 4.843,-4.843 0,-2.673 -2.169,-4.841 -4.843,-4.841 -2.673,0 -4.842,2.168 -4.842,4.841 0,2.674 2.169,4.843 4.842,4.843"
           inkscape:connector-curvature="0" /><path
           id="path32"
           style="fill:#b0aead;fill-opacity:1;fill-rule:evenodd;stroke:none"
           d="m 101.942,99.633 -1.101,-7.785 9.358,-4.522 16.553,6.291 -3.423,10.91 -21.387,-4.894"
           inkscape:connector-curvature="0" /><path
           id="path34"
           style="fill:#393536;fill-opacity:1;fill-rule:evenodd;stroke:none"
           d="m 100.312,85.244 c -0.13,0.1 -0.383,0.223 -0.484,0.27 -0.146,0.068 -0.523,0.236 -0.711,0.261 l -0.654,-0.155 2.021,12.827 5.54,-2.414 3.56,-7.282 -0.247,-0.247 c -0.051,-0.052 -0.124,-0.102 -0.182,-0.144 -0.238,-0.172 -0.481,-0.34 -0.723,-0.507 -0.362,-0.249 -1.01,-0.495 -1.421,-0.663 -0.755,-0.307 -1.52,-0.597 -2.283,-0.883 -1.25,-0.466 -2.506,-0.921 -3.764,-1.364 l -0.652,-0.229 0,0.53"
           inkscape:connector-curvature="0" /><path
           id="path36"
           style="fill:#485683;fill-opacity:1;fill-rule:evenodd;stroke:none"
           d="M 100.869,97.746 99.061,86.265 c 0,0 0.206,0.048 0.973,-0.307 0.768,-0.356 0.768,-0.553 0.768,-0.553 0,0 6.565,2.308 7.352,2.851 0.787,0.544 0.837,0.593 0.837,0.593 l -3.327,6.808 -4.795,2.089"
           inkscape:connector-curvature="0" /><path
           id="path38"
           style="fill:#393536;fill-opacity:1;fill-rule:evenodd;stroke:none"
           d="m 124.248,83.855 c 0.092,-0.388 0.189,-0.775 0.292,-1.16 0.327,-1.221 0.697,-2.435 1.079,-3.641 0.479,-1.517 0.983,-3.027 1.499,-4.533 0.17,-0.496 0.342,-0.992 0.515,-1.488 0.049,-0.138 0.097,-0.277 0.146,-0.416 0.013,-0.036 0.026,-0.073 0.039,-0.109 0.003,-0.01 0.007,-0.019 0.016,-0.046 0.037,-0.11 0.034,-0.232 -0.012,-0.344 -0.098,-0.236 -0.447,-0.348 -0.662,-0.44 -0.361,-0.155 -0.725,-0.3 -1.092,-0.438 -1.097,-0.412 -2.242,-0.766 -3.393,-0.992 -0.138,-0.027 -0.276,-0.052 -0.415,-0.076 -1.819,-0.303 -3.675,-0.534 -5.504,-0.776 -2.063,-0.274 -4.128,-0.54 -6.193,-0.799 l -0.203,-0.026 -13.032,10.28 0.529,5.292 0.29,0.105 c 2.312,0.835 4.619,1.702 6.906,2.599 1.076,0.421 2.15,0.851 3.215,1.3 0.818,0.346 1.653,0.704 2.443,1.109 1.311,0.672 2.669,1.718 3.822,2.635 1.643,1.306 3.279,2.722 4.81,4.162 l 0.021,0.02 6.876,5.045 3.413,-12.584 -5.405,-4.679"
           inkscape:connector-curvature="0" /><path
           id="path40"
           style="fill:#e2e2dd;fill-opacity:1;fill-rule:evenodd;stroke:none"
           d="m 130.938,88.859 c 3.739,0 6.771,-3.032 6.771,-6.771 0,-3.739 -3.032,-6.771 -6.771,-6.771 -3.739,0 -6.771,3.032 -6.771,6.771 0,3.739 3.032,6.771 6.771,6.771"
           inkscape:connector-curvature="0" /><path
           id="path42"
           style="fill:#b0aead;fill-opacity:1;fill-rule:evenodd;stroke:none"
           d="m 134.769,76.505 c -1.09,-0.749 -2.409,-1.188 -3.831,-1.188 -3.739,0 -6.771,3.032 -6.771,6.771 0,1.704 0.63,3.261 1.669,4.451 0.083,-3.117 0.506,-6.831 1.981,-7.916 1.536,-1.129 4.611,-1.774 6.952,-2.118"
           inkscape:connector-curvature="0" /><path
           id="path44"
           style="fill:#485683;fill-opacity:1;fill-rule:evenodd;stroke:none"
           d="m 119.678,95.696 c 0,0 -5.598,-5.264 -8.743,-6.876 -3.146,-1.612 -12.621,-5.032 -12.621,-5.032 l -0.472,-4.719 12.66,-9.986 c 0,0 9.083,1.14 11.678,1.572 2.595,0.433 5.19,1.652 5.19,1.652 0,0 -2.241,6.291 -3.303,10.262 -1.061,3.971 -1.415,7.785 -1.415,7.785 l 0.707,-0.07 1.062,-5.631 4.679,4.049 -3.146,11.599 -6.276,-4.605"
           inkscape:connector-curvature="0" /><path
           id="path46"
           style="fill:#393536;fill-opacity:1;fill-rule:evenodd;stroke:none"
           d="m 98.583,78.028 9.009,-7.278 -0.995,-0.219 c -1.55,-0.341 -3.173,-0.62 -4.747,-0.814 -1.21,-0.15 -2.908,-0.328 -4.103,-0.092 -1.17,0.23 -2.121,0.914 -2.828,1.857 -0.304,0.406 -0.637,0.966 -0.804,1.452 l -0.057,0.168 1.319,3.467 3.206,1.459"
           inkscape:connector-curvature="0" /><path
           id="path48"
           style="fill:#485683;fill-opacity:1;fill-rule:evenodd;stroke:none"
           d="m 98.51,77.457 7.982,-6.448 c 0,0 -6.252,-1.376 -8.65,-0.904 -2.399,0.472 -3.264,2.988 -3.264,2.988 l 1.185,3.114 2.747,1.25"
           inkscape:connector-curvature="0" /><path
           id="path50"
           style="fill:#393536;fill-opacity:1;fill-rule:evenodd;stroke:none"
           d="m 108.226,63.019 0.412,-0.689 -13.902,0.131 -0.032,0.45 c -0.092,1.276 0.004,3.116 0.482,4.309 0.336,0.841 0.684,1.689 1.059,2.514 l 0.117,0.35 0.392,-0.043 c 1.29,-0.139 2.686,-0.195 3.979,-0.157 0.759,0.023 1.579,0.08 2.318,0.254 1.326,0.313 2.652,0.624 3.979,0.929 l 0.22,0.051 2.062,-1.526 -0.145,-0.353 c -0.457,-1.116 -1.241,-3.44 -1.126,-4.627 0.041,-0.432 0.084,-0.867 0.141,-1.298 0.012,-0.09 0.024,-0.201 0.044,-0.295"
           inkscape:connector-curvature="0" /><path
           id="path52"
           style="fill:#485683;fill-opacity:1;fill-rule:evenodd;stroke:none"
           d="m 96.701,69.554 c 0,0 4.12,-0.445 6.463,0.108 2.342,0.553 3.976,0.928 3.976,0.928 l 1.574,-1.165 c 0,0 -1.318,-3.22 -1.161,-4.859 0.158,-1.64 0.217,-1.739 0.217,-1.739 l -12.578,0.119 c 0,0 -0.181,2.519 0.448,4.092 0.629,1.573 1.061,2.516 1.061,2.516"
           inkscape:connector-curvature="0" /><path
           id="path54"
           style="fill:#393536;fill-opacity:1;fill-rule:evenodd;stroke:none"
           d="m 110.438,68.766 c 0.675,-0.012 1.35,-0.024 2.026,-0.037 0.316,-0.006 0.687,0.05 1,0.096 0.546,0.08 1.09,0.182 1.631,0.289 1.417,0.28 2.83,0.602 4.237,0.934 2.395,0.564 4.79,1.161 7.17,1.786 l 0.297,0.078 0.2,-0.234 c 0.53,-0.62 1.045,-1.272 1.562,-1.904 1.188,-1.454 2.084,-4.797 2.444,-6.656 l 0.111,-0.578 -22.301,-0.159 c -0.581,-0.005 -0.494,0.703 -0.507,1.03 -0.022,0.555 -0.059,1.109 -0.102,1.662 -0.092,1.161 0.417,2.781 0.91,3.825 l 0.222,0.47 1.1,-0.602"
           inkscape:connector-curvature="0" /><path
           id="path56"
           style="fill:#485683;fill-opacity:1;fill-rule:evenodd;stroke:none"
           d="m 109.559,68.69 c 0,0 -0.983,-2.085 -0.865,-3.579 0.118,-1.494 0.118,-2.241 0.118,-2.241 l 21.712,0.155 c 0,0 -0.905,4.681 -2.342,6.439 -1.438,1.758 -1.555,1.897 -1.555,1.897 0,0 -12.027,-3.161 -14.173,-3.121 -2.145,0.039 -2.145,0.039 -2.145,0.039 l -0.75,0.411"
           inkscape:connector-curvature="0" /><path
           id="path58"
           style="fill:#8d736b;fill-opacity:1;fill-rule:evenodd;stroke:none"
           d="m 137.396,78.008 15.334,-1.337 c 0,0 -3.184,-3.224 -5.858,-3.539 -2.674,-0.314 -15.885,1.023 -15.885,1.023 0,0 4.168,0.983 6.409,3.853"
           inkscape:connector-curvature="0" /><path
           id="path60"
           style="fill:#393536;fill-opacity:1;fill-rule:evenodd;stroke:none"
           d="m 98.156,84.653 20.125,-0.552 c 0,0 -0.473,1.521 0.511,1.659 0.985,0.139 1.497,-0.395 1.497,-0.395 0,0 0.787,0.593 1.554,0.08 0.768,-0.514 1.162,-1.206 1.162,-1.206 l 0.738,0.02 1.435,-5.434 -1.524,0.279 1.142,-7.98 -3.976,-0.573 -0.158,1.699 -1.909,0.039 -0.315,7.131 -20.871,0.475 0.589,4.758"
           inkscape:connector-curvature="0" /><path
           id="path62"
           style="fill:#dfb722;fill-opacity:1;fill-rule:evenodd;stroke:none"
           d="m 99.43,85.021 c -1.285,0.833 -3.495,-0.294 -4.936,-2.517 -1.441,-2.222 -1.569,-4.7 -0.284,-5.532 1.284,-0.833 3.494,0.293 4.935,2.516 1.441,2.222 1.569,4.7 0.285,5.533"
           inkscape:connector-curvature="0" /><path
           id="path64"
           style="fill:#9e4e38;fill-opacity:1;fill-rule:evenodd;stroke:none"
           d="m 95.05,79.738 c 0,0 1.658,1.42 1.756,2.072 0.098,0.652 -0.295,1.205 -0.295,1.205 l -22.339,3.171 c 0,0 -3.303,-1.219 -3.067,-2.713 0.236,-1.494 0.708,-1.455 0.708,-1.455 l 23.237,-2.28"
           inkscape:connector-curvature="0" /><path
           id="path66"
           style="fill:#e9e9e9;fill-opacity:1;fill-rule:evenodd;stroke:none"
           d="m 75.331,83.074 2.303,0.691 1.024,-1.185 2.224,0.909 1.319,-1.245 2.027,0.672 1.064,-1.02 2.362,0.671 1.105,-1.06 1.256,0.441 1.181,-0.909 -1.634,-0.394 -0.905,0.493 -1.968,-0.276 -1.409,0.822 -2.134,-0.408 -0.985,0.652 -1.987,-0.296 -1.424,0.768 -2.021,-0.551 -1.398,1.225"
           inkscape:connector-curvature="0" /><path
           id="path68"
           style="fill:#393536;fill-opacity:1;fill-rule:evenodd;stroke:none"
           d="m 101.451,142.114 c 2.933,1.122 6.051,1.697 9.213,1.697 2.962,0 5.887,-0.505 8.657,-1.492 0.736,1.654 1.98,3.28 3.434,4.276 l 6.464,4.433 0.117,-2.137 c 0.435,0.187 0.872,0.334 1.296,0.411 l 5.977,1.086 -0.203,-1.485 c 0.826,0.067 1.66,0.12 2.484,0.068 l 8.721,-0.545 -2.541,-3.022 c 0.217,-0.074 0.433,-0.153 0.646,-0.239 5.197,-2.078 8.014,-7.463 8.815,-12.749 0.445,-2.939 0.504,-6.21 0.227,-9.169 l -0.586,-6.274 -3.555,1.689 c -0.389,-0.896 -0.845,-1.831 -1.436,-2.553 l -5.248,-6.416 -0.788,2.626 c -0.152,-0.087 -0.302,-0.179 -0.439,-0.274 l -5.076,-4.231 -1.167,4.04 c -0.275,-0.101 -0.552,-0.192 -0.834,-0.274 -2.901,-11.294 -13.156,-19.333 -24.965,-19.333 -11.954,0 -22.266,8.225 -25.047,19.649 -8.771,0.631 -15.694,7.95 -15.694,16.881 0,4.275 1.616,8.346 4.449,11.438 -1.231,2.478 0.115,5.314 2.682,6.322 1.427,0.561 3.199,0.672 4.727,0.747 1.057,0.052 2.167,-0.017 3.281,-0.166 l -1.083,3.147 7.237,-1.143 c 2.783,-0.439 5.87,-2.115 7.943,-4.005 0.947,-0.864 1.704,-1.886 2.292,-3.003"
           inkscape:connector-curvature="0" /><path
           id="path70"
           style="fill:#393536;fill-opacity:1;fill-rule:evenodd;stroke:none"
           d="m 99.972,138.497 c 3.289,1.722 6.944,2.622 10.692,2.622 3.694,0 7.297,-0.875 10.545,-2.546 0.05,0.803 0.162,1.573 0.382,2.18 0.478,1.323 1.506,2.812 2.687,3.622 l 2.514,1.724 0.11,-2.016 c 0.451,0.477 0.918,0.884 1.386,1.168 0.658,0.401 2.041,1.259 2.825,1.402 l 2.325,0.422 -0.241,-1.759 c 0.961,0.443 1.935,0.779 2.759,0.848 0.848,0.07 1.912,0.173 2.766,0.12 l 3.392,-0.212 -2.167,-2.576 c 1.637,-0.007 3.292,-0.24 4.769,-0.831 4.268,-1.707 6.5,-6.346 7.152,-10.652 0.403,-2.656 0.461,-5.827 0.209,-8.516 l -0.228,-2.439 -2.92,1.387 c -0.092,-0.747 -0.259,-1.47 -0.516,-2.084 -0.302,-0.723 -0.81,-1.929 -1.316,-2.547 l -2.041,-2.495 -0.569,1.897 c -0.731,-0.994 -1.513,-1.888 -2.181,-2.276 -0.393,-0.228 -0.879,-0.494 -1.249,-0.764 l -1.984,-1.654 -0.932,3.225 c -1.228,-0.848 -2.607,-1.488 -4.074,-1.781 -0.232,-0.046 -0.465,-0.092 -0.698,-0.137 -1.995,-10.872 -11.525,-18.889 -22.705,-18.889 -11.495,0 -21.157,8.45 -22.832,19.638 -0.328,-0.022 -0.656,-0.034 -0.985,-0.034 -7.858,0 -14.232,6.374 -14.232,14.233 0,4.604 2.218,8.831 5.803,11.469 l -1.231,0.516 -0.288,0.447 c -0.735,1.144 -0.003,2.373 1.139,2.822 1.061,0.416 2.749,0.508 3.875,0.563 2.12,0.104 4.814,-0.418 7.252,-1.127 l -1.183,3.44 2.814,-0.444 c 2.265,-0.358 4.887,-1.821 6.549,-3.336 1.333,-1.216 2.168,-2.877 2.627,-4.63"
           inkscape:connector-curvature="0" /><path
           id="path72"
           style="fill:#e2e2dd;fill-opacity:1;fill-rule:evenodd;stroke:none"
           d="m 110.664,139.405 c 4.572,0 8.808,-1.437 12.284,-3.883 -0.09,1.657 -0.103,3.662 0.254,4.648 0.669,1.848 2.045,2.792 2.045,2.792 l 0.218,-4.009 c 0,0 1.905,3.734 3.714,4.834 1.808,1.101 2.241,1.18 2.241,1.18 l -0.394,-2.874 c 0,0 3.185,2.206 5.072,2.363 1.888,0.157 2.517,0.118 2.517,0.118 l -2.247,-2.672 c 0.409,-0.07 0.811,-0.16 1.206,-0.268 1.673,0.21 4.304,0.321 6.506,-0.56 3.539,-1.415 5.505,-5.425 6.095,-9.318 0.589,-3.892 0.196,-8.1 0.196,-8.1 l -3.145,1.495 c 0,0 0.314,-2.438 -0.394,-4.129 -0.707,-1.691 -1.061,-2.123 -1.061,-2.123 l -0.708,2.359 c 0,0 -2.398,-4.128 -3.617,-4.836 -1.219,-0.708 -1.455,-0.904 -1.455,-0.904 l -0.742,2.569 c -0.513,-0.224 -1.042,-0.415 -1.588,-0.569 -0.935,-0.722 -2.296,-1.546 -3.929,-1.871 -0.696,-0.139 -1.32,-0.256 -1.869,-0.353 -1.343,-10.512 -10.322,-18.641 -21.199,-18.641 -11.292,0 -20.54,8.761 -21.322,19.854 -0.806,-0.163 -1.64,-0.249 -2.495,-0.249 -6.912,0 -12.519,5.606 -12.519,12.519 0,5.324 3.327,9.873 8.015,11.682 l -4.003,1.677 c 0,0 -0.354,0.551 3.656,0.747 4.011,0.197 9.929,-2.17 9.929,-2.17 l -1.396,4.057 c 0,0 2.988,-0.471 5.661,-2.909 1.965,-1.791 2.401,-4.707 2.494,-6.128 3.418,2.317 7.541,3.672 11.98,3.672"
           inkscape:connector-curvature="0" /><path
           id="path74"
           style="fill:#b0aead;fill-opacity:1;fill-rule:evenodd;stroke:none"
           d="m 107.886,96.834 c -9.997,1.298 -17.827,9.505 -18.544,19.673 -0.806,-0.163 -1.64,-0.249 -2.495,-0.249 -6.912,0 -12.519,5.606 -12.519,12.519 0,1.973 0.458,3.84 1.272,5.501 -0.333,-4.332 0.242,-8.608 2.744,-11.643 7.401,-8.975 12.932,-4.64 12.932,-4.64 0,0 0.268,-12.854 16.61,-21.161"
           inkscape:connector-curvature="0" /><path
           id="path76"
           style="fill:#d7a0a1;fill-opacity:1;fill-rule:evenodd;stroke:none"
           d="m 85.272,136.099 c 3.066,0 5.551,-2.221 5.551,-4.96 0,-2.739 -2.485,-4.961 -5.551,-4.961 -3.065,0 -5.55,2.222 -5.55,4.961 0,2.739 2.485,4.96 5.55,4.96"
           inkscape:connector-curvature="0" /><path
           id="path78"
           style="fill:#d7a0a1;fill-opacity:1;fill-rule:evenodd;stroke:none"
           d="m 136.37,135.862 c 3.065,0 5.551,-2.221 5.551,-4.96 0,-2.739 -2.486,-4.96 -5.551,-4.96 -3.065,0 -5.55,2.221 -5.55,4.96 0,2.739 2.485,4.96 5.55,4.96"
           inkscape:connector-curvature="0" /><path
           id="path80"
           style="fill:#4b4747;fill-opacity:1;fill-rule:evenodd;stroke:none"
           d="m 96.446,121.691 c 1.292,0 2.34,-0.951 2.34,-2.124 0,-1.172 -1.048,-2.123 -2.34,-2.123 -1.292,0 -2.339,0.951 -2.339,2.123 0,1.173 1.047,2.124 2.339,2.124"
           inkscape:connector-curvature="0" /><path
           id="path82"
           style="fill:#4b4747;fill-opacity:1;fill-rule:evenodd;stroke:none"
           d="m 125.269,121.767 c 1.292,0 2.339,-0.951 2.339,-2.124 0,-1.172 -1.047,-2.123 -2.339,-2.123 -1.292,0 -2.34,0.951 -2.34,2.123 0,1.173 1.048,2.124 2.34,2.124"
           inkscape:connector-curvature="0" /><path
           id="path84"
           style="fill:#3b3837;fill-opacity:1;fill-rule:evenodd;stroke:none"
           d="m 110.9,125.391 c 3.63,0 6.574,-4.495 6.574,-10.038 0,-5.544 -2.944,-10.039 -6.574,-10.039 -3.63,0 -6.574,4.495 -6.574,10.039 0,5.543 2.944,10.038 6.574,10.038"
           inkscape:connector-curvature="0" /><path
           id="path86"
           style="fill:#b6b5b2;fill-opacity:1;fill-rule:evenodd;stroke:none"
           d="m 111.333,121.612 c 1.131,0 2.047,-1.358 2.047,-3.031 0,-1.674 -0.916,-3.032 -2.047,-3.032 -1.13,0 -2.047,1.358 -2.047,3.032 0,1.673 0.917,3.031 2.047,3.031"
           inkscape:connector-curvature="0" /><path
           id="path88"
           style="fill:#ffffff;fill-opacity:1;fill-rule:evenodd;stroke:none"
           d="m 96.826,121.256 c 0.467,0 0.846,-0.406 0.846,-0.908 0,-0.502 -0.379,-0.909 -0.846,-0.909 -0.468,0 -0.847,0.407 -0.847,0.909 0,0.502 0.379,0.908 0.847,0.908"
           inkscape:connector-curvature="0" /><path
           id="path90"
           style="fill:#ffffff;fill-opacity:1;fill-rule:evenodd;stroke:none"
           d="m 124.963,121.155 c 0.392,0 0.709,-0.36 0.709,-0.805 0,-0.444 -0.317,-0.805 -0.709,-0.805 -0.391,0 -0.708,0.361 -0.708,0.805 0,0.445 0.317,0.805 0.708,0.805"
           inkscape:connector-curvature="0" /><path
           id="path92"
           style="fill:#393536;fill-opacity:1;fill-rule:evenodd;stroke:none"
           d="m 110.879,50.271 -0.005,-0.078 -6.88,0 0.039,2.565 -1.75,-0.019 0.116,-2.325 -7.44,-0.17 0.165,2.468 -2.504,0.038 0.143,7.32 14.926,0.167 0.002,0.062 23.869,0.086 -0.539,-7.537 -4.898,-0.119 -0.038,-2.125 -7.036,-0.415 0.021,2.587 -1.835,-0.005 0.02,-2.425 -6.376,-0.075"
           inkscape:connector-curvature="0" /><path
           id="path94"
           style="fill:#fabb25;fill-opacity:1;fill-rule:evenodd;stroke:none"
           d="m 95.404,57.407 14.076,0.157 0.118,-2.045 -1.101,-0.039 -0.157,-2.595 -1.612,0 0.039,2.595 -7.313,-0.078 0.118,-2.359 -1.73,-0.04 0.157,2.359 -2.634,0.04 0.039,2.005"
           inkscape:connector-curvature="0" /><path
           id="path96"
           style="fill:#fabb25;fill-opacity:1;fill-rule:evenodd;stroke:none"
           d="m 110.309,57.616 -0.059,-2.14 2.657,0 -0.039,-2.489 1.673,0.02 -0.02,2.449 7.263,0.02 -0.019,-2.429 1.673,0.098 0.039,2.213 5.033,0.122 0.157,2.202 -18.358,-0.066"
           inkscape:connector-curvature="0" /><path
           id="path98"
           style="fill:#e9e9e9;fill-opacity:1;fill-rule:evenodd;stroke:none"
           d="m 200.42,20.006 c 0.452,1.235 0.713,2.32 0.713,3.695 l 0,4.09 2.845,-0.949 c 0.661,1.221 1.427,2.432 1.967,3.263 1.35,2.079 3.855,6.044 6.636,6.044 0.655,0 1.241,-0.056 1.86,-0.29 0.336,-0.127 0.467,-0.205 0.827,-0.291 l 3.551,-0.85 -1.506,-3.139 c -0.186,-1.187 0.448,-4.573 1.226,-7.45 l 1.705,-1.798 2.087,-2.318 c 0.073,-1.31 0.027,-2.638 -0.304,-3.913 -0.107,-0.412 -0.276,-0.803 -0.407,-1.187 0.336,-0.798 0.841,-1.719 1.187,-2.433 0.609,-1.261 1.722,-3.398 1.722,-4.779 0,-2.505 -2.114,-3.948 -4.448,-3.948 l -0.5,0 c -0.593,0 -0.529,-0.006 -1.084,0.142 -2.304,0.619 -3.399,2.884 -4.146,4.936 -0.001,0.001 -0.001,0.002 -0.002,0.003 -0.367,-0.054 -0.78,-0.082 -1.268,-0.082 -0.736,0 -1.416,0.07 -2.051,0.234 l 0,-2.285 c 0,-3.046 -1.541,-5.949 -4.949,-5.949 l -0.5,0 c -2.258,0 -3.984,0.872 -5.202,2.243 C 198.993,1.81 197.185,1.1 195.19,1.1 l -4.213,0 -0.225,2.703 c -0.509,6.117 -0.838,13.807 -2.746,20.112 -0.889,-1.157 -2.144,-2.315 -4.316,-2.315 -0.883,0 -1.732,0.223 -2.498,0.662 -0.913,0.524 -1.563,1.255 -2.119,2.088 -0.723,-2.79 -1.264,-7.134 -1.424,-8.546 -0.454,-4.008 -0.687,-7.989 -1.021,-12.001 l -0.225,-2.703 -4.213,0 c -2.227,0 -4.357,1.099 -5.85,2.76 -0.583,-0.223 -1.227,-0.339 -1.888,-0.339 l -0.5,0 c -0.593,0 -0.529,-0.006 -1.084,0.143 -2.305,0.618 -3.399,2.884 -4.147,4.936 0,0.001 -0.001,0.002 -0.001,0.003 -0.368,-0.054 -0.78,-0.082 -1.268,-0.082 -0.737,0 -1.417,0.069 -2.052,0.234 l 0,-2.286 c 0,-3.046 -1.54,-5.948 -4.948,-5.948 l -0.5,0 c -3.023,0 -5.092,1.562 -6.267,3.793 -2.789,-2.399 -7.783,-3.2 -10.896,-3.2 l -5.5,0 c -2.173,0 -4.21,0.272 -6.079,1.458 l -0.561,0.356 C 118.942,1.443 116.767,0.52 114.383,0.52 l -1.5,0 c -5.855,0 -10.957,4.919 -11.438,10.704 l -0.567,6.815 5.569,-4.446 c -0.16,1.515 -0.365,3.009 -0.577,4.389 -0.354,2.32 -0.804,4.711 -1.471,6.963 -0.17,0.572 -0.639,2.027 -1.096,2.866 -1.369,-0.741 -3.937,-3.228 -4.779,-3.792 L 96.362,22.57 c 2.104,-3.802 3.175,-7.46 3.175,-11.875 0,-5.549 -5.652,-9.947 -10.948,-9.947 l -1,0 c -5.221,0 -10.017,5.144 -10.438,10.203 l -0.444,5.338 C 76.469,15.723 76.234,15.185 76.011,14.686 74.737,11.843 73.221,8.913 71.456,6.343 70.074,4.331 67.945,1.588 65.254,1.588 l -5.448,0 0,17.287 -0.102,0.933 C 58.681,14.074 58.426,7.105 58.192,4.292 l -0.225,-2.704 -4.213,0 c -2.281,0 -4.228,1.049 -5.558,2.653 C 47.494,3.874 46.669,3.68 45.816,3.68 l -0.5,0 c -0.594,0 -0.53,-0.006 -1.085,0.143 C 41.927,4.441 40.833,6.707 40.085,8.759 40.084,8.76 40.084,8.761 40.084,8.762 39.716,8.708 39.304,8.68 38.815,8.68 c -0.736,0 -1.416,0.069 -2.051,0.234 l 0,-2.286 c 0,-3.045 -1.54,-5.948 -4.948,-5.948 l -0.5,0 c -3.445,0 -5.65,2.028 -6.708,4.762 C 23.656,4.039 22.394,2.893 20.723,2.893 l -4.515,0 0.067,3.014 c 0.054,2.411 0.697,3.731 1.928,5.694 0.35,0.557 0.529,0.9 0.565,1.501 -0.402,0.653 -1.753,1.646 -2.86,2.404 -0.786,-0.282 -1.551,-0.464 -2.41,-0.552 L 12.627,0.87 8.219,0.893 c -4.96,0 -7.944,4.289 -7.944,8.948 l 0,1 c 0,8.118 7.096,18.067 11.498,24.641 l 1.15,1.717 7.407,-1.83 -0.782,-2.907 c -0.633,-2.351 -2.15,-4.384 -3.336,-6.48 -0.3,-0.53 -0.573,-1.053 -0.814,-1.577 4.069,1.849 6.862,3.876 7.387,10.181 l 0.415,4.992 4.163,-2.787 c 2.528,-1.693 4.246,-3.573 4.306,-6.774 0.003,0.005 0.007,0.011 0.011,0.016 1.349,2.079 3.854,6.043 6.635,6.043 0.655,0 1.241,-0.055 1.86,-0.289 0.336,-0.127 0.467,-0.206 0.827,-0.292 l 3.551,-0.85 -1.506,-3.138 c -0.186,-1.188 0.448,-4.573 1.226,-7.45 l 1.705,-1.304 2.087,-2.813 c 0.013,-0.228 0.022,-0.456 0.027,-0.685 0.972,2.675 2.205,5.25 3.345,7.117 0.519,0.851 0.991,1.732 1.473,2.604 2.171,3.926 4.502,7.343 9.175,8.431 l 1.985,0.463 1.133,-1.693 c 0.638,-0.952 1.183,-1.96 1.637,-3.011 0.312,-0.723 0.577,-1.458 0.803,-2.203 0.062,0.872 0.118,1.656 0.173,2.318 l 0.225,2.703 4.213,0 c 0.846,0 1.647,-0.144 2.387,-0.408 l 0,1.722 5.837,-1.964 -0.159,0.716 5.27,0.093 c 1.481,0 2.804,-0.561 3.693,-1.773 0.184,-0.251 0.305,-0.475 0.414,-0.699 l 8.243,0.856 c 2.129,1.819 4.923,2.889 7.944,2.889 l 0.5,0 c 1.959,0 3.794,-0.53 5.381,-1.452 l 1.138,-0.76 c 2.63,-2.001 4.35,-5.164 4.428,-8.67 l 0.138,-6.174 -0.42,0.325 c 1.175,-2.63 1.764,-5.126 2.046,-7.775 l 5.31,3.651 -0.042,-5.657 c -0.008,-0.962 -0.153,-1.911 -0.418,-2.82 1.552,0.181 3.382,0.654 4.672,1.04 0.906,0.27 3.428,1.127 4.541,1.896 -0.972,1.872 -5.33,6.071 -6.377,7.132 -2.927,2.965 -7.439,7.473 -7.439,11.909 0,4.391 6.442,5.948 9.948,5.948 l 2.674,0 17.693,-2.097 -6.767,-4.439 c -1.829,-1.201 -4.781,-1.741 -6.914,-2.292 -0.67,-0.174 -2.922,-0.781 -3.885,-1.391 0.6,-0.643 1.456,-1.403 1.872,-1.787 1.591,-1.464 3.21,-2.89 4.771,-4.386 1.331,-1.276 2.981,-2.906 4.346,-4.709 0.059,0.239 0.122,0.477 0.191,0.715 0.377,1.311 0.893,2.516 1.381,3.782 0.538,1.394 0.853,2.555 0.853,4.064 l 0.579,-2.01 2.266,5.152 c 0.66,1.221 1.427,2.432 1.967,3.263 1.35,2.079 3.855,6.043 6.636,6.043 0.654,0 1.241,-0.055 1.859,-0.289 0.337,-0.127 0.468,-0.206 0.827,-0.292 l 3.552,-0.85 -1.506,-3.138 c -0.186,-1.188 0.447,-4.573 1.225,-7.45 l 2.921,1.368 0.51,-9.223 c 0.453,1.112 1.275,6.179 1.732,7.139 1.768,3.713 5.522,10.501 8.978,12.815 l 1.64,1.098 1.641,-1.098 c 0.893,-0.598 1.634,-1.361 2.312,-2.189 0.225,-0.274 0.716,-0.954 1.172,-1.529 0.066,0.12 0.127,0.229 0.179,0.317 1.177,1.964 2.77,3.4 5.196,3.4 2.602,0 4.545,-3.023 5.769,-4.981 1.667,-2.669 3.127,-5.604 4.395,-8.483 0.332,-0.755 0.698,-1.611 1.066,-2.526 z m -106.485,6.588 0.01,0.118 c 0.028,0.331 0.068,0.656 0.122,0.976 l -0.604,-0.241 c 0.15,-0.284 0.309,-0.569 0.472,-0.853 z M 79.346,24.381 c -0.484,-2.413 -1.395,-5.03 -2.31,-7.293 l 4.796,-3.514 c 1.165,-0.855 1.917,-1.995 2.925,-2.984 0.415,-0.407 0.841,-0.762 1.38,-0.893 0.649,1.014 1.004,3.557 1.004,4.498 l 0,2 c 0,2.823 -1.24,5.612 -2.189,8.364 l -3.577,-0.298 c -0.693,-0.075 -1.376,-0.038 -2.029,0.12 z M 25.639,18.605 c 0.125,0.317 0.251,0.636 0.376,0.959 0.179,0.465 0.333,0.903 0.46,1.337 -0.591,-0.506 -1.239,-1.007 -1.92,-1.467 0.356,-0.245 0.727,-0.517 1.084,-0.829"
           inkscape:connector-curvature="0" /><path
           id="path100"
           style="fill:#231f20;fill-opacity:1;fill-rule:evenodd;stroke:none"
           d="m 49.254,11.036 0,-1.5 c 0,-2.527 1.803,-5 4.5,-5 l 1.5,0 c 0.694,8.341 0.886,22.576 6.236,26.032 l 1.264,-11.532 0,-14.5 2.5,0 c 3.373,0 11.5,16.661 11.5,23 l 0,0.5 c 0,2.528 -1.804,5 -4.5,5 l -1.5,0 c -0.67,-8.043 -1.057,-19.463 -5,-24 0,10.458 1.335,19.026 -3,25.5 C 57.92,33.41 56.284,28.656 53.953,24.837 52.2,21.963 49.254,15.299 49.254,11.036"
           inkscape:connector-curvature="0" /><path
           id="path102"
           style="fill:#231f20;fill-opacity:1;fill-rule:evenodd;stroke:none"
           d="m 167.19,10.047 0,-1 c 0,-2.513 2.486,-4.999 5,-4.999 l 1.5,0 c 0.419,5.041 1.414,25 5,25 2.217,0 2.363,-4.5 5,-4.5 2.454,0 2.535,3.708 5.5,4.5 3.287,-6.85 3.728,-15.718 4.5,-25 l 1.5,0 c 2.809,0 5,2.191 5,4.999 l 0,0.5 c 0,6.171 -8.535,23.5 -11,23.5 -2.857,0 -3.03,-4.5 -5,-4.5 -2.114,0 -3.235,3.484 -5.5,5.001 -3.864,-2.588 -11.5,-16.511 -11.5,-23.501"
           inkscape:connector-curvature="0" /><path
           id="path104"
           style="fill:#231f20;fill-opacity:1;fill-rule:evenodd;stroke:none"
           d="m 31.316,23.128 -1.501,0.5 c 0,-5.306 -2.999,-6.888 -2.999,-13.5 l 0,-0.5 c 0,-3.142 1.328,-6 4.5,-6 l 0.5,0 c 1.537,0 2,1.465 2,3 l 0,7.5 c 2.578,-0.688 1.815,-2.5 4.999,-2.5 1.526,0 2.018,0.48 3.001,1 0.803,-1.675 1.593,-6 3.5,-6 l 0.5,0 c 0.818,0 1.499,0.3 1.499,1 0,1.003 -2.999,6.379 -2.999,7 0,1.291 1,1.645 0.806,5.15 l -1.306,-2.15 c -1.647,1.207 -4.576,12.758 -3.5,15 -1.341,0.321 -0.943,0.5 -2.001,0.5 -1.52,0 -6.574,-8.173 -6.999,-10 z m 3.5,-4 -0.025,-1.559 5.847,-2.378 0.244,0.454 -3.067,12.483 c -1.759,-1.289 -2.999,-5.906 -2.999,-9"
           inkscape:connector-curvature="0" /><path
           id="path106"
           style="fill:#231f20;fill-opacity:1;fill-rule:evenodd;stroke:none"
           d="m 11.223,19.341 c 0.15,6.746 4.486,10.205 5.478,13.888 l -2.478,0.612 c -3.266,-4.876 -11,-15.553 -11,-23 l 0,-1 c 0,-3.227 1.872,-6 5,-6 l 1.633,-0.008 0.867,14.009 1.5,0 c 1.812,0 2.79,0.419 3.999,0.999 1.495,-1 5.501,-3.433 5.501,-5.5 0,-3.46 -2.415,-3.68 -2.5,-7.5 l 1.5,0 c 1.531,0 3.999,6.32 3.999,8 l 0,0.5 c 0,2.812 -4.191,2.972 -4.999,6 3.19,0.744 9,5.65 9,9.5 0,2.411 -1.554,3.532 -3,4.501 C 24.84,23.735 18.355,22.764 11.223,19.341"
           inkscape:connector-curvature="0" /><path
           id="path108"
           style="fill:#231f20;fill-opacity:1;fill-rule:evenodd;stroke:none"
           d="m 96.883,26.468 c 1.591,1.066 4.455,4.5 7,4.5 3.775,0 6,-17.656 5.811,-23.74 l -5.311,4.24 c 0.334,-4.02 3.954,-8 8.5,-8 l 1.5,0 c 3.655,0 7,3.392 7.031,7.459 l -5.031,-3.459 c 0,5.828 -0.561,9.155 -2.497,13.004 -1.055,2.097 -5.161,8.713 -5.503,9.996 l 0.301,0.402 5.699,-4.402 c -0.096,4.284 -3.573,8 -8,8 l -0.5,0 c -4.831,0 -8.624,-3.478 -9,-8"
           inkscape:connector-curvature="0" /><path
           id="path110"
           style="fill:#231f20;fill-opacity:1;fill-rule:evenodd;stroke:none"
           d="m 122.289,30.061 c 0,-6.055 14,-14.788 14,-19.499 0,-2.826 -9.968,-5.501 -13.5,-5.501 1.174,-0.744 2.532,-0.999 4.5,-0.999 l 5.5,0 c 3.656,0 10,1.351 10,4.5 0,5.641 -14,14.775 -14,16.999 0,4.389 9.578,4.47 12.483,6.376 l -9.483,1.124 -2.5,0 c -2.456,0 -7,-1.14 -7,-3"
           inkscape:connector-curvature="0" /><path
           id="path112"
           style="fill:#231f20;fill-opacity:1;fill-rule:evenodd;stroke:none"
           d="m 81.089,27.195 6,0.5 c 0.789,-3.386 3,-7.226 3,-11.5 l 0,-2 c 0,-2.702 -1.118,-7.499 -3.5,-7.499 -3.398,0 -4.824,3.271 -6.5,4.5 0.293,-3.522 3.824,-7.5 7.5,-7.5 l 1,0 c 3.909,0 8,3.317 8,6.999 0,9.347 -5.553,13.08 -6.966,18.393 l 5.457,2.178 -5.491,-0.57 -0.5,0 c -2.496,0 -1.21,2.499 -3.5,2.499 l -1.609,-0.028 0.51,-2.294 -6.901,2.322 c 0,-2.947 0.549,-6.342 3.5,-6"
           inkscape:connector-curvature="0" /><path
           id="path114"
           style="fill:#231f20;fill-opacity:1;fill-rule:evenodd;stroke:none"
           d="m 149.952,22.969 -1.5,0.5 c 0,-5.306 -3,-6.888 -3,-13.5 l 0,-0.5 c 0,-3.142 1.329,-6 4.5,-6 l 0.5,0 c 1.537,0 2,1.465 2,3 l 0,7.5 c 2.579,-0.688 1.815,-2.5 5,-2.5 1.526,0 2.018,0.48 3,1 0.804,-1.675 1.593,-6 3.5,-6 l 0.5,0 c 0.818,0 1.5,0.3 1.5,1 0,1.003 -3,6.379 -3,7 0,1.291 1,1.645 0.806,5.15 l -1.306,-2.15 c -1.647,1.207 -4.576,12.758 -3.5,15 -1.341,0.321 -0.943,0.5 -2,0.5 -1.521,0 -6.574,-8.173 -7,-10 z m 3.5,-4 -0.024,-1.559 5.846,-2.378 0.244,0.454 -3.066,12.483 c -1.76,-1.289 -3,-5.906 -3,-9"
           inkscape:connector-curvature="0" /><path
           id="path116"
           style="fill:#231f20;fill-opacity:1;fill-rule:evenodd;stroke:none"
           d="m 205.581,23.201 -1.5,0.5 c 0,-5.307 -3,-6.889 -3,-13.5 l 0,-0.5 c 0,-3.143 1.329,-6.001 4.5,-6.001 l 0.5,0 c 1.537,0 2.001,1.465 2.001,3.001 l 0,7.5 c 2.578,-0.689 1.815,-2.501 4.999,-2.501 1.526,0 2.018,0.481 3,1 0.804,-1.674 1.594,-5.999 3.5,-5.999 l 0.5,0 c 0.819,0 1.5,0.299 1.5,1 0,1.003 -3,6.379 -3,7 0,1.29 1,1.644 0.807,5.149 l -1.306,-2.149 c -1.648,1.206 -4.577,12.757 -3.501,15 -1.34,0.32 -0.942,0.5 -2,0.5 -1.52,0 -6.574,-8.174 -7,-10 z m 3.501,-4 -0.025,-1.56 5.846,-2.378 0.245,0.455 -3.067,12.483 c -1.76,-1.29 -2.999,-5.907 -2.999,-9"
           inkscape:connector-curvature="0" /></g></g></g></svg>