<?xml version="1.0" encoding="UTF-8" standalone="no"?>
<svg
   xmlns:dc="http://purl.org/dc/elements/1.1/"
   xmlns:cc="http://creativecommons.org/ns#"
   xmlns:rdf="http://www.w3.org/1999/02/22-rdf-syntax-ns#"
   xmlns:svg="http://www.w3.org/2000/svg"
   xmlns="http://www.w3.org/2000/svg"
   viewBox="0 0 816 1056"
   height="1056"
   width="816"
   xml:space="preserve"
   version="1.1"
   id="svg2"><metadata
     id="metadata8"><rdf:RDF><cc:Work
         rdf:about=""><dc:format>image/svg+xml</dc:format><dc:type
           rdf:resource="http://purl.org/dc/dcmitype/StillImage" /></cc:Work></rdf:RDF></metadata><defs
     id="defs6"><clipPath
       id="clipPath18"
       clipPathUnits="userSpaceOnUse"><path
         id="path20"
         d="m 75,2875 4950,0 0,850 -4950,0 0,-850 z" /></clipPath></defs><g
     transform="matrix(1.3333333,0,0,-1.3333333,0,1056)"
     id="g10"><g
       transform="scale(0.12)"
       id="g12"><g
         id="g14"><g
           clip-path="url(#clipPath18)"
           id="g16"><path
             id="path22"
             style="fill:#e9e9e9;fill-opacity:1;fill-rule:evenodd;stroke:none"
             d="m 4484.45,3315.15 c 9.94,27.17 15.69,51.05 15.69,81.3 l 0,89.98 62.59,-20.88 c 14.54,26.86 31.39,53.51 43.28,71.79 29.7,45.74 84.81,132.98 146,132.98 14.41,0 27.3,-1.23 40.92,-6.38 7.39,-2.8 10.27,-4.51 18.19,-6.4 l 78.13,-18.71 -33.13,-69.06 c -4.1,-26.11 9.85,-100.61 26.97,-163.91 l 37.51,-39.56 45.92,-51 c 1.6,-28.82 0.59,-58.03 -6.69,-86.09 -2.36,-9.06 -6.08,-17.66 -8.95,-26.11 7.39,-17.55 18.5,-37.82 26.11,-53.53 13.4,-27.74 37.89,-74.76 37.89,-105.14 0,-55.11 -46.52,-86.86 -97.87,-86.86 l -11,0 c -13.05,0 -11.63,-0.13 -23.85,3.13 -50.69,13.61 -74.78,63.44 -91.21,108.59 -0.02,0.02 -0.02,0.05 -0.05,0.07 -8.07,-1.19 -17.16,-1.81 -27.89,-1.81 -16.2,0 -31.16,1.54 -45.13,5.15 l 0,-50.27 c 0,-67.02 -33.9,-130.88 -108.88,-130.88 l -11,0 c -49.68,0 -87.65,19.18 -114.45,49.34 -30.5,-26.07 -70.27,-41.69 -114.16,-41.69 l -92.69,0 -4.95,59.47 c -11.2,134.58 -18.44,303.77 -60.42,442.49 -19.56,-25.46 -47.17,-50.94 -94.95,-50.94 -19.43,0 -38.11,4.91 -54.97,14.57 -20.08,11.53 -34.38,27.61 -46.62,45.94 -15.9,-61.39 -27.81,-156.96 -31.33,-188.03 -9.98,-88.18 -15.11,-175.76 -22.46,-264.03 l -4.95,-59.47 -92.69,0 c -49,0 -95.86,24.18 -128.7,60.73 -12.83,-4.91 -27,-7.47 -41.54,-7.47 l -11,0 c -13.05,0 -11.64,-0.13 -23.85,3.15 -50.72,13.6 -74.79,63.45 -91.24,108.6 0,0.02 -0.02,0.04 -0.02,0.06 -8.1,-1.18 -17.16,-1.8 -27.9,-1.8 -16.22,0 -31.18,1.52 -45.15,5.15 l 0,-50.3 c 0,-67.01 -33.88,-130.86 -108.86,-130.86 l -11,0 c -66.51,0 -112.03,34.37 -137.88,83.45 -61.36,-52.78 -171.23,-70.4 -239.72,-70.4 l -121.01,0 c -47.81,0 -92.62,5.98 -133.74,32.08 l -12.34,7.83 c -37.56,-32.67 -85.41,-52.98 -137.86,-52.98 l -33,0 c -128.82,0 -241.07,108.22 -251.65,235.5 l -12.48,149.94 122.53,-97.82 c -3.52,33.33 -8.04,66.2 -12.7,96.56 -7.79,51.04 -17.69,103.65 -32.36,153.2 -3.74,12.58 -14.06,44.59 -24.12,63.05 -30.11,-16.3 -86.61,-71.02 -105.14,-83.42 l -47.56,-31.89 c 46.29,-83.65 69.85,-164.12 69.85,-261.26 0,-122.08 -124.35,-218.84 -240.87,-218.84 l -22,0 c -114.87,0 -220.39,113.17 -229.65,224.47 l -9.76,117.45 c -5.24,-12.46 -10.41,-24.29 -15.32,-35.27 -28.03,-62.55 -61.38,-127.02 -100.21,-183.56 -30.41,-44.26 -77.25,-104.61 -136.45,-104.61 l -119.86,0 0,380.33 -2.25,20.53 c -22.51,-126.16 -28.12,-279.48 -33.26,-341.37 l -4.95,-59.49 -92.7,0 c -50.18,0 -93.02,23.08 -122.28,58.37 -15.44,-8.08 -33.59,-12.35 -52.36,-12.35 l -11,0 c -13.07,0 -11.66,-0.13 -23.87,3.15 -50.692,13.6 -74.759,63.45 -91.216,108.6 -0.023,0.02 -0.023,0.04 -0.023,0.06 -8.098,-1.18 -17.161,-1.8 -27.918,-1.8 -16.196,0 -31.157,1.52 -45.125,5.15 l 0,-50.3 c 0,-66.99 -33.883,-130.86 -108.864,-130.86 l -11,0 c -75.793,0 -124.304,44.62 -147.582,104.77 -20.945,-30.87 -48.711,-56.08 -85.472,-56.08 l -99.336,0 1.472,66.31 c 1.188,53.04 15.336,82.09 42.418,125.27 7.7,12.26 11.641,19.81 12.43,33.03 -8.844,14.36 -38.566,36.21 -62.922,52.89 -17.293,-6.2 -34.125,-10.21 -53.023,-12.15 l -19.16,-309.86 -96.981,0.51 c -109.125,0 -174.7772,94.36 -174.7772,196.86 l 0,22 c 0,178.61 156.1172,397.5 252.9692,542.13 l 25.3,37.78 162.961,-40.26 -17.203,-63.96 c -13.93,-51.73 -47.305,-96.45 -73.398,-142.57 -6.598,-11.66 -12.606,-23.17 -17.907,-34.69 89.52,40.68 150.969,85.27 162.52,223.99 l 9.133,109.83 91.59,-61.32 c 55.617,-37.24 93.414,-78.61 94.734,-149.03 0.066,0.11 0.156,0.24 0.242,0.35 29.68,45.74 84.793,132.95 145.977,132.95 14.41,0 27.304,-1.21 40.922,-6.36 7.394,-2.79 10.277,-4.53 18.195,-6.42 l 78.124,-18.7 -33.13,-69.04 c -4.09,-26.14 9.86,-100.61 26.97,-163.91 l 37.51,-28.69 45.92,-61.89 c 0.29,-5.02 0.48,-10.03 0.59,-15.07 21.39,58.85 48.52,115.51 73.6,156.58 11.42,18.72 21.8,38.11 32.4,57.29 47.77,86.38 99.05,161.55 201.86,185.49 l 43.68,10.19 24.93,-37.25 c 14.03,-20.94 26.02,-43.12 36.01,-66.24 6.86,-15.91 12.7,-32.08 17.67,-48.47 1.36,19.18 2.59,36.43 3.8,50.99 l 4.95,59.48 92.69,0 c 18.62,0 36.24,-3.17 52.52,-8.98 l 0,37.88 128.42,-43.2 -3.5,15.75 115.95,2.04 c 32.58,0 61.69,-12.34 81.25,-39 4.05,-5.53 6.71,-10.45 9.11,-15.38 l 181.35,18.83 c 46.84,40.02 108.31,63.56 174.78,63.56 l 11,0 c 43.1,0 83.47,-11.66 118.39,-31.94 l 25.03,-16.73 c 57.86,-44.02 95.71,-113.61 97.42,-190.74 l 3.04,-135.84 -9.24,7.15 c 25.85,-57.86 38.81,-112.78 45.01,-171.05 l 116.83,80.32 -0.93,-124.46 c -0.17,-21.17 -3.36,-42.04 -9.19,-62.04 34.14,3.98 74.4,14.39 102.79,22.88 19.93,5.94 75.42,24.79 99.9,41.71 -21.38,41.19 -117.26,133.57 -140.3,156.91 -64.39,65.24 -163.66,164.42 -163.66,262.02 0,96.6 141.73,130.85 218.86,130.85 l 58.83,0 389.27,-46.13 -148.88,-97.66 c -40.24,-26.43 -105.19,-38.31 -152.12,-50.43 -14.74,-3.83 -64.29,-17.18 -85.47,-30.6 13.2,-14.15 32.03,-30.87 41.18,-39.32 35.01,-32.21 70.63,-63.58 104.97,-96.5 29.28,-28.07 65.59,-63.93 95.62,-103.6 1.3,5.26 2.68,10.49 4.2,15.73 8.3,28.85 19.65,55.36 30.38,83.21 11.84,30.67 18.77,56.21 18.77,89.41 l 12.74,-44.22 49.86,113.35 c 14.52,26.86 31.39,53.51 43.27,71.79 29.7,45.74 84.82,132.95 146,132.95 14.39,0 27.3,-1.21 40.9,-6.36 7.41,-2.79 10.29,-4.53 18.19,-6.42 l 78.15,-18.7 -33.13,-69.04 c -4.1,-26.14 9.83,-100.61 26.95,-163.91 l 64.26,30.1 11.23,-202.92 c 9.96,24.47 28.05,135.95 38.1,157.07 38.9,81.69 121.49,231.03 197.53,281.94 l 36.08,24.16 36.1,-24.16 c 19.65,-13.15 35.95,-29.94 50.87,-48.16 4.95,-6.02 15.75,-20.99 25.78,-33.64 1.45,2.64 2.8,5.04 3.94,6.98 25.9,43.21 60.94,74.8 114.32,74.8 57.24,0 100,-66.51 126.92,-109.59 36.68,-58.72 68.8,-123.29 96.7,-186.63 7.3,-16.61 15.36,-35.44 23.45,-55.58 z m -2342.78,144.95 0.22,2.59 c 0.61,7.28 1.5,14.43 2.68,21.47 l -13.28,-5.3 c 3.3,-6.25 6.79,-12.52 10.38,-18.76 z m -320.97,-48.69 c -10.65,-53.09 -30.7,-110.67 -50.82,-160.46 l 105.51,-77.31 c 25.63,-18.81 42.18,-43.89 64.35,-65.65 9.14,-8.95 18.51,-16.76 30.37,-19.65 14.27,22.31 22.08,78.26 22.08,98.96 l 0,44.01 c 0,62.1 -27.28,123.47 -48.15,184.01 l -78.7,-6.55 c -15.25,-1.65 -30.28,-0.84 -44.64,2.64 z M 639.086,3284.33 c 2.75,6.97 5.519,13.99 8.269,21.1 3.942,10.23 7.329,19.87 10.122,29.41 -13,-11.13 -27.258,-22.15 -42.243,-32.27 7.832,-5.39 15.996,-11.37 23.852,-18.24" /><path
             id="path24"
             style="fill:#231f20;fill-opacity:1;fill-rule:evenodd;stroke:none"
             d="m 1158.64,3117.8 0,-33 c 0,-55.6 39.67,-110 99,-110 l 33,0 c 15.27,183.51 19.5,496.69 137.2,572.73 l 27.81,-253.72 0,-319.01 55.01,0 c 74.21,0 253.01,366.56 253.01,506.02 l 0,11 c 0,55.62 -39.69,110.01 -99.01,110.01 l -33,0 c -14.74,-176.96 -23.25,-428.21 -110,-528.03 0,230.09 29.37,418.59 -66.01,561.03 -106.35,-24.78 -142.34,-129.37 -193.63,-213.39 -38.57,-63.23 -103.38,-209.85 -103.38,-303.64" /><path
             id="path26"
             style="fill:#231f20;fill-opacity:1;fill-rule:evenodd;stroke:none"
             d="m 3753.36,3096.04 0,-22 c 0,-55.29 54.69,-109.98 110,-109.98 l 33,0 c 9.22,110.91 31.11,550.03 110.01,550.03 48.77,0 51.99,-99.01 110.01,-99.01 53.98,0 55.76,81.58 121,99.01 72.32,-150.71 82.02,-345.82 99,-550.03 l 33.01,0 c 61.8,0 110,48.21 110,109.98 l 0,11 c 0,135.77 -187.78,517.03 -242.01,517.03 -62.86,0 -66.67,-99.01 -110,-99.01 -46.52,0 -71.18,76.65 -121.01,110.03 -85.01,-56.94 -253.01,-363.26 -253.01,-517.05" /><path
             id="path28"
             style="fill:#231f20;fill-opacity:1;fill-rule:evenodd;stroke:none"
             d="m 763.984,3383.84 -33.023,11 c 0,-116.74 -65.981,-151.54 -65.981,-297.01 l 0,-11.01 c 0,-69.12 29.219,-132 99.004,-132 l 11,0 c 33.817,0 44.004,32.23 44.004,66 l 0,165.01 c 56.719,-15.13 39.93,-55 109.985,-55 33.57,0 44.398,10.56 66.023,22 17.664,-36.85 35.044,-132.01 77.004,-132.01 l 11,0 c 18,0 32.98,6.6 32.98,22 0,22.07 -65.98,140.35 -65.98,154.01 0,28.4 22,36.19 17.73,113.31 l -28.73,-47.3 c -36.24,26.55 -100.68,280.68 -77.004,330.01 -29.504,7.06 -20.75,11 -44.027,11 -33.442,0 -144.633,-179.81 -153.985,-220.01 z m 77.004,-88 -0.55,-34.3 128.64,-52.32 5.367,9.99 -67.476,274.64 c -38.699,-28.37 -65.981,-129.94 -65.981,-198.01" /><path
             id="path30"
             style="fill:#231f20;fill-opacity:1;fill-rule:evenodd;stroke:none"
             d="m 321.918,3300.52 c 3.301,148.42 98.695,224.52 120.523,305.55 l -54.519,13.47 C 316.066,3512.26 145.91,3277.36 145.91,3113.51 l 0,-22 c 0,-70.99 41.184,-132.01 110.004,-132.01 l 35.93,-0.17 19.074,308.21 33,0 c 39.867,0 61.383,9.22 87.984,21.98 32.891,-22 121.028,-75.53 121.028,-121 0,-76.13 -53.133,-80.97 -55.004,-165.01 l 33.004,0 c 33.683,0 87.98,139.04 87.98,176.01 l 0,11 c 0,61.86 -92.207,65.38 -109.984,132 70.183,16.37 198.012,124.31 198.012,209.02 0,53.04 -34.192,77.7 -66.004,99.02 C 621.508,3397.2 478.828,3375.83 321.918,3300.52" /><path
             id="path32"
             style="fill:#231f20;fill-opacity:1;fill-rule:evenodd;stroke:none"
             d="m 2206.53,3457.32 c 35,23.46 98.01,99.01 154.01,99.01 83.05,0 132,-388.45 127.84,-522.31 l -116.84,93.29 c 7.34,-88.45 86.99,-176.01 187.01,-176.01 l 33,0 c 80.41,0 154,74.63 154.68,164.11 l -110.68,-76.11 c 0,128.23 -12.34,201.42 -54.94,286.11 -23.21,46.13 -113.55,191.69 -121.07,219.92 l 6.62,8.84 125.39,-96.85 c -2.12,94.26 -78.61,176.01 -176.01,176.01 l -11,0 c -106.29,0 -189.74,-76.52 -198.01,-176.01" /><path
             id="path34"
             style="fill:#231f20;fill-opacity:1;fill-rule:evenodd;stroke:none"
             d="m 2765.49,3536.38 c 0,-133.22 308.01,-325.36 308.01,-429 0,-62.18 -219.3,-121.03 -297.01,-121.03 25.83,-16.37 55.71,-21.98 99,-21.98 l 121.01,0 c 80.43,0 220.01,29.72 220.01,99.01 0,124.1 -308.02,325.06 -308.02,373.99 0,96.56 210.73,98.34 274.64,140.28 l -208.63,24.73 -55.01,0 c -54.03,0 -154,-25.08 -154,-66" /><path
             id="path36"
             style="fill:#231f20;fill-opacity:1;fill-rule:evenodd;stroke:none"
             d="m 1859.04,3473.32 132.01,11 c 17.36,-74.5 66,-158.98 66,-253.01 l 0,-44.01 c 0,-59.44 -24.59,-164.98 -77,-164.98 -74.76,0 -106.14,71.97 -143.01,99 6.45,-77.48 84.14,-165 165.01,-165 l 22,0 c 86,0 176.01,72.97 176.01,153.98 0,205.65 -122.17,287.77 -153.26,404.66 l 120.06,47.93 -120.81,-12.55 -11,0 c -54.91,0 -26.62,54.98 -77,54.98 l -35.4,-0.61 11.22,-50.47 -151.83,51.08 c 0,-64.83 12.08,-139.53 77,-132" /><path
             id="path38"
             style="fill:#231f20;fill-opacity:1;fill-rule:evenodd;stroke:none"
             d="m 3374.1,3380.34 -33,11 c 0,-116.73 -66,-151.54 -66,-297.01 l 0,-11 c 0,-69.13 29.24,-132.01 99,-132.01 l 11,0 c 33.82,0 44.01,32.23 44.01,66 l 0,165.01 c 56.73,-15.13 39.93,-55 110,-55 33.57,0 44.4,10.56 66,22 17.69,-36.85 35.05,-132.01 77.01,-132.01 l 11,0 c 17.99,0 33,6.61 33,22 0,22.07 -66.01,140.35 -66.01,154.01 0,28.41 22.01,36.19 17.74,113.31 l -28.74,-47.3 c -36.23,26.55 -100.67,280.69 -77,330.01 -29.5,7.06 -20.75,11 -44,11 -33.47,0 -144.64,-179.81 -154.01,-220.01 z m 77.01,-88 -0.53,-34.3 128.62,-52.32 5.36,9.99 -67.45,274.64 c -38.72,-28.36 -66,-129.94 -66,-198.01" /><path
             id="path40"
             style="fill:#231f20;fill-opacity:1;fill-rule:evenodd;stroke:none"
             d="m 4598,3385.45 -33,11 c 0,-116.76 -66.01,-151.57 -66.01,-297.02 l 0,-11 c 0,-69.15 29.24,-132.03 99.01,-132.03 l 11,0 c 33.81,0 44.02,32.24 44.02,66.03 l 0,165.01 c 56.72,-15.16 39.94,-55.03 109.99,-55.03 33.57,0 44.39,10.59 66,22 17.69,-36.83 35.07,-131.98 77,-131.98 l 11,0 c 18.02,0 33.01,6.58 33.01,22 0,22.07 -66.01,140.34 -66.01,154.01 0,28.38 22,36.17 17.76,113.28 l -28.74,-47.28 c -36.25,26.53 -100.69,280.67 -77.02,330.02 -29.48,7.04 -20.73,11 -44,11 -33.45,0 -144.64,-179.84 -154.01,-220.01 z m 77.02,-88.01 -0.55,-34.32 128.62,-52.32 5.39,10.01 -67.48,274.64 c -38.71,-28.38 -65.98,-129.96 -65.98,-198.01" /></g></g></g></g></svg>