<svg xmlns="http://www.w3.org/2000/svg" xmlns:xlink="http://www.w3.org/1999/xlink" version="1.1" id="Layer_1" x="0px" y="0px" width="93.75px" height="100px" viewBox="4.6875 -10.0 93.75 135.0" enable-background="new 0 0 93.75 100" xml:space="preserve">
<path d="M69.995,56.553l-6.429-14.593c-0.918-2.077-2.969-3.414-5.233-3.42c0,0-25.012-0.004-25.028-0.004h-0.002  c-2.813,0-5.241,2.118-5.642,4.923l-2.083,14.583c-0.447,3.13,1.733,6.037,4.863,6.482c0.205,0.036,0.5,0.059,0.812,0.059  c1.532,0,2.936-0.635,3.978-1.647c0.022-0.019,0.049-0.011,0.071-0.03l12.5-12.5c1.082-1.083,1.679-2.521,1.679-4.051  c0-1.353-0.49-2.62-1.347-3.648h10.188c0.6,0,1.174,0.346,1.433,0.932l6.423,14.583c0.211,0.484,0.166,1.041-0.122,1.485  c-0.289,0.441-0.779,0.708-1.309,0.708h-12.5c-0.862,0-1.562-0.7-1.562-1.562c0-0.863,0.7-1.562,1.562-1.562h10.105l-3.559-8.075  c-0.008-0.021-0.016-0.039-0.024-0.057l-0.03-0.069l-0.013,0.006c-0.337-0.694-1.033-1.18-1.857-1.18  c-1.151,0-2.083,0.932-2.083,2.083c0,0.269,0.061,0.519,0.152,0.755l-0.016,0.006l1.041,2.364h-3.717  c-3.159,0-5.729,2.569-5.729,5.729c0,3.159,2.57,5.729,5.729,5.729h12.5c1.938,0,3.731-0.968,4.795-2.594  C70.604,60.357,70.771,58.329,69.995,56.553z M34.9,47.105c-0.37,0.376-0.602,0.891-0.602,1.46c0,1.152,0.934,2.083,2.083,2.083  c0.582,0,1.103-0.238,1.481-0.621l0.004,0.002l4.779-4.781c0.305-0.305,0.706-0.458,1.104-0.458s0.8,0.153,1.104,0.458  c0.61,0.61,0.61,1.599,0,2.209l-7.22,7.221l-5.282,5.257c-0.285,0.291-0.671,0.48-1.101,0.48c-0.073,0-0.148-0.005-0.222-0.017  c-0.854-0.122-1.449-0.913-1.327-1.768l2.083-14.584c0.11-0.769,0.769-1.347,1.518-1.347c0.008,0,0.019,0.002,0.029,0.002v0.002  h0.016h5.947l-4.384,4.385c-0.002,0.002-0.004,0.002-0.004,0.004L34.9,47.103V47.105z"/>
<path d="M45.833,41.667c-5.744,0-10.417-4.673-10.417-10.417s4.673-10.417,10.417-10.417S56.25,25.507,56.25,31.25  S51.577,41.667,45.833,41.667z M45.833,25c-3.447,0-6.25,2.804-6.25,6.25s2.803,6.25,6.25,6.25c3.446,0,6.25-2.804,6.25-6.25  S49.279,25,45.833,25z"/>
<path d="M43.506,25"/>
<path d="M77.083,31.25c-2.539,0-4.903-1.18-6.457-3.101c-1.209,0.659-2.571,1.017-3.959,1.017c-4.597,0-8.334-3.737-8.334-8.333  c0-0.369,0.024-0.737,0.075-1.101c-2.571-1.45-4.241-4.197-4.241-7.232c0-4.596,3.737-8.333,8.333-8.333  c0.368,0,0.736,0.024,1.101,0.076C65.051,1.67,67.798,0,70.833,0c2.539,0,4.903,1.18,6.458,3.101  c1.208-0.659,2.571-1.017,3.959-1.017c4.596,0,8.333,3.737,8.333,8.333c0,0.369-0.024,0.737-0.075,1.101  c2.572,1.45,4.242,4.197,4.242,7.232c0,4.596-3.737,8.333-8.333,8.333c-0.368,0-0.737-0.024-1.101-0.076  C82.865,29.58,80.119,31.25,77.083,31.25z M71.238,22.986c0.137,0,0.272,0.014,0.409,0.041c0.71,0.143,1.296,0.643,1.546,1.323  c0.603,1.636,2.165,2.734,3.89,2.734c1.862,0,3.508-1.27,4-3.086c0.155-0.574,0.55-1.054,1.083-1.32  c0.532-0.265,1.153-0.289,1.704-0.067c2.751,1.109,5.713-1.043,5.713-3.859c0-1.861-1.27-3.507-3.086-4  c-0.574-0.154-1.054-0.549-1.32-1.082c-0.265-0.533-0.289-1.154-0.067-1.705c0.203-0.507,0.308-1.027,0.308-1.546  c0-2.297-1.87-4.167-4.167-4.167c-1.157,0-2.238,0.478-3.044,1.347c-0.494,0.531-1.227,0.767-1.937,0.627  c-0.71-0.143-1.296-0.643-1.546-1.323c-0.603-1.636-2.165-2.734-3.891-2.734c-1.861,0-3.507,1.27-3.999,3.086  c-0.155,0.574-0.55,1.054-1.083,1.32c-0.533,0.265-1.153,0.287-1.705,0.067C63.54,8.437,63.019,8.333,62.5,8.333  c-2.297,0-4.167,1.87-4.167,4.167c0,1.861,1.27,3.507,3.087,4c0.573,0.154,1.054,0.549,1.32,1.082  c0.265,0.533,0.289,1.154,0.067,1.705c-0.204,0.507-0.308,1.027-0.308,1.546C62.5,23.13,64.37,25,66.667,25  c1.157,0,2.237-0.478,3.043-1.347C70.109,23.224,70.664,22.986,71.238,22.986z"/>
<path d="M87.5,64.583H4.167C1.87,64.583,0,66.453,0,68.75v2.083h4.167V93.75c0,3.446,2.804,6.25,6.25,6.25h18.75  c3.447,0,6.25-2.804,6.25-6.25H56.25c0,3.446,2.804,6.25,6.25,6.25h18.75c3.446,0,6.25-2.804,6.25-6.25V70.833h4.167V68.75  C91.667,66.453,89.797,64.583,87.5,64.583z M29.167,95.833h-18.75c-1.149,0-2.083-0.934-2.083-2.083V70.833H31.25V93.75  C31.25,94.899,30.316,95.833,29.167,95.833z M35.417,89.583v-18.75H56.25v18.75H35.417z M83.333,93.75  c0,1.149-0.934,2.083-2.083,2.083H62.5c-1.149,0-2.083-0.934-2.083-2.083V70.833h22.916V93.75z"/>
<text x="0.0" y="117.5" font-size="5.0" font-weight="bold" font-family="Helvetica Neue, Helvetica, Arial-Unicode, Arial, Sans-serif" fill="#000000">Created by Edward Boatman</text><text x="0.0" y="122.5" font-size="5.0" font-weight="bold" font-family="Helvetica Neue, Helvetica, Arial-Unicode, Arial, Sans-serif" fill="#000000">from the Noun Project</text></svg>