<?xml version="1.0" encoding="UTF-8"?>
<svg width="166px" height="36px" viewBox="0 0 166 36" version="1.1" xmlns="http://www.w3.org/2000/svg" xmlns:xlink="http://www.w3.org/1999/xlink">
    <!-- Generator: sketchtool 40.1 (33804) - http://www.bohemiancoding.com/sketch -->
    <title>52305BE7-747B-4830-998E-D2D78562C1EC</title>
    <desc>Created with sketchtool.</desc>
    <defs></defs>
    <g id="full-screen" stroke="none" stroke-width="1" fill="none" fill-rule="evenodd">
        <g id="Desktop-review" transform="translate(-21.000000, -15.000000)" fill="#FFFFFF">
            <g id="page" transform="translate(1.000000, -2.000000)">
                <g id="header" transform="translate(20.000000, 17.000000)">
                    <g id="logo">
                        <path d="M45.8157798,1.93541284 L45.8157798,16.9926606 L51.0770642,11.7644037 C51.0770642,11.7644037 52.8704587,9.87522936 54.1948624,11.1302752 C55.3376147,12.2102752 53.8216514,13.7130275 53.8216514,13.7130275 L48.9005505,18.4722936 C48.9005505,18.4722936 53.7027523,24.3842202 53.8183486,24.5790826 C54.1717431,25.186789 54.8422018,26.3757798 53.7225688,27.1618349 C52.6029358,27.9478899 51.2422018,26.7027523 50.8194495,26.2965138 C50.3966972,25.8902752 46.3805505,20.893211 46.3805505,20.893211 L45.8157798,21.4612844 C45.8157798,21.4612844 45.8322936,25.0943119 45.8157798,25.3519266 C45.786055,26.1544954 45.5317431,27.333578 44.1115596,27.3699083 C42.8763303,27.386422 42.2686239,26.6069725 42.2686239,25.186789 L42.2686239,1.87266055 C42.2686239,1.87266055 42.2917431,6.9487161e-15 44.0818349,6.9487161e-15 C45.8190826,-0.00660550459 45.8157798,1.93541284 45.8157798,1.93541284 L45.8157798,1.93541284 Z" id="Shape"></path>
                        <path d="M66.5900917,13.8154128 C66.5900917,13.1548624 66.7948624,11.9031193 68.2976147,11.9097248 C69.800367,11.9163303 70.147156,13.1977982 70.147156,13.7922936 L70.147156,25.1537615 C70.147156,25.6888073 70.2627523,27.5482569 68.3933945,27.6242202 C66.7783486,27.6902752 66.586789,26.4055046 66.5933945,25.893578 L66.5933945,25.7515596 C65.1357798,27.1144954 63.5680734,27.7959633 61.8902752,27.7959633 C59.8827027,27.8418585 57.9581455,26.9951017 56.6355963,25.4840367 C55.2616514,23.9207339 54.5746789,21.9699083 54.5746789,19.6315596 C54.5746789,17.3350459 55.2616514,15.4205505 56.6355963,13.8880734 C57.9253434,12.387908 59.8164491,11.5404214 61.7944954,11.5761468 C63.5779817,11.5761468 65.1776147,12.3104587 66.5933945,13.7790826 L66.5900917,13.8154128 Z M58.1878899,19.6513761 C58.1878899,21.12 58.5809174,22.3155963 59.3669725,23.2381651 C60.1176725,24.1456105 61.2412205,24.6611779 62.4187156,24.6385321 C63.6265861,24.6827152 64.7913134,24.1863137 65.5959633,23.2844037 C66.431492,22.2928578 66.8693001,21.0265095 66.8245872,19.7306422 C66.8693001,18.4347749 66.431492,17.1684266 65.5959633,16.1768807 C64.8052703,15.2716825 63.6496856,14.7696761 62.4484404,14.8095413 C61.2790273,14.7869087 60.1607821,15.2884834 59.4,16.1768807 C58.5781653,17.1441392 58.146042,18.382814 58.1878899,19.6513761 L58.1878899,19.6513761 Z" id="Shape"></path>
                        <path d="M72.1321101,13.9012844 C72.1321101,13.653578 72.1552294,12.0418349 73.8231193,12.0385321 C75.4910092,12.0352294 75.6891743,13.4554128 75.6891743,13.4554128 L75.6891743,13.4554128 C76.7735964,12.2955074 78.2859545,11.6306428 79.8737615,11.6157798 C81.6572477,11.6157798 83.0466055,12.1772477 84.0418349,13.3001835 C84.893945,14.2513761 85.32,15.8069725 85.32,17.9669725 L85.32,25.7713761 C85.2709916,26.6609776 84.5364524,27.3578481 83.6455046,27.36 C82.6684703,27.3840862 81.8431456,26.6399886 81.7662385,25.6656881 L81.7662385,18.8025688 C81.7662385,17.2921101 81.5559633,16.2484404 81.1354128,15.6715596 C80.7148624,15.0946789 79.973945,14.8007339 78.9126606,14.7897248 C77.7390826,14.7897248 76.9056881,15.1772477 76.4124771,15.9522936 C75.9192661,16.7273394 75.6781651,18.0649541 75.6891743,19.9651376 L75.6891743,25.5104587 C75.7089908,26.0818349 75.3985321,27.36 73.9188991,27.36 C73.4377742,27.3861171 72.9682861,27.2061521 72.6278939,26.8651295 C72.2875017,26.524107 72.1084056,26.0542867 72.1354128,25.573211 L72.1321101,13.9012844 Z" id="Shape"></path>
                        <path d="M107.012477,15.3577982 C106.275963,15.8895413 105.116697,15.7343119 104.416514,15.1827523 C104.104225,14.927788 103.713242,14.7889017 103.310092,14.7897248 C102.968927,14.7836787 102.63704,14.9009534 102.375413,15.12 C102.124833,15.3198627 101.981915,15.6252425 101.988991,15.9456881 C101.988991,16.533578 102.751927,17.1159633 104.277798,17.692844 C106.38055,18.5009174 107.79633,19.2451376 108.525138,19.9255046 C109.269545,20.6431696 109.668019,21.6471797 109.618349,22.68 C109.62277,24.1359727 108.941158,25.5089872 107.778716,26.3856881 C106.555402,27.3420924 105.037416,27.8430275 103.485138,27.8025688 C101.087339,27.8025688 98.9768807,26.7456881 98.293211,25.2495413 C97.9629358,24.5097248 98.0686239,23.4165138 99.066055,22.9970642 C99.8317214,22.667348 100.723564,22.9032635 101.226055,23.5684404 C101.385998,23.7579642 101.561669,23.9336349 101.751193,24.093578 C102.271793,24.4799106 102.910293,24.6736785 103.557798,24.6418349 C104.896514,24.6418349 105.565872,24.0913761 105.565872,22.9904587 C105.565872,22.3607339 105.049541,21.773945 104.016881,21.2300917 C103.618349,21.0517431 103.218716,20.8788991 102.817982,20.7115596 L101.602569,20.1930275 C100.451009,19.6888073 99.6407339,19.1856881 99.1717431,18.6836697 C98.5596941,18.0099848 98.2370378,17.1226799 98.2733945,16.213211 C98.2489644,14.93517 98.8141852,13.7170217 99.8058716,12.9104587 C100.873533,12.0260609 102.224637,11.5569275 103.610642,11.5893578 C105.192661,11.5893578 106.292477,11.853578 107.24367,12.9104587 C107.778716,13.5511927 107.748991,14.826055 107.012477,15.3577982 L107.012477,15.3577982 Z" id="Shape"></path>
                        <path d="M127.70422,13.7625688 C127.694168,13.3017412 127.873036,12.8568533 128.199279,12.5312335 C128.525523,12.2056137 128.970752,12.0275981 129.43156,12.0385321 C130.914495,11.9889908 131.241468,13.4554128 131.241468,13.4554128 L131.241468,13.4554128 C131.746285,12.8865313 132.335552,12.3986317 132.988624,12.0088073 C133.593841,11.7273097 134.256959,11.5926492 134.924037,11.6157798 C136.654679,11.6157798 138.023119,12.3710092 139.029358,13.8814679 C140.056616,12.4139766 141.753708,11.5623268 143.54422,11.6157798 C146.994495,11.6157798 148.719633,13.7075229 148.719633,17.8910092 L148.719633,25.6656881 C148.719633,26.5310092 148.217615,27.36 147.068257,27.36 C145.918899,27.36 145.185688,26.6234862 145.155963,25.7251376 L145.155963,18.8488073 C145.155963,17.3801835 144.977615,16.3420183 144.620917,15.7343119 C144.241357,15.1079084 143.541185,14.7488785 142.811009,14.8062385 C141.951458,14.7472668 141.130423,15.1711501 140.680734,15.906055 C140.240367,16.6392661 140.020183,17.8194495 140.020183,19.4466055 L140.020183,25.6491743 C139.98055,26.573945 139.455413,27.36 138.216881,27.36 C137.287537,27.3614899 136.519025,26.6364784 136.466422,25.7086239 L136.466422,18.8950459 C136.466422,16.1669725 135.680367,14.8040367 134.108257,14.8062385 C133.230549,14.7438161 132.390765,15.1738873 131.92844,15.9225688 C131.461651,16.666789 131.228257,17.8414679 131.228257,19.4466055 C131.228257,19.4466055 131.291009,25.4708257 131.228257,25.8176147 C131.148991,26.2502752 130.931009,27.3566972 129.510826,27.3566972 C129.042345,27.3828221 128.583454,27.2168743 128.240043,26.897147 C127.896632,26.5774198 127.698371,26.1315359 127.691009,25.6623853 L127.70422,13.7625688 Z" id="Shape"></path>
                        <path d="M122.155596,13.3034862 C122.165054,12.861946 122.350979,12.4425919 122.671835,12.1391136 C122.99269,11.8356353 123.421737,11.6733233 123.863119,11.6884404 C125.365872,11.6884404 125.712661,12.9765138 125.712661,13.5710092 L125.712661,24.9324771 C125.712661,25.4675229 125.970275,27.3831193 123.958899,27.4029358 C122.34055,27.4029358 122.158899,26.2106422 122.158899,25.9398165 L122.158899,25.5302752 C120.701284,26.893211 119.133578,27.5746789 117.45578,27.5746789 C115.448207,27.6205741 113.52365,26.7738173 112.201101,25.2627523 C110.827156,23.6994495 110.140183,21.7486239 110.140183,19.4102752 C110.140183,17.1137615 110.827156,15.1992661 112.201101,13.666789 C113.490848,12.1666236 115.381954,11.319137 117.36,11.3548624 C119.143486,11.3548624 120.743119,12.0891743 122.158899,13.5577982 L122.155596,13.3034862 Z M113.753394,19.4300917 C113.753394,20.8987156 114.146422,22.0943119 114.932477,23.0168807 C115.679923,23.9304945 116.803958,24.452368 117.98422,24.4337615 C119.192091,24.4779446 120.356818,23.9815431 121.161468,23.079633 C121.991052,22.0856878 122.42289,20.8195892 122.373578,19.5258716 C122.42289,18.232154 121.991052,16.9660554 121.161468,15.9721101 C120.375295,15.0604622 119.220585,14.5510313 118.017248,14.5849541 C116.843983,14.5654257 115.723862,15.0733594 114.965505,15.9688073 C114.146772,16.9326531 113.714853,18.1660365 113.753394,19.4300917 L113.753394,19.4300917 Z" id="Shape"></path>
                        <path d="M161.77211,13.5346789 C161.781567,13.0931387 161.967493,12.6737845 162.288348,12.3703062 C162.609204,12.066828 163.03825,11.9045159 163.479633,11.919633 C164.982385,11.919633 165.329174,13.2077064 165.329174,13.8022018 L165.329174,25.1636697 C165.329174,25.6987156 165.586789,27.6143119 163.575413,27.6341284 C161.957064,27.6341284 161.775413,26.4418349 161.775413,26.1710092 L161.775413,25.7548624 C160.317798,27.1177982 158.750092,27.7992661 157.072294,27.7992661 C155.064721,27.8451613 153.140164,26.9984045 151.817615,25.4873394 C150.44367,23.9240367 149.756697,21.973211 149.756697,19.6348624 C149.756697,17.3383486 150.44367,15.4238532 151.817615,13.8913761 C153.107362,12.3912107 154.998467,11.5437242 156.976514,11.5794495 C158.76,11.5794495 160.359633,12.3137615 161.775413,13.7823853 L161.77211,13.5346789 Z M153.356697,19.6513761 C153.356697,21.12 153.749725,22.3155963 154.53578,23.2381651 C155.28648,24.1456105 156.410028,24.6611779 157.587523,24.6385321 C158.795393,24.6827152 159.960121,24.1863137 160.764771,23.2844037 C161.594355,22.2904584 162.026193,21.0243598 161.976881,19.7306422 C162.030803,18.439067 161.604931,17.1732146 160.781284,16.1768807 C159.994926,15.275004 158.846345,14.7721969 157.650275,14.8062385 C156.47344,14.7784417 155.346598,15.2818211 154.582018,16.1768807 C153.755419,17.1422005 153.318514,18.3810806 153.356697,19.6513761 L153.356697,19.6513761 Z" id="Shape"></path>
                        <path d="M90.8620183,14.0598165 L90.8620183,33.6550459 C90.8620183,34.6227523 90.5746789,35.7555963 89.1544954,35.7721101 C87.9192661,35.7721101 87.3115596,34.7812844 87.3115596,33.5493578 L87.3115596,14.1952294 C87.3115596,14.1952294 87.0902752,12.0286239 89.1247706,12.0286239 C91.0634862,12.0385321 90.8620183,14.0598165 90.8620183,14.0598165 L90.8620183,14.0598165 Z" id="Shape"></path>
                        <path d="M96.4007339,14.0201835 C96.4007339,14.0201835 96.4337615,25.1306422 96.4007339,25.2792661 C96.3049541,25.9959633 96.2521101,27.5911927 94.6238532,27.5911927 C93.1244037,27.5911927 92.8436697,26.2998165 92.8436697,25.1174312 L92.8436697,14.0697248 C92.8436697,14.0697248 92.6950459,12.0484404 94.6601835,12.0484404 C96.4965138,12.0385321 96.4007339,14.0201835 96.4007339,14.0201835 L96.4007339,14.0201835 Z" id="Shape"></path>
                        <path d="M86.5387156,7.14715596 C86.554984,5.88193748 87.5853191,4.86484954 88.8506422,4.86495413 C89.4689716,4.84611567 90.0672546,5.08542886 90.5020183,5.52550459 C90.9395194,5.94974212 91.1791224,6.53796749 91.1625688,7.14715596 C91.1814073,7.76548539 90.9420941,8.36376836 90.5020183,8.79853211 C90.0777808,9.23603312 89.4895554,9.47563611 88.880367,9.45908257 C87.6035252,9.45908257 86.5684404,8.42399777 86.5684404,7.14715596 L86.5387156,7.14715596 Z" id="Shape"></path>
                        <path d="M92.0840367,7.14715596 C92.1003051,5.88193748 93.1306402,4.86484954 94.3959633,4.86495413 C95.0142927,4.84611567 95.6125757,5.08542886 96.0473394,5.52550459 C96.4848405,5.94974212 96.7244435,6.53796749 96.7078899,7.14715596 C96.7267284,7.76548539 96.4874152,8.36376836 96.0473394,8.79853211 C95.6231019,9.23603312 95.0348765,9.47563611 94.4256881,9.45908257 C93.1488463,9.45908257 92.1137615,8.42399777 92.1137615,7.14715596 L92.0840367,7.14715596 Z" id="Shape"></path>
                        <path d="M24.2190826,6.48330275 L24.2190826,11.7677064 L27.5746789,11.7677064 C28.5655046,11.7677064 29.173211,11.9988991 29.173211,12.7948624 L29.173211,21.4381651 C29.173211,22.6733945 28.413578,22.7592661 27.6407339,22.8286239 C26.8678899,22.8979817 16.7812844,22.8682569 13.4917431,22.8682569 C12.0253211,22.8682569 11.9988991,22.2506422 11.9988991,21.4018349 L11.9988991,20.0245872 L7.35522936,20.0245872 L7.39486239,23.4429358 C7.35522936,26.1148624 8.28330275,27.7695413 11.0609174,27.8488073 C13.2605505,27.9082569 28.826422,27.8488073 28.826422,27.8488073 C32.053211,27.772844 33.1365138,26.0190826 33.1365138,23.2249541 L33.1365138,10.7702752 C33.1365138,8.77541284 31.7427523,6.48330275 28.8990826,6.48330275 L24.2190826,6.48330275 Z" id="Shape"></path>
                        <path d="M21.7684404,20.2458716 L3.71889908,20.2458716 C1.66576257,20.2440506 0.00182096472,18.580109 0,16.5269725 L0,4.30678899 C-8.08747222e-07,2.2523628 1.6644737,0.586410072 3.71889908,0.584587156 L21.7684404,0.584587156 C23.8215769,0.586408121 25.4855185,2.25034973 25.4873394,4.30348624 L25.4873394,16.5236697 C25.4873403,18.5780959 23.8228658,20.2440486 21.7684404,20.2458716 L21.7684404,20.2458716 Z M5.04,16.2495413 C5.65761468,16.3089908 19.1592661,16.2495413 20.2822018,16.2495413 C21.1706422,16.2495413 21.4777982,15.7673394 21.4910092,15.2289908 L21.4910092,5.5453211 C21.4910092,4.77908257 20.9757798,4.62055046 20.3218349,4.58422018 C19.6678899,4.54788991 5.9053211,4.54458716 5.24807339,4.54458716 C4.42568807,4.54458716 3.96330275,4.85174312 3.96330275,5.93504587 C3.96330275,6.70788991 3.96330275,14.6576147 3.99963303,15.1827523 C3.99250763,15.4632238 4.09896369,15.7346842 4.29484798,15.9355433 C4.49073226,16.1364025 4.75943801,16.2496318 5.04,16.2495413 L5.04,16.2495413 Z" id="Shape"></path>
                    </g>
                </g>
            </g>
        </g>
    </g>
</svg>