<?xml version="1.0" encoding="utf-8"?>
<!-- Generator: Adobe Illustrator 19.2.1, SVG Export Plug-In . SVG Version: 6.00 Build 0)  -->
<svg version="1.1" xmlns="http://www.w3.org/2000/svg" xmlns:xlink="http://www.w3.org/1999/xlink" x="0px" y="0px"
	 viewBox="0 0 1000 1000" style="enable-background:new 0 0 1000 1000;" xml:space="preserve">
<style type="text/css">
	.st0{clip-path:url(#SVGID_2_);fill:#00D49C;}
	.st1{clip-path:url(#SVGID_2_);fill:#50BF94;}
	.st2{clip-path:url(#SVGID_2_);fill:#A3F2C0;}
	.st3{clip-path:url(#SVGID_2_);fill:#3A9B84;}
	.st4{clip-path:url(#SVGID_2_);fill:#00D49C;stroke:#FFFFFF;stroke-miterlimit:10;}
	.st5{clip-path:url(#SVGID_2_);fill:#FFB6A7;}
	.st6{clip-path:url(#SVGID_2_);fill:#F2F2F2;}
	.st7{clip-path:url(#SVGID_2_);fill:none;stroke:#333333;stroke-miterlimit:10;}
	.st8{clip-path:url(#SVGID_2_);fill:#F72449;}
	.st9{clip-path:url(#SVGID_2_);fill:none;stroke:#FF716C;stroke-miterlimit:10;}
	.st10{clip-path:url(#SVGID_2_);fill:#333333;stroke:#333333;stroke-miterlimit:10;}
	.st11{clip-path:url(#SVGID_2_);fill:#FF887A;}
	.st12{clip-path:url(#SVGID_2_);fill:#FF716C;}
	.st13{fill:#333333;}
</style>
<g id="template">
</g>
<g id="Layer_2">
	<g>
		<defs>
			<circle id="SVGID_1_" cx="512.6" cy="458.6" r="396.3"/>
		</defs>
		<clipPath id="SVGID_2_">
			<use xlink:href="#SVGID_1_"  style="overflow:visible;"/>
		</clipPath>
		<path class="st0" d="M725.2,820.4c0-41.9-59.3-120.4-110.2-152.6c-46.9-29.7-78.5-39.5-88.2-42.4c-9.4-2.8-31.1-0.5-31.1-0.5
			S316,674.6,306.6,802.9c-2.5,34.5,71.6,114.1,71.6,114.1H446c0,0-71.5-80.2-74-104.1c-4-40,38.3-61.7,52.5-66L411,861.3l205.7-8
			l-23-108.2c0,0,55.6,13.1,62.5,49.3c7.9,41.3-52.8,92.7-52.8,92.7l52.8,28.8C656.3,916,725.2,846.4,725.2,820.4z"/>
		<path class="st0" d="M725.2,820.4c0-41.9-59.3-120.4-110.2-152.6c-46.9-29.7-78.5-39.5-88.2-42.4c-9.4-2.8-31.1-0.5-31.1-0.5
			S316,674.6,306.6,802.9c-2.5,34.5,71.6,114.1,71.6,114.1H446c0,0-71.5-80.2-74-104.1c-4-40,38.3-61.7,52.5-66L411,861.3l205.7-8
			l-23-108.2c0,0,55.6,13.1,62.5,49.3c7.9,41.3-52.8,92.7-52.8,92.7l52.8,28.8C656.3,916,725.2,846.4,725.2,820.4z"/>
		<path class="st0" d="M725.2,820.4c0-41.9-59.3-120.4-110.2-152.6c-46.9-29.7-78.5-39.5-88.2-42.4c-9.4-2.8-31.1-0.5-31.1-0.5
			S316,674.6,306.6,802.9c-2.5,34.5,71.6,114.1,71.6,114.1H446c0,0-71.5-80.2-74-104.1c-4-40,38.3-61.7,52.5-66L411,861.3l205.7-8
			l-23-108.2c0,0,55.6,13.1,62.5,49.3c7.9,41.3-52.8,92.7-52.8,92.7l52.8,28.8C656.3,916,725.2,846.4,725.2,820.4z"/>
		<path class="st1" d="M498.2,647.7c15,7.6,29.6-5.5,32.8-20.9c-1-0.3-2-0.6-2.8-0.9l-37.1,0.5c-1.5,0.5-3.4,1.1-5.7,1.8
			C485.3,632.1,486.3,641.7,498.2,647.7z"/>
		<path class="st2" d="M566.9,640.9c-7-3.3-13.9-5.8-18.9-7.9v40.5l-72.7,1.3l-1-42.8c-5.6,2.1-12,4.3-19.1,7.3
			C450.4,673.9,432,811,426.5,860h172.8L566.9,640.9z"/>
		<polygon class="st1" points="475.3,674.8 548,673.5 548,633 543,631 543,669 475,670.2 		"/>
		<path class="st1" d="M455.1,639.2l-5.5,2.6c0,0-22.1,165.2-27.6,213.2h5C433.1,803,455.1,639.2,455.1,639.2z"/>
		<path class="st3" d="M528.2,625.9l-37.1,0.5c-0.9,0.3-1.9,0.6-3,1c0.6,5.1,3.2,14.6,13.1,17.4c17.2,4.8,27.4-13,29-18.2
			C529.5,626.3,528.8,626.1,528.2,625.9z"/>
		<path class="st4" d="M627.6,575.6c0,0,33.9,3.3,43.7-2.7s15.8-13.6,17.3-24.1c1.5-10.6,0-15.8,6.8-15.8c6.8,0,32.7-4.2,42.2-38.1
			c10.6-37.8-6.4-44.5-4.5-55.4c1.4-8,32.3-23.8,18.5-69.7c-11.3-37.9-54.3-37.9-59.2-45.1c-3.5-5.1,15.8-57.4-23.7-82.3
			c-40-25.1-74.5,2.3-84-2.6c-16.6-8.7-17.7-48.5-65.2-50.5c-54.3-2.2-59.5,35.5-67.4,37.7c-10.9,3-57.6-20.7-88.9,8.7
			c-34.7,32.4-18.8,60.7-23.4,65.9s-23.4-0.4-45.2,17.7c-21.9,18.1-27.1,35-23.4,61.4c3.8,26.4,26.4,38.4,24.1,47.5
			s-20.6,29-10.6,75c9.4,43,39.7,49,54.3,53.1c15.2,4.2,51.6,12.5,51.6,12.5L627.6,575.6z"/>
		<path class="st5" d="M661.2,417.3c-9.4-18.1,3-33.5-0.9-36.5c-4-3-21.3,13.2-55.1-1.8c-39.4-17.5-30.6-43.1-35.3-44.6
			c-6.6-2.1-17.9,29.8-54.4,30.3c-44.5,0.6-60.7-35.6-67.1-32.5c-6.4,3-5.5,41.3-27.9,48.6c-28.6,9.4-50.9-6.8-56.3-2.3
			c-5.5,4.5-3.1,21.7-9.9,31.1c-9.6,13.4-32.4,16.9-32.4,16.9s13.1,28.4,18.9,61.3c-3.6-1.2-7.9-0.8-11.4,4.8
			c-7.5,12.1,3.1,35.4,9.4,38.2c2.5,1.1,5.3,1.6,8,1.6c4.2,23,12.7,49.7,31.5,61.1c23.1,14.1,63.2,26.4,111,28.4
			c2.1,7,4.9,14,13.3,16c7.5,1.8,16.9,0.7,20.6-3.7c2.7-3.2,5.4-7.5,6.5-12.9c61-4.7,104.8-19.9,124.9-43.3
			c12.5-14.6,20.1-32,24.6-46.8c4.9,0,8.1-1.9,12.5-4.7c6-3.8,15.8-24.1,6-36.2c-2.9-3.6-5.5-5-7.6-5.3c5.2-18.2,12.2-39,13.7-41.6
			C706,439.5,675,443.7,661.2,417.3z"/>
		<path class="st6" d="M375.9,475.1c-4-9,3-31,45.6-40.4c69.4-15.2,64.8,29.4,37.7,40.4C431.7,486.2,383.8,493,375.9,475.1z"/>
		<path class="st7" d="M467.9,433.9c-67.4-10.5-95,29.4-95,29.4"/>
		<path class="st6" d="M544.8,458.7c-1-14.7,3.8-23.7,14.9-27.9c19.1-7.1,78.9,4.6,84.6,25.8c2.4,8.9,3,16.4-2.3,21.9
			c-5.3,5.5-18,5.6-28.6,5.4S546.3,481.5,544.8,458.7z"/>
		<path class="st7" d="M378.2,479.8c0,0,3,8.3,31.7,6c28.6-2.3,45.2-6.8,61-18.8"/>
		<path class="st7" d="M548.5,439.1c1.5-2.3,6.8-9.8,23.4-10.6c16.6-0.8,49.7,3,72.3,25.6"/>
		<path class="st7" d="M548.5,467c0,0,24.1,23.4,90.4,15.1"/>
		<path class="st7" d="M531.2,441.4c0,0,53.5-40.7,79.9-39.9c26.4,0.8,45.2,19.9,45.2,19.9"/>
		<path class="st8" d="M477.7,546.1c9,1.3,16.7,1.4,31.7-1.6c15.1-3,40.6-2.8,43.6,15.9c1.8,11.2,0.1,19.7-4.5,24.9
			c-7.5,8.5-49,8.1-62.9,7.3c-11.6-0.6-23.7-6.2-23.2-17.5c0.3-5.3-0.6-18.5,0.9-23C464.9,547.7,468.6,544.8,477.7,546.1z"/>
		<path class="st9" d="M603.5,534.1c0,0-18.8,26.4,0,44.5"/>
		<line class="st9" x1="629.9" y1="544.6" x2="623.1" y2="552.2"/>
		<line class="st9" x1="639" y1="544.6" x2="632.9" y2="556.3"/>
		<circle class="st10" cx="567.5" cy="467.1" r="3.9"/>
		<circle class="st10" cx="446.3" cy="471" r="4"/>
		<path class="st1" d="M346.7,532.4c-2.7-0.1-5.5-0.5-8-1.6c-6.3-2.8-17-26.1-9.4-38.2c3.5-5.6,7.8-6,11.4-4.8
			c-5.9-32.9-18.9-61.3-18.9-61.3s22.8-3.5,32.4-16.9c6.8-9.4,4.5-26.6,9.9-31.1c5.5-4.5,27.7,11.7,56.3,2.3
			c22.4-7.4,21.4-45.6,27.9-48.6c6.4-3,22.6,33.2,67.1,32.5c15.5-0.2,26.5-6.1,34.5-12.6c5.3-4.6,15.6-15.6,17.7-17.5
			c0,0-18.1,6.6-34,7.8c-15.8,1.1-30-13.6-28.3-37.3c1.7-24.4,31.1-51.4,53.1-36.2c27.4,19,46.9,5.1,66.1-13.6
			c12-11.6,27.8-15.1,46.1-11.5c-0.6-0.4-1.3-0.9-2-1.3c-40-25.1-74.5,2.3-84-2.6c-16.6-8.7-17.7-48.5-65.2-50.5
			c-54.3-2.2-59.5,35.5-67.4,37.7c-10.9,3-57.6-20.7-88.9,8.7c-34.7,32.4-18.8,60.7-23.4,65.9c-4.5,5.3-23.4-0.4-45.2,17.7
			c-21.9,18.1-27.1,35-23.4,61.4c3.8,26.4,26.4,38.4,24.1,47.5s-20.6,29-10.6,75c9.4,43,39.7,49,54.3,53.1c3.9,1.1,9.3,2.5,15,3.9
			C350.7,551.2,348.3,541.5,346.7,532.4z"/>
		<path class="st1" d="M735.1,490.4c-0.8-12.2-11.5-17.1-14.1-24.9c-7.3-21.8,8.2-31.4-0.8-37.3c-3.2-2.1-32.2-1.1-43.9-15.4
			c-11.7-14.3-15.8-31.8-15.8-31.8c3.2,3.5-8.5,18.6,0.7,36.3c13.8,26.5,44.8,22.2,42.6,26.2c-1.5,2.6-8.5,23.5-13.7,41.6
			c2.2,0.3,4.7,1.7,7.6,5.3c9.8,12.1,0,32.4-6,36.2c-4.4,2.7-7.6,4.7-12.5,4.7c-4.3,14.2-11.5,30.8-23.2,45
			c6.3-0.4,12.1-1.4,15.3-3.3c9.8-6,15.8-13.6,17.3-24.1c1.5-10.6,0-15.8,6.8-15.8c4.8,0,19.3-2.1,30.7-15.5
			C733.7,508.7,735.7,498.8,735.1,490.4z"/>
		<path class="st11" d="M346.7,532.4c1.6,8.8,3.9,18.2,7.1,27c-0.7-6.9-1.9-16.3-3.3-24.4c-2.5-15-7.3-29.1-7.3-29.1
			c0.8,6.6,0.5,17.8,0.1,26.2C344.4,532.3,345.5,532.4,346.7,532.4z"/>
		<path class="st11" d="M684.3,508.2c0,0-10.7,34.8-16.1,49.8c4.9-9.1,8.5-18.3,11-26.7c1.7,0,3.2-0.2,4.6-0.7L684.3,508.2z"/>
		<path class="st11" d="M518.3,379c27.1-4.2,43.3-31,44.6-40.1c-7.8,8.4-21,25.4-47.6,25.8c-44.5,0.6-60.7-35.6-67.1-32.5
			c-6.4,3-5.5,41.3-27.9,48.6c-28.6,9.4-50.9-6.8-56.3-2.3c-5.5,4.5-3.1,21.7-9.9,31.1c-9.6,13.4-32.4,16.9-32.4,16.9
			s16.1,39.8,17.1,52.1c0,0-1.8-26.9,14.3-44.3c10.6-11.4,14.1-35.8,18.6-37.8c6.4-2.8,28.5,6.2,53.7-1.6
			c17.8-5.6,24.9-32.8,30.9-34.4C462.6,358.9,483.5,384.4,518.3,379z"/>
		<path class="st7" d="M495.8,435.4c-0.8,3.3-5.1,6.4-10.6,6c-7.5-0.6-15.7-8.1-23.4-16.5c-3.9-4.4-21.9-31.7-47.5-36.9
			s-43.7,16.6-43.7,16.6"/>
		<path class="st11" d="M690.1,485.1c5.2-18.2,12.2-39,13.7-41.6c2.3-4-28.8,0.3-42.6-26.2c-2.9-5.6-3.7-10.9-3.6-15.7l-0.5-0.3
			c0,0-2,25.6,18.1,42c13.7,11.1,13.1,12.4,14.1,15.3c3.5,10.4-2.4,31.9-2.4,31.9S690.8,485.2,690.1,485.1z"/>
		<path class="st1" d="M372.1,812.7c-3.5-35,25.3-56.7,52.5-65.9c-11.8-1.7-51.2-1.8-67.4,20.5c-20,27.5,0.5,70.4,0.5,70.4
			l35.5,13.6C381.8,835.5,372.9,820.8,372.1,812.7z"/>
		<path class="st1" d="M657.8,759.8c-16.7-15.8-52.9-16.2-64.1-14.7c15.5,5.1,56,17.7,62.5,49.3c3.1,15.2-3.5,31.9-12.8,46.8
			c20.4-9.2,26.7-34.3,26.7-34.3S678.9,779.8,657.8,759.8z"/>
		<path class="st12" d="M464.5,583.1c3.9,6,12.6,9.1,21.1,9.5c14,0.8,55.4,1.1,62.9-7.3c1.2-1.4,2.2-2.9,3-4.7
			c-2.3-3.8-5.2-7.7-8.3-10.8c-8.8-8.8-19.5-9.9-27.1-8.5c-5,0.9-14.7,9-14.7,9s-5.4-4.2-15.3-1.7
			C479.2,570.4,469.6,578.5,464.5,583.1z"/>
		<path class="st3" d="M370.9,772.4c-24.2,36.5,8.2,70.9,8.2,70.9l3.6-7.6c-5.9-9.5-11.2-19-10.7-32.3c0.9-26.9,24.1-44.1,52.7-56.7
			C424.6,746.8,386,749.5,370.9,772.4z"/>
		<path class="st3" d="M656.3,794.5c3.1,15.2-3.5,31.9-12.8,46.8c2.5-2,4.9-4.1,7-6.2c8.7-14,18.1-35.9,10.9-53.6
			c-14.1-34.5-67.6-36.3-67.6-36.3C609.2,750.2,649.8,762.8,656.3,794.5z"/>
		<path class="st3" d="M487.9,343.4c-28.3-29.4-47.1-36.5-63.7-26.4c-15.7,9.6-22.2,35.4-35.8,35.4c-13.6,0-24.3-21.8-43.7-25.6
			c-34.3-6.8-76.3,24.8-73.5,53.9c2.6,27.2,33.2,37.7,20.7,55.4c-4.4,6.3-7.4,18.9-9.6,31.6c-1,9.7-0.6,21.4,2.5,35.5
			c9.4,43,39.7,49,54.3,53.1c3.9,1.1,9.3,2.5,15,3.9c-3.4-9.1-5.7-18.7-7.4-27.8c-2.7-0.1-5.5-0.5-8-1.6c-6.3-2.8-17-26.1-9.4-38.2
			c3.5-5.6,7.8-6,11.4-4.8c-5.9-32.9-18.9-61.3-18.9-61.3s22.8-3.5,32.4-16.9c6.8-9.4,4.5-26.6,9.9-31.1c5.5-4.5,27.7,11.7,56.3,2.3
			c22.4-7.4,21.4-45.6,27.9-48.6c6.4-3,22.6,33.2,67.1,32.5c15.5-0.2,26.5-6.1,34.5-12.6c3.3-2.9,8.6-8.3,12.6-12.4l0.5-0.7
			C563,338.9,516.1,372.8,487.9,343.4z"/>
	</g>
	<g>
		<path class="st13" d="M411.9,861.1l-2.9,11.8l-1.5-0.4l2.9-11.8L411.9,861.1z"/>
		<path class="st13" d="M413.1,867.3c0.2-0.9,0.3-1.6,0.5-2.3l1.4,0.3l-0.2,1.4l0,0c0.6-0.7,1.8-1.3,3.2-1c1.2,0.3,2.8,1.4,2.2,4.3
			l-1.2,5.1l-1.5-0.4l1.1-4.9c0.3-1.4,0.1-2.6-1.4-3c-1-0.2-2,0.3-2.4,1.1c-0.1,0.2-0.2,0.4-0.3,0.7l-1.2,5.1l-1.5-0.4L413.1,867.3z
			"/>
		<path class="st13" d="M421.4,874c0.4,0.4,1.1,0.9,1.9,1c1.1,0.2,1.8-0.2,1.9-0.9c0.2-0.7-0.2-1.2-1.3-1.9c-1.4-0.9-2-1.9-1.7-2.9
			c0.3-1.4,1.6-2.3,3.5-1.9c0.9,0.2,1.6,0.6,2,1l-0.6,1c-0.3-0.3-0.8-0.7-1.6-0.9c-0.9-0.2-1.5,0.2-1.7,0.9
			c-0.1,0.7,0.3,1.1,1.3,1.8c1.4,0.9,2,1.8,1.7,3c-0.3,1.5-1.7,2.3-3.7,1.9c-0.9-0.2-1.7-0.6-2.3-1.1L421.4,874z"/>
		<path class="st13" d="M429.2,871.3c0.2-1.1,0.3-2,0.5-2.8l1.4,0.3l-0.2,1.5l0,0c0.8-0.9,2-1.4,3.4-1.1c2.1,0.4,3.3,2.4,2.8,5
			c-0.6,3.1-2.7,4.2-4.8,3.9c-1.1-0.2-2-0.9-2.4-1.8l0,0l-0.9,4.7l-1.5-0.3L429.2,871.3z M430.3,873.9c0,0.2,0,0.4,0,0.7
			c0.1,1.1,0.9,2.1,2,2.3c1.6,0.3,2.9-0.9,3.2-2.8c0.3-1.7-0.3-3.4-1.9-3.7c-1.1-0.2-2.2,0.4-2.7,1.5c-0.1,0.2-0.2,0.4-0.2,0.6
			L430.3,873.9z"/>
		<path class="st13" d="M438,878.9l1.5-8.6l1.6,0.3l-1.5,8.6L438,878.9z M441.6,868.2c-0.1,0.5-0.5,0.9-1.2,0.8
			c-0.5-0.1-0.9-0.6-0.8-1.1c0.1-0.5,0.6-0.9,1.1-0.8C441.4,867.2,441.7,867.7,441.6,868.2z"/>
		<path class="st13" d="M443,873.7c0.2-1,0.3-1.9,0.4-2.7l1.4,0.2l-0.2,1.7l0.1,0c0.6-1.1,1.6-1.7,2.7-1.5c0.2,0,0.3,0.1,0.4,0.1
			l-0.2,1.5c-0.2-0.1-0.3-0.1-0.5-0.1c-1.1-0.2-2,0.5-2.4,1.7c-0.1,0.2-0.1,0.5-0.2,0.7l-0.7,4.6l-1.5-0.2L443,873.7z"/>
		<path class="st13" d="M449,876.6c-0.3,2.1,0.9,3.2,2.5,3.4c1.1,0.2,1.8,0.1,2.4-0.1l0.1,1.2c-0.6,0.2-1.6,0.3-2.9,0.1
			c-2.7-0.4-4-2.4-3.6-5s2.2-4.4,4.7-4.1c2.8,0.4,3.2,3,3,4.6c0,0.3-0.1,0.6-0.2,0.7L449,876.6z M453.8,876.1c0.2-1,0-2.6-1.8-2.9
			c-1.6-0.2-2.5,1.1-2.8,2.2L453.8,876.1z"/>
		<path class="st13" d="M465.4,870l-1.3,10.5c-0.1,0.8-0.2,1.6-0.2,2.2l-1.4-0.2l0.1-1.5l0,0c-0.6,0.9-1.7,1.5-3.2,1.3
			c-2.1-0.3-3.5-2.2-3.1-4.9c0.3-2.9,2.3-4.4,4.5-4.2c1.3,0.2,2.1,0.9,2.4,1.6l0,0l0.6-5.2L465.4,870z M462.9,877.4
			c0-0.2,0-0.5,0-0.7c-0.1-1-0.9-2-2-2.1c-1.6-0.2-2.8,1.1-3,3c-0.2,1.8,0.5,3.3,2.1,3.5c1.1,0.1,2.1-0.4,2.5-1.6
			c0.1-0.2,0.1-0.4,0.2-0.7L462.9,877.4z"/>
		<path class="st13" d="M469.9,883.4c0.1-0.6,0.2-1.5,0.3-2.2l1-10.5l1.6,0.1l-0.5,5.5l0,0c0.6-0.9,1.7-1.5,3.1-1.3
			c2.1,0.2,3.5,2.1,3.2,4.8c-0.3,3.1-2.4,4.5-4.3,4.3c-1.3-0.1-2.2-0.7-2.7-1.9l-0.1,0l-0.2,1.4L469.9,883.4z M471.8,880
			c0,0.2,0,0.4,0,0.6c0.2,1.1,1,2,2.2,2.1c1.6,0.2,2.8-1.1,2.9-3.1c0.2-1.7-0.6-3.3-2.3-3.5c-1.1-0.1-2.1,0.5-2.6,1.7
			c-0.1,0.2-0.1,0.4-0.2,0.6L471.8,880z"/>
		<path class="st13" d="M481,875.6l1.5,5.3c0.2,0.6,0.3,1.3,0.4,1.8l0,0c0.2-0.5,0.4-1.2,0.7-1.8l2.1-5l1.7,0.1l-2.8,6
			c-1.4,2.9-2.2,4.4-3.4,5.2c-0.8,0.6-1.6,0.8-2,0.9l-0.3-1.4c0.4-0.1,0.9-0.3,1.4-0.7c0.5-0.3,1-0.9,1.5-1.7
			c0.1-0.2,0.1-0.3,0.2-0.4c0-0.1,0-0.2-0.1-0.4l-2.6-8.3L481,875.6z"/>
		<path class="st13" d="M500.4,885.1c-0.6,0.3-1.8,0.5-3.2,0.4c-3.4-0.2-5.9-2.4-5.7-6.4c0.2-3.8,2.9-6.3,6.6-6.1
			c1.5,0.1,2.4,0.4,2.8,0.7l-0.4,1.3c-0.6-0.3-1.4-0.6-2.4-0.6c-2.8-0.1-4.8,1.6-5,4.8c-0.1,3,1.5,5,4.4,5.1c1,0,1.9-0.1,2.6-0.4
			L500.4,885.1z"/>
		<path class="st13" d="M502.4,872.8l1.6,0l-0.1,5.4l0,0c0.3-0.4,0.7-0.8,1.2-1.1c0.5-0.3,1-0.4,1.6-0.4c1.2,0,3,0.8,2.9,3.8
			l-0.1,5.2l-1.6,0l0.1-5c0-1.4-0.5-2.6-1.9-2.6c-1,0-1.9,0.7-2.2,1.5c-0.1,0.2-0.1,0.4-0.1,0.8l-0.1,5.3l-1.6,0L502.4,872.8z"/>
		<path class="st13" d="M513.9,874.6c0,0.5-0.4,1-1,1c-0.6,0-0.9-0.4-0.9-1c0-0.6,0.4-1,1-1C513.5,873.6,513.9,874.1,513.9,874.6z
			 M511.9,885.8l0.1-8.7l1.6,0l-0.1,8.7L511.9,885.8z"/>
		<path class="st13" d="M516.3,885.8c0-0.6,0-1.5,0-2.3l-0.2-10.5l1.6,0l0.1,5.5l0,0c0.5-1,1.5-1.6,2.9-1.6c2.2,0,3.7,1.7,3.7,4.4
			c0,3.1-1.9,4.7-3.8,4.7c-1.3,0-2.3-0.5-2.9-1.6l-0.1,0l0,1.4L516.3,885.8z M517.8,882.3c0,0.2,0,0.4,0.1,0.6
			c0.3,1.1,1.3,1.8,2.4,1.8c1.7,0,2.6-1.4,2.6-3.4c0-1.7-0.9-3.2-2.6-3.2c-1.1,0-2.1,0.8-2.4,2c0,0.2-0.1,0.4-0.1,0.7L517.8,882.3z"
			/>
		<path class="st13" d="M528,874.5c0,0.5-0.4,1-1,1c-0.6,0-1-0.4-1-1c0-0.6,0.4-1,1-1C527.7,873.5,528,873.9,528,874.5z
			 M526.5,885.7l-0.2-8.7l1.6,0l0.2,8.7L526.5,885.7z"/>
		<path class="st13" d="M530.3,879.3c0-0.9-0.1-1.6-0.2-2.4l1.4-0.1l0.1,1.4l0.1,0c0.5-0.8,1.2-1.7,2.7-1.7c1.2,0,2.1,0.6,2.5,1.6
			l0,0c0.2-0.5,0.6-0.9,0.9-1.2c0.5-0.4,1.1-0.7,1.9-0.7c1.1,0,2.9,0.6,3,3.7l0.2,5.1l-1.5,0.1l-0.2-4.9c-0.1-1.7-0.7-2.7-2-2.6
			c-0.9,0-1.6,0.7-1.8,1.5c-0.1,0.2-0.1,0.5-0.1,0.8l0.2,5.4l-1.5,0.1l-0.2-5.2c-0.1-1.4-0.7-2.4-1.9-2.3c-1,0-1.7,0.9-1.9,1.7
			c-0.1,0.2-0.1,0.5-0.1,0.8l0.2,5.3l-1.5,0.1L530.3,879.3z"/>
		<path class="st13" d="M550.1,884.7l-0.2-1.1l-0.1,0c-0.4,0.7-1.3,1.4-2.6,1.5c-1.8,0.1-2.7-1.1-2.8-2.3c-0.1-2.1,1.7-3.4,5-3.6
			l0-0.2c0-0.7-0.3-2-2.1-1.9c-0.8,0.1-1.6,0.4-2.2,0.8l-0.4-1c0.7-0.5,1.7-0.9,2.8-1c2.7-0.2,3.4,1.6,3.5,3.3l0.2,3.3
			c0,0.8,0.1,1.5,0.3,2.1L550.1,884.7z M549.6,880.2c-1.7,0.1-3.7,0.5-3.5,2.2c0.1,1,0.8,1.5,1.6,1.4c1.1-0.1,1.8-0.8,2-1.6
			c0-0.2,0.1-0.3,0.1-0.5L549.6,880.2z"/>
		<path class="st13" d="M553.4,878.4c-0.1-1-0.2-1.9-0.3-2.7l1.4-0.1l0.2,1.7l0.1,0c0.3-1.2,1.2-2,2.2-2.1c0.2,0,0.3,0,0.5,0
			l0.1,1.5c-0.2,0-0.3,0-0.5,0c-1.1,0.1-1.8,1-1.9,2.2c0,0.2,0,0.5,0,0.7l0.4,4.6l-1.6,0.1L553.4,878.4z"/>
		<path class="st13" d="M566.6,880.8c0.1,0.9,0.2,1.7,0.3,2.4l-1.4,0.1l-0.2-1.4l0,0c-0.3,0.7-1.2,1.7-2.7,1.9
			c-1.4,0.1-3.1-0.5-3.4-3.5l-0.5-5.1l1.6-0.2l0.5,4.8c0.2,1.7,0.8,2.7,2.2,2.6c1.1-0.1,1.7-0.9,1.9-1.6c0.1-0.2,0.1-0.5,0.1-0.8
			l-0.5-5.3l1.6-0.2L566.6,880.8z"/>
		<path class="st13" d="M570.2,878.1L570.2,878.1c0.2-0.3,0.5-0.7,0.7-1.1l2.2-3.3l1.9-0.2l-2.9,4l4.4,4.7l-1.9,0.2l-3.5-3.8l-0.7,1
			l0.4,3.3l-1.6,0.2l-1.5-12.7l1.6-0.2L570.2,878.1z"/>
		<path class="st13" d="M584.6,876.5c0.4,3.2-1.6,4.9-3.7,5.2c-2.3,0.3-4.4-1.1-4.7-3.9c-0.4-2.9,1.3-4.8,3.6-5.2
			C582.4,872.3,584.3,873.8,584.6,876.5z M577.8,877.5c0.3,1.9,1.5,3.2,3.1,3c1.5-0.2,2.4-1.8,2.2-3.7c-0.2-1.5-1.2-3.2-3-3
			C578.2,874.1,577.6,875.9,577.8,877.5z"/>
		<path class="st13" d="M593.2,879.3c-0.4,0.3-1.2,0.7-2.4,0.9c-2.6,0.4-4.6-1.1-5-3.7c-0.4-2.7,1.1-4.9,3.9-5.3
			c0.9-0.1,1.8,0,2.2,0.1l-0.2,1.3c-0.4-0.2-1-0.3-1.9-0.1c-2,0.3-2.8,1.9-2.5,3.7c0.3,2,1.8,3,3.5,2.8c0.9-0.1,1.4-0.5,1.9-0.7
			L593.2,879.3z"/>
		<path class="st13" d="M592.6,866.7l1.6-0.3l1,5.4l0,0c0.2-0.5,0.5-0.9,0.9-1.3c0.4-0.3,0.9-0.6,1.5-0.7c1.2-0.2,3.1,0.2,3.6,3.1
			l0.9,5.1l-1.6,0.3l-0.9-4.9c-0.2-1.4-1-2.5-2.4-2.2c-1,0.2-1.7,1-1.8,1.9c-0.1,0.2,0,0.5,0,0.8l0.9,5.2l-1.6,0.3L592.6,866.7z"/>
		<path class="st13" d="M609.3,876.7l-0.3-1.1l-0.1,0c-0.3,0.8-1.1,1.5-2.4,1.8c-1.7,0.3-2.9-0.7-3.1-1.9c-0.4-2.1,1.2-3.6,4.5-4.2
			l0-0.2c-0.1-0.7-0.6-1.9-2.3-1.6c-0.8,0.2-1.6,0.6-2.1,1.1l-0.6-1c0.6-0.6,1.6-1.1,2.7-1.3c2.6-0.5,3.6,1.1,3.9,2.9l0.6,3.2
			c0.1,0.7,0.3,1.5,0.5,2L609.3,876.7z M608.2,872.3c-1.7,0.3-3.6,1-3.2,2.6c0.2,1,1,1.4,1.8,1.2c1.1-0.2,1.7-1.1,1.8-1.8
			c0-0.2,0-0.4,0-0.5L608.2,872.3z"/>
		<path class="st13" d="M611.5,869.7c-0.2-0.9-0.4-1.6-0.6-2.3l1.4-0.3l0.4,1.4l0,0c0.2-0.9,1.1-1.9,2.5-2.2c1.2-0.3,3.2,0,3.8,3
			l1.1,5.1l-1.5,0.3l-1.1-4.9c-0.3-1.4-1.1-2.4-2.5-2.1c-1,0.2-1.7,1.1-1.7,2c0,0.2,0,0.5,0.1,0.7l1.1,5.1l-1.5,0.3L611.5,869.7z"/>
	</g>
</g>
</svg>
