<?xml version="1.0" encoding="utf-8"?>
<!-- Generator: Adobe Illustrator 19.2.0, SVG Export Plug-In . SVG Version: 6.00 Build 0)  -->
<svg version="1.1" xmlns="http://www.w3.org/2000/svg" xmlns:xlink="http://www.w3.org/1999/xlink" x="0px" y="0px"
	 viewBox="0 0 1000 1000" style="enable-background:new 0 0 1000 1000;" xml:space="preserve">
<style type="text/css">
	.st0{fill:#F72449;}
	.st1{fill:#FF716C;}
	.st2{fill:#FFFFFF;}
	.st3{fill:#00D49C;}
	.st4{fill:#A3F2C0;}
</style>
<g id="template">
</g>
<g id="Layer_2">
	<path class="st0" d="M851.1,716.8H335.7c-16.4,0-29.8-13.4-29.8-29.8V358.8c0-16.4,13.4-29.8,29.8-29.8h515.3
		c16.4,0,29.8,13.4,29.8,29.8v328.2C880.8,703.4,867.4,716.8,851.1,716.8z"/>
	<path class="st1" d="M832.9,697.8H328.8c-16.4,0-29.8-13.4-29.8-29.8V350.8c0-16.4,13.4-29.8,29.8-29.8h504.1
		c16.4,0,29.8,13.4,29.8,29.8v317.3C862.7,684.4,849.3,697.8,832.9,697.8z"/>
	<path class="st2" d="M705,295v276.9c0,17.8-15.3,32.1-33.5,32.1H241v24h461.7c18.2,0,33.3-14.5,33.3-32.3V295H705z"/>
	<path class="st3" d="M688.3,613.5H166.6c-16.4,0-29.8-13.4-29.8-29.8V244.5c0-16.4,13.4-29.8,29.8-29.8h521.7
		c16.4,0,29.8,13.4,29.8,29.8v339.3C718.1,600.1,704.7,613.5,688.3,613.5z"/>
	<path class="st4" d="M670.4,597H157.6c-16.4,0-29.8-13.4-29.8-29.8V236.8c0-16.4,13.4-29.8,29.8-29.8h512.8
		c16.4,0,29.8,13.4,29.8,29.8v330.5C700.2,583.6,686.8,597,670.4,597z"/>
	<g>
		<path class="st0" d="M279.6,382.1l0.1,4.1v0.5c0,1.8-0.6,2.5-1.6,2.5c-1.4,0-5.7-1.8-5.7-4.5c0-0.2,0.1-0.5,0.1-0.7
			c0.2-1.4,0.3-2.8,0.3-4.6v-2l-1.6-59.1c-0.1-2.1-0.7-4.8-1.6-6.5c-0.4-0.8-0.7-1.5-0.7-2c0-0.5,0.3-0.8,1.1-0.8
			c1.2,0,3.5,0.7,7.4,2.5l44.1-2.3h0.7c1.8,0,4.9,1.6,4.9,3.8c0,0.8-0.4,1.4-0.5,2.1l-2.8,59.5c2,2.5,2.8,4,2.8,4.8
			c0,1.1-1.4,1.1-3.2,1.2L279.6,382.1z M319.7,315.3l-42,2.2l0.7,25.4l40.3-2L319.7,315.3z M318.5,347l-39.9,1.8l0.8,27.3l38-1.2
			L318.5,347z"/>
		<path class="st0" d="M401.4,369.6v18.7c0,1.9-0.8,2.7-2,2.7c-0.6,0-1.3-0.2-2.1-0.6c-1.8-0.9-3-1.9-3-3.5c0-0.2,0-0.4,0.1-0.7
			c0.4-2,0.7-4.1,0.7-6.2v-10.1l-12.1,0.5h-1.8c-1.8,0-2.9-0.2-3.7-1c-1.1-1.1-2-3-2.2-4.1c-0.1-0.2-0.1-0.4-0.1-0.6
			s0.1-0.4,0.4-0.4c0.1,0,0.3,0,0.5,0.1c1.2,0.3,2.5,0.5,3.8,0.5c0.6,0,1.2-0.1,1.7-0.1l13.5-0.5v-30.5
			c-17.5,30.3-40.1,41.7-42.5,41.7c-0.6,0-0.9-0.2-0.9-0.7s0.5-1.2,1.6-2.1c12.3-9.2,27.1-24.4,38.5-44.6l-21.4,1.2
			c-1.2,0.1-2.2,0.1-3,0.1c-1.5,0-4.5,0-6.2-4.6c-0.1-0.3-0.2-0.6-0.2-0.8c0-0.5,0.3-0.7,0.8-0.7c0.1,0,0.4,0,0.6,0.1
			c1.2,0.3,2.6,0.4,4.1,0.4h1.5l27.1-1.5v-17.5c0-1.6-0.5-3.2-1.3-4.3c-0.3-0.5-0.5-0.9-0.5-1.2c0-0.5,0.4-0.7,1.2-0.7
			c0.1,0,6.9,0.5,6.9,3.7v19.6l24.7-1.4c1.3-0.1,3-0.3,4.4-0.8c0.3-0.1,0.6-0.2,0.9-0.2c2,0,5.9,3.7,5.9,4.9c0,0.8-1.1,1.2-2.5,1.3
			l-30.8,1.7c12.4,16.4,25.6,31.2,42.4,39.8c0.9,0.5,1.4,0.9,1.4,1.3c0,0.7-4,3.6-5.7,3.6c-0.7,0-1.2-0.4-1.9-0.8
			c-15.9-10.4-28.1-22.4-38.8-39.1V364l10.8-0.4c1.9-0.1,3-0.4,4.3-0.9c0.4-0.1,0.8-0.2,1.1-0.2c2.8,0,5.4,3.3,5.4,4.5
			c0,1-0.9,1.7-2.6,1.8L401.4,369.6z"/>
		<path class="st0" d="M459.6,326.5c-1.2,0.1-2.1,0.1-2.9,0.1c-1.1,0-1.8-0.1-2.2-0.5c-2.8-2.4-3.1-4.2-3.1-4.8
			c0-0.4,0.2-0.6,0.6-0.6c0.2,0,0.4,0,0.7,0.1c1.1,0.3,2.1,0.4,3.2,0.4c0.6,0,1.1-0.1,1.7-0.1l24.4-1.4c1.2-0.2,2.7-0.4,4.1-1
			c0.3-0.1,0.5-0.2,0.9-0.2c1.5,0,5.2,2.7,5.2,4.5c0,0.9-0.8,1.4-2,1.5L459.6,326.5z M467.2,384.1l0.1,1.3v0.3
			c0,1.5-0.7,2.2-1.9,2.2c-0.2,0-4.7-0.4-4.7-3.7v-0.6c0.1-1.3,0.2-2.6,0.2-3.8v-1.2l-1-13c-0.2-2.2-0.7-4.1-1.5-5.5
			c-0.5-0.8-0.8-1.5-0.8-1.9c0-0.4,0.2-0.6,0.9-0.6c1.1,0,3.3,0.6,7.3,2.1l15.6-0.8h0.9c1.5,0,4.4,1.6,4.4,3.5
			c0,0.7-0.5,1.3-0.6,1.9l-1.6,13.8c1.6,2.2,2.3,3.5,2.3,4.3c0,1-1.2,1-2.7,1.1L467.2,384.1z M465.9,338.9c-0.8,0.1-1.6,0.1-2.2,0.1
			c-0.5,0-0.9,0-1.3-0.1c-0.6,0-1.1-0.2-1.4-0.5c-1.1-0.9-2.8-3.4-2.8-4.7c0-0.4,0.2-0.6,0.5-0.6c0.1,0,0.2,0.1,0.4,0.1
			c1.3,0.3,2.5,0.4,3.7,0.4h1.1l13.6-0.9c1.2-0.1,2.3-0.3,3.6-0.7c0.3-0.1,0.5-0.2,0.8-0.2c1.3,0,4.6,2.5,4.6,4.3c0,1-1,1.5-2.1,1.6
			L465.9,338.9z M466,351.4h-2.9c-0.9-0.1-1.5-0.2-2-0.5c-1.5-1.3-2.3-2.8-2.8-4.2c-0.1-0.2-0.1-0.4-0.1-0.6c0-0.3,0.2-0.5,0.5-0.5
			c0.1,0,0.3,0,0.5,0.1c1.3,0.3,2.5,0.4,3.7,0.4h1.1l13.3-0.7c1.2-0.1,2.3-0.3,3.5-0.8c0.3-0.1,0.6-0.2,0.9-0.2
			c1.7,0,4.5,3.1,4.5,4.3c0,1-0.9,1.5-2,1.6L466,351.4z M477.2,316.3c-4.2-2.9-8.5-5.3-12.5-7.1c-1.3-0.6-2.1-1.1-2.1-2
			c0-1.3,1.1-3.3,2.6-3.3c0.8,0,6.2,1.8,15.2,6.6c1.4,0.8,2.1,1.4,2.1,2.4c0,1.4-1.6,4.3-3.2,4.3C478.7,317.2,478,316.8,477.2,316.3
			z M479.8,364.5l-14,0.7l1,13.5l11.9-0.3L479.8,364.5z M493.6,350.3h-0.9c-2,0-2.9-0.3-3.7-1.2c-1.5-1.6-2-3.4-2-4.1
			c0-0.3,0.1-0.5,0.5-0.5c0.1,0,0.3,0,0.6,0.1c1,0.3,2,0.4,3.1,0.4c0.6,0,1.3-0.1,2-0.1l10-0.5l3.5-14.4l-5.4,0.3
			c-0.7,0.1-1.2,0.1-1.8,0.1c-2.4,0-3-0.7-4.1-2.2c-0.5-0.8-0.9-1.7-1.2-2.7c-0.1-0.2-0.1-0.4-0.1-0.6c0-0.2,0.1-0.3,0.4-0.3
			c0.2,0,0.4,0.1,0.7,0.1c1.1,0.2,2.2,0.3,3.3,0.3c0.7,0,1.5-0.1,2.3-0.1l7.2-0.4l2.5-10.5l-11.3,0.7c-0.6,0-1.1,0.1-1.5,0.1
			c-3.4,0-4.8-2.3-5.6-4.9c-0.1-0.2-0.1-0.4-0.1-0.6c0-0.2,0.1-0.4,0.5-0.4c0.2,0,0.4,0,0.7,0.1c1.1,0.2,2.1,0.3,3.4,0.3h1.4
			l31.1-1.9c1.5-0.1,2.4-0.3,3.4-0.6c0.5-0.1,1-0.2,1.3-0.2c1.4,0,5,2.8,5,4.5c0,0.9-1,1.3-2.9,1.4l-19.1,1.1l-2.4,10.5l14.4-0.9
			c0.4,0,0.7-0.1,1-0.1c1.4,0,4.4,1.7,4.4,3.6c0,0.8-0.5,1.4-0.6,2l-2.8,14.4l5.9-0.3c1.5-0.1,2.7-0.3,4.2-0.6
			c0.5-0.1,1-0.2,1.4-0.2c2.2,0,4.6,3.3,4.6,4.4c0,1-1,1.4-2.6,1.5L493.6,350.3z M504.5,383.8l0.3,3.5v0.3c0,1.3-0.5,2.1-1.7,2.1
			c-0.6,0-5.3-1.4-5.3-3.8c0-0.2,0-0.5,0.1-0.9c0.2-1.1,0.3-2.3,0.3-3.5c0-0.7-0.1-1.5-0.1-2.2l-1.1-14.8c-0.2-2.5-0.4-4-1.1-5.6
			c-0.3-0.7-0.5-1.2-0.5-1.6c0-0.4,0.3-0.6,0.9-0.6c1.1,0,3.1,0.6,6.8,2l26.5-1.3h1c2.1,0,4.7,1.8,4.7,3.6c0,0.9-0.7,1.6-0.8,2.4
			l-2.3,14.3c1.8,2.4,2.5,3.7,2.5,4.4c0,0.9-1.1,0.9-2.7,1L504.5,383.8z M527.9,362.9l-24.8,1.2l1,14.3l22-0.6L527.9,362.9z
			 M527.1,328.7l-14.1,0.9l-3.4,14.5l15-0.7L527.1,328.7z"/>
	</g>
	<g>
		<path class="st1" d="M312.6,436.3c0-0.2-0.1-0.5-0.1-0.8c-0.1-0.4-0.5-0.7-0.5-1.1v-0.1c0.1-0.2,0.4-0.4,1-0.4
			c0.7,0,3.6,0.3,3.6,2c0,0.5-0.1,1-0.2,1.4c-1.1,7-2.9,19.4-2.9,27.1c0,0.9,0,1.7,0.1,2.4c1-2.2,2.9-5.4,3.3-6.3
			c0.4-0.9,0.8-1.3,1.1-1.3c0.2,0,0.5,0.3,0.5,0.9c0,0.4-0.1,0.8-0.2,1.4c-0.3,1.4-2.7,11.5-3,12.7c-0.3,0.9-1,1.2-1.7,1.2
			c-1.1,0-3.5-0.1-3.5-11.2c0-9.4,1.9-21.9,2.6-27.6V436.3z M343.6,437.9c1.6,0.1,2.4,1.4,2.4,2.5c0,0.8-0.4,1.6-1.3,1.6
			c-3.5,0-13.3,0.9-17.2,1.7c-1,0.2-1.9,0.3-2.5,0.3c-0.7,0-1.1-0.1-1.1-0.4c0-0.4,0.8-1.1,2.6-2c3.4-1.8,14.6-3.6,17.1-3.6H343.6z
			 M345.2,471.8c-6.2,0-17.7-3-19.9-9c-0.3-0.7-0.4-1.3-0.4-1.7c0-0.5,0.2-0.8,0.5-0.8c0.4,0,1,0.4,1.6,1.1c3.2,4.2,14.1,5.8,17.4,6
			h0.2c0.5,0,1.1-0.2,1.6-0.2h0.2c0.5,0.1,2.6,1.3,2.6,2.7c0,0.1-0.1,0.2-0.1,0.4c-0.2,1.2-0.7,1.3-2.9,1.4H345.2z"/>
		<path class="st1" d="M372.2,460.1c0.3,0.1,0.4,0.5,0.4,0.9c0,0.8-3.4,13.1-3.6,13.7c-0.2,1-1,1.3-1.7,1.3c-1.6,0-3.3-0.1-3.3-13.7
			v-2c0.2-6.1,2.3-22.7,2.4-23.6c0.1-0.2,0.1-0.3,0.1-0.5c0-0.2,0-0.4-0.1-0.7c-0.1-0.7-0.7-1.4-0.7-1.7v-0.1
			c0.1-0.2,0.2-0.2,0.5-0.2c0.1,0,3.9,0.2,3.9,2.4c0,0.4-0.1,0.7-0.1,1c-1.4,8.2-2.7,21.1-2.7,28.6c0,0.8,0,1.6,0.1,2.3
			c1.4-2.6,3.3-6.3,3.6-7c0.2-0.5,0.5-0.8,0.9-0.8H372.2z M384.9,475c-5.7,0-8.5-2.6-8.5-5.4v-0.1c0.1-2.9,2.9-5.7,8.2-5.7h0.3
			c2.3,0.1,4.8,0.4,7,1c0.2-1,0.2-2.1,0.2-3.2l-0.2-10.8c-2.2,0.3-4.2,0.5-5.4,0.5c-4.2,0-7.6-1.2-7.6-3c0-0.2,0.1-0.4,0.2-0.6
			c0.1-0.2,0.4-0.2,0.7-0.2c0.5,0,1.2,0.2,1.4,0.3c0.5,0.2,1.6,0.4,3.1,0.4c1.5,0,3.4,0,7.6-0.7c-0.1-3.3-0.1-6.2-0.2-7.6
			c-0.1-0.5-1-1.2-1-1.8c-3,0.5-5.8,1.1-8.7,1.6c-0.7,0.1-1.3,0.3-1.8,0.3c-1.5,0-3-2.1-3-3c0-0.2,0.1-0.4,0.3-0.4
			c0.1,0,0.1-0.1,0.2-0.1c0.4,0,1.1,0.4,1.6,0.4h0.1c2.9-0.2,12.5-2.5,19.3-2.9c0.8,0,1.3-0.5,2-0.5c0.1,0,0.2,0.1,0.4,0.1
			c1.3,0.2,2.2,1.1,2.5,2c0,0.1,0.1,0.2,0.1,0.3c0,0.8-0.8,1.2-2.1,1.3c-2.9,0.1-5.5,0.3-8.1,0.7c1.3,0.3,1.6,0.6,1.6,1.8
			c0,0.5,0.1,3.6,0.2,7.4c2-0.4,3.6-0.8,4.1-1c0.7-0.3,0.9-0.8,1.6-0.8h0.2c1.4,0,2.9,1,3.1,1.9c0,0.1,0.1,0.2,0.1,0.4
			c0,0.8-0.7,1.7-8.9,3c0.1,4.4,0.2,8.8,0.4,11.1c0,0.6,0.1,1.2,0.1,1.8c0,0.9-0.1,1.8-0.2,2.7c1.4,0.5,9.7,4.4,9.7,6.8
			c0,0.4-0.1,0.9-0.4,1.4c-0.3,0.6-0.8,1.1-1.5,1.1c-0.4,0-1-0.3-1.6-1c-1.6-1.8-4.4-3.7-7.4-5.1c-1.7,3.6-4.7,5.6-9,5.7H384.9z
			 M384.4,471.7c2.6,0,5.4-1.1,6.6-3.8c-2.2-0.8-4.2-1-6.3-1h-0.2c-2.7,0-4.8,0.9-4.8,2.5v0.1c0,1.1,2.3,2.1,4.5,2.2H384.4z"/>
		<path class="st1" d="M418,468.8c-1,1.3-2.1,4.2-2.4,5.1c-0.2,0.8-1.3,1.7-2.1,1.7c-0.9,0-1.7-1.8-1.7-3c0-0.3,0.1-0.7,0.2-1
			c0.2-0.7,0.6-0.8,0.9-1.5c0.1-0.2,15.7-34.9,15.7-35.8c0-0.7-0.6-1.4-0.6-1.8c0-0.1,0.1-0.2,0.1-0.3c0.2-0.2,0.4-0.3,0.7-0.3
			c0.8,0,3.9,1,3.9,2.7c0,0.6-0.2,1.2-0.6,1.8c-0.7,1.4-8.1,16.5-11.8,24.7c2.2-2.3,6.1-6.5,7.6-7.9c0.4-0.4,1-0.5,1.4-0.5
			c1.4,0,2.8,1.3,2.8,2.3c0,0.2-0.1,0.3-0.1,0.5c-0.1,0.2-0.2,0.4-0.2,0.7c-0.1,0.7-0.1,1.4-0.1,2.3c0,4.9,1.5,12.8,7.4,12.8
			c8,0,14.7-12.2,16.4-15.8c0.8-1.6,1.4-2.5,1.7-2.5c0.2,0,0.3,0.2,0.3,0.8c0,4.9-7.1,21.3-18.4,21.3c-9.2,0-11-11.4-11-17.5
			C425.9,459.6,420.8,464.9,418,468.8z"/>
		<path class="st1" d="M497.9,469.9c1,0,3.3,1,3.5,2.3c0,0.1,0.1,0.2,0.1,0.4c0,1.5-1.1,2.1-7.9,2.1c-6.1,0-14.6-0.8-19.7-3.3
			c-6.1-2.9-6.8-7.8-6.8-8.9c0-0.9,0.4-1.3,1.2-1.4h0.2c0.5,0,0.7,0.3,1.1,1.3c2.3,4.9,7.6,8.1,21.3,8.1c2.1,0,3.9-0.1,5.2-0.2
			c0.6,0,1.1-0.4,1.7-0.4H497.9z M471.2,440.3c-1.1,0-1.6-0.2-1.6-1.1v-0.1c0.1-1.1,0.4-1.5,2.1-1.7c2.5-0.3,5.1-0.4,7.8-0.4
			c5.7,0,11.2,0.7,14.8,2c0.7,0.2,1.7,0.6,1.7,2c0,0.2,0,0.3-0.1,0.4c-0.1,0.6-0.4,1-1,1.3c-3.6,1.9-9.5,4.8-10.1,5
			c-0.7,0.2-1.1,0.4-1.4,0.4c-0.3,0-0.5-0.1-0.5-0.3c0-0.4,0.6-1.1,1.9-2.1c1.6-1.3,3.4-2.7,4.8-4.1c-4-1-8.9-1.4-14.4-1.4
			c-1.3,0-2.5,0-3.8,0.1H471.2z M502,442.6c-0.4,0-0.8-0.2-1.1-0.7c-1-1.6-3.5-4.5-4.7-5.5c-0.3-0.2-0.4-0.5-0.4-0.8
			c0-0.8,0.8-1.5,1.6-1.5c1.3,0,6.6,5.7,6.6,6.9C504,441.9,503,442.6,502,442.6z M506.5,439.4c-0.4,0-0.8-0.2-1.1-0.6
			c-0.7-1.1-3.6-4.5-4.9-5.5c-0.2-0.2-0.4-0.5-0.4-0.7c0-0.7,0.7-1.4,1.6-1.4c0.4,0,0.8,0.1,1.1,0.4c0.3,0.2,5.6,4.6,5.6,6
			c0,0.5-0.2,0.9-0.5,1.3C507.7,439.1,507.1,439.4,506.5,439.4z"/>
	</g>
	<g>
		<path class="st1" d="M320.1,500.4c0-2-0.1-4-0.1-5.1c0-0.3,0.4-0.5,1-0.5c1.1,0,2.6,0.5,2.6,1.3c0,0.8-0.1,2.6-0.1,4.2v19.6
			c0,7.3-4.1,9.3-8.4,9.3c-6.6,0-9.2-5.6-9.2-6.6c0-1.2,1.6-2.4,2.5-2.4c0.3,0,0.6,0.2,0.6,0.5c1.1,5.3,5.1,5.4,5.9,5.4
			c2.6,0,5.2-1.2,5.2-6.3V500.4z"/>
		<path class="st1" d="M352,506.7c-0.4,2.8-0.6,10.3-0.6,12.6c0,1.4,0,5,1.7,7.5c0,0.1,0.1,0.2,0.1,0.3c0,0.7-1.1,2-2.1,2
			c-1.5,0-2.3-3.6-2.6-6.3c-2.4,4.5-5.9,6.5-9.5,6.5c-4.6,0-7.7-3.2-7.7-9.2c0-8.1,5.9-14.8,11.8-14.8c2.2,0,4.2,1,5.3,3.2v-2.6
			c0-0.3,0.4-0.5,1-0.5C350.5,505.4,352,505.8,352,506.7L352,506.7z M347.5,510.8c-0.1,0-0.2,0-0.3-0.2c-1.1-1.8-2.6-2.5-4.1-2.5
			c-3.9,0-8.5,5.1-8.5,11.8c0,4.8,1.9,6.6,4.4,6.6c4.5,0,8.9-4.8,9.3-11.9c0-0.9,0-2.7,0.1-4.2C348.1,510.6,347.8,510.8,347.5,510.8
			z"/>
		<path class="st1" d="M360.5,510.9c0-2-0.1-3.9-0.1-5c0-0.3,0.4-0.5,0.9-0.5c1.1,0,2.6,0.5,2.6,1.3c0,0.6-0.1,3-0.2,4.1
			c2.5-4.3,5.5-5.6,9-5.6c4.8,0,8.2,3.4,8.2,9.9c0,8.1-5,14.1-11.4,14.1c-2.2,0-4.8-1.3-5.8-2.6v4.5c0,2,0.2,4,0.2,5.1
			c0,0.3-0.4,0.5-1,0.5c-1,0-2.5-0.5-2.5-1.3c0-0.8,0.1-2.6,0.1-4.2V510.9z M364,523.6c0.3,0,0.7,0.2,1,0.8c1.2,1.8,2.7,2.2,4.3,2.2
			c3.4,0,8.3-4.1,8.3-11.2c0-5-2.5-7.2-4.9-7.2c-4.1,0-7.6,3.4-8.7,8.3c-0.3,1.6-0.4,5.2-0.4,7.3C363.7,523.6,363.9,523.6,364,523.6
			z"/>
		<path class="st1" d="M406.8,506.7c-0.4,2.8-0.6,10.3-0.6,12.6c0,1.4,0,5,1.7,7.5c0,0.1,0.1,0.2,0.1,0.3c0,0.7-1.1,2-2.1,2
			c-1.5,0-2.3-3.6-2.6-6.3c-2.4,4.5-5.9,6.5-9.5,6.5c-4.6,0-7.7-3.2-7.7-9.2c0-8.1,5.9-14.8,11.8-14.8c2.2,0,4.2,1,5.3,3.2v-2.6
			c0-0.3,0.4-0.5,1-0.5C405.3,505.4,406.8,505.8,406.8,506.7L406.8,506.7z M402.3,510.8c-0.1,0-0.2,0-0.3-0.2
			c-1.1-1.8-2.6-2.5-4.1-2.5c-3.9,0-8.5,5.1-8.5,11.8c0,4.8,1.9,6.6,4.4,6.6c4.5,0,8.9-4.8,9.3-11.9c0-0.9,0-2.7,0.1-4.2
			C402.9,510.6,402.5,510.8,402.3,510.8z"/>
		<path class="st1" d="M431.3,527.7c0-0.8,0.1-3.6,0.1-4.7v-8.5c0-3.7-0.8-6.2-3.9-6.2c-3.3,0-6.9,1.7-8.3,6.5
			c-0.7,2.4-0.7,6.4-0.8,8.7v0.8c0,1.5,0.1,3.1,0.1,4.3c0,0.3-0.4,0.5-0.9,0.5c-1,0-2.5-0.5-2.5-1.3c0-0.8,0.1-4,0.1-4.7v-11.9
			c0-0.9-0.1-4-0.1-5.1c0-0.3,0.4-0.5,0.9-0.5c1,0,2.5,0.5,2.5,1.3c0,0-0.1,2.4-0.1,3.7c2.1-3.3,5.6-5.2,9.1-5.2
			c6.2,0,7.1,5.1,7.1,9v9.2c0,0.6,0.1,4,0.1,5.1c0,0.3-0.4,0.5-0.9,0.5C432.8,529,431.3,528.5,431.3,527.7L431.3,527.7z"/>
		<path class="st1" d="M445,519.2v0.5c0,4.2,2.4,6.9,5.6,6.9c4.1,0,7.5-1.3,10.1-4c0.4-0.5,0.9-0.7,1.1-0.7c0.3,0,0.5,0.2,0.5,0.6
			c0,1.1-3.7,7-11.6,7c-4.9,0-8.7-3.9-8.7-10.2v-0.7c-0.6-0.4-1-1-1-1.5c0-0.3,0.2-0.6,0.9-0.6c0,0,0.3,0,0.4,0
			c0.9-4.6,5.7-11,11.9-11c5.9,0,7.9,3.5,7.9,7c0,3.3-0.3,4.1-4.6,5.4c-2.9,0.9-6.9,1.5-11.9,1.5H445z M446.4,516.5
			c4.7,0,7.8-0.7,9.9-1.2c2.3-0.7,2.7-1.3,2.7-3c0-2.8-1.5-4.2-4.8-4.2c-4.7,0-8,5-8.7,8.4H446.4z"/>
		<path class="st1" d="M474.2,517c-3.6-0.8-5.3-2.5-5.3-5.4c0-3.7,4-6.2,8.7-6.2c3.7,0,5.8,1.1,7.6,3c0.1,0.1,0.1,0.2,0.1,0.4
			c0,0.9-0.8,2.1-1.5,2.1c-0.3,0-0.5-0.2-0.8-0.6c-1.4-2.2-4.3-2.3-5.4-2.3c-3.7,0-5.6,1.6-5.6,3.7c0,1.3,0.6,2.1,3.2,2.8l4.6,1.1
			c4.2,1,6.7,3,6.7,6.9c0,3.8-3.5,7-9.2,7c-7.4,0-9.6-4.3-9.6-4.9c0-1,1.2-2.3,1.9-2.3c0.2,0,0.4,0.1,0.5,0.3
			c0.8,1.9,2.1,4.1,7.2,4.1c3.9,0,6-1.9,6-4.1c0-2.2-0.9-3.5-4.3-4.4L474.2,517z"/>
		<path class="st1" d="M495.3,519.2v0.5c0,4.2,2.4,6.9,5.6,6.9c4.1,0,7.5-1.3,10.1-4c0.4-0.5,0.9-0.7,1.1-0.7c0.3,0,0.5,0.2,0.5,0.6
			c0,1.1-3.7,7-11.6,7c-4.9,0-8.7-3.9-8.7-10.2v-0.7c-0.6-0.4-1-1-1-1.5c0-0.3,0.2-0.6,0.9-0.6c0,0,0.3,0,0.4,0
			c0.9-4.6,5.7-11,11.9-11c5.9,0,7.9,3.5,7.9,7c0,3.3-0.3,4.1-4.6,5.4c-2.9,0.9-6.9,1.5-11.9,1.5H495.3z M496.6,516.5
			c4.7,0,7.8-0.7,9.9-1.2c2.3-0.7,2.7-1.3,2.7-3c0-2.8-1.5-4.2-4.8-4.2c-4.7,0-8,5-8.7,8.4H496.6z"/>
	</g>
</g>
</svg>
