<?xml version="1.0" encoding="utf-8"?>
<!-- Generator: Adobe Illustrator 19.2.0, SVG Export Plug-In . SVG Version: 6.00 Build 0)  -->
<svg version="1.1" id="Layer_2" xmlns="http://www.w3.org/2000/svg" xmlns:xlink="http://www.w3.org/1999/xlink" x="0px" y="0px"
	 viewBox="0 0 1000 1000" style="enable-background:new 0 0 1000 1000;" xml:space="preserve">
<style type="text/css">
	.st0{fill:#3A9B84;}
	.st1{fill:#50BF94;}
	.st2{fill:#00D49C;}
	.st3{fill:#A3F2C0;}
	.st4{fill:#CFFBE2;}
	.st5{fill:none;}
	.st6{fill:#F72449;}
</style>
<ellipse transform="matrix(0.998 -6.283868e-02 6.283868e-02 0.998 -29.7242 30.6841)" class="st0" cx="473" cy="487.9" rx="349.3" ry="349.3"/>
<circle class="st1" cx="473" cy="487.9" r="273.7"/>
<circle class="st2" cx="473" cy="487.9" r="201.4"/>
<circle class="st3" cx="477.3" cy="492.2" r="130.7"/>
<circle class="st4" cx="477.3" cy="492.2" r="68.5"/>
<g id="frame">
	<circle class="st5" cx="472.9" cy="485.8" r="351.9"/>
</g>
<path class="st6" d="M477.3,510.2L477.3,510.2c-12.2,0-22.2-10-22.2-22.2V261.6c0-12.2,10-22.2,22.2-22.2h0
	c12.2,0,22.2,10,22.2,22.2V488C499.5,500.2,489.5,510.2,477.3,510.2z"/>
<path class="st6" d="M708,491.9L708,491.9c0,10.8-8.9,19.7-19.7,19.7H474.8c-10.8,0-19.7-8.9-19.7-19.7v0c0-10.8,8.9-19.7,19.7-19.7
	h213.5C699.1,472.2,708,481.1,708,491.9z"/>
</svg>
