<?xml version="1.0" encoding="utf-8"?>
<!-- Generator: Adobe Illustrator 19.2.0, SVG Export Plug-In . SVG Version: 6.00 Build 0)  -->
<svg version="1.1" id="Layer_2" xmlns="http://www.w3.org/2000/svg" xmlns:xlink="http://www.w3.org/1999/xlink" x="0px" y="0px"
	 viewBox="0 0 1000 1000" style="enable-background:new 0 0 1000 1000;" xml:space="preserve">
<style type="text/css">
	.st0{clip-path:url(#SVGID_2_);fill:#F72449;}
	.st1{clip-path:url(#SVGID_2_);fill:#FF716C;}
	.st2{clip-path:url(#SVGID_2_);fill:#FF887A;}
	.st3{clip-path:url(#SVGID_2_);fill:#F6C3A0;}
	.st4{clip-path:url(#SVGID_2_);fill:#FFE4D5;}
	.st5{clip-path:url(#SVGID_2_);fill:#3A9B84;}
	.st6{clip-path:url(#SVGID_2_);fill:none;}
	.st7{clip-path:url(#SVGID_2_);fill:#50BF94;}
	.st8{clip-path:url(#SVGID_2_);fill:#A3F2C0;}
	.st9{clip-path:url(#SVGID_2_);}
	.st10{fill:#A3F2C0;}
</style>
<g>
	<defs>
		<circle id="SVGID_1_" cx="492.2" cy="487.2" r="351.9"/>
	</defs>
	<clipPath id="SVGID_2_">
		<use xlink:href="#SVGID_1_"  style="overflow:visible;"/>
	</clipPath>
	<circle class="st0" cx="492.2" cy="487.2" r="351.9"/>
	<circle class="st1" cx="493.1" cy="507.6" r="262.9"/>
	<circle class="st2" cx="493.5" cy="503.4" r="194.2"/>
	<circle class="st3" cx="493.5" cy="510.1" r="145.4"/>
	
		<ellipse transform="matrix(0.9987 -5.133839e-02 5.133839e-02 0.9987 -26.0247 25.9532)" class="st4" cx="492.2" cy="519.6" rx="99.6" ry="99.6"/>
	<rect x="43.7" y="603" class="st5" width="862.9" height="271.4"/>
	<polygon class="st6" points="91.1,459.3 222.7,522.8 260.2,485.2 328.4,537 347,522.9 369.8,547.1 418.2,511.8 472.7,604 91,604 	
		"/>
	<polygon class="st7" points="91.1,458.3 222.7,521.8 260.2,484.2 328.4,536 347,521.9 369.8,546.1 418.2,510.8 485.2,603 91,603 	
		"/>
	<polygon class="st7" points="500,602.9 523.3,530.4 579.2,544.3 669.9,491.8 684.7,516.9 870,425 870,603 	"/>
	<polygon class="st8" points="102.5,463.7 163,516.3 163,502 185.5,523.2 193,511.7 209,531.4 213.7,521.7 238.5,553.3 242.5,536 
		250.9,544.7 240.4,503.9 222.5,521.7 	"/>
	<polygon class="st8" points="290.4,538.1 292.3,529.3 330,554.7 326.9,546.2 344.2,547.6 335.4,530.7 328.4,536 264.3,487.3 	"/>
	<polygon class="st8" points="373.1,558.6 374.5,549.5 382.3,537 369.8,546.1 369.8,546.1 360.1,535.8 	"/>
	<polygon class="st8" points="418.2,510.5 418.2,510.6 424.1,566.1 438.4,560.6 447.5,577.6 472.9,586.1 	"/>
	<polygon class="st8" points="578,570 593.4,547.3 594.1,557.1 652.9,511.6 648.8,525.9 663.5,495.5 579.2,544.3 561.3,539.9 
		549,570 578,560 	"/>
	<polygon class="st8" points="684.9,516.9 683.6,514.6 665.5,532.9 680.7,525.5 683,535.6 696.3,526.2 688.4,545.7 727.9,508.6 
		731,522.9 754.1,502.9 756.5,522.9 866.1,427.2 	"/>
	<g class="st9">
		<polygon class="st10" points="523.4,530.4 511.2,568.1 519.3,578.5 526.1,556.9 525.4,530.9 		"/>
	</g>
	<path class="st7" d="M485.2,603c0,0-318.7,250.1-316.9,248.4l678.6,1.4L500,602.9L485.2,603z"/>
	<g class="st9">
		<polygon class="st10" points="498,637 487.1,637 482.5,677 503.9,677 		"/>
		<polygon class="st10" points="505.7,689 481.1,689 475.5,739 513,739 		"/>
		<polygon class="st10" points="493,603 491,603 487.4,629 497.6,629 		"/>
		<polygon class="st10" points="537.7,907 516,759 473.2,759 456.3,907 		"/>
	</g>
</g>
</svg>
