<?xml version="1.0" encoding="utf-8"?>
<!-- Generator: Adobe Illustrator 19.2.0, SVG Export Plug-In . SVG Version: 6.00 Build 0)  -->
<svg version="1.1" xmlns="http://www.w3.org/2000/svg" xmlns:xlink="http://www.w3.org/1999/xlink" x="0px" y="0px"
	 viewBox="0 0 1000 1000" style="enable-background:new 0 0 1000 1000;" xml:space="preserve">
<style type="text/css">
	.st0{fill:#3A9B84;}
	.st1{fill:#00D49C;}
	.st2{fill:#F72449;}
	.st3{fill:#50BF94;}
	.st4{fill:#A3F2C0;}
	.st5{opacity:0.5;fill:#FFFFFF;}
	.st6{fill:#FF887A;}
	.st7{fill:#FFB6A7;}
</style>
<g id="template">
</g>
<g id="Layer_2">
	<g>
		<path class="st0" d="M659.6,855.6H185.9c-15.9,0-28.8-12.5-28.8-28V110.3c0-15.5,12.9-28,28.8-28h473.7c15.9,0,28.8,12.5,28.8,28
			v717.4C688.4,843.1,675.5,855.6,659.6,855.6z"/>
		<path class="st1" d="M658.1,853.1H187.5c-15.8,0-28.6-12.4-28.6-27.7V115c0-15.3,12.8-27.7,28.6-27.7h470.6
			c15.8,0,28.6,12.4,28.6,27.7v710.3C686.7,840.6,673.9,853.1,658.1,853.1z"/>
		<rect x="184.6" y="148.6" class="st2" width="476.3" height="628.7"/>
		<ellipse class="st0" cx="417.3" cy="119.8" rx="5.4" ry="5.7"/>
		<ellipse class="st3" cx="417.5" cy="818.5" rx="24.2" ry="25.3"/>
		<ellipse class="st4" cx="417.5" cy="818.7" rx="22" ry="22.9"/>
		<path class="st5" d="M439.5,818.8c0,12.7-9.8,22.9-22,22.9c-12.1,0-22-10.3-22-22.9c0,0,9.8,3.2,22,3.2
			C429.7,822,439.5,818.8,439.5,818.8z"/>
	</g>
	<g>
		<polygon class="st6" points="660.7,702.9 660.9,777.3 184.6,777.3 184.6,148.6 213.5,148.8 		"/>
	</g>
	<path class="st4" d="M803.1,565.2L803.1,565.2l0.1-27l0,0c2,0,3.6,1.4,3.5,3.1l-0.1,20.8C806.7,563.8,805.1,565.2,803.1,565.2z"/>
	<path class="st4" d="M594.7,561.6L594.7,561.6l0.1-27l0,0c-2,0-3.6,1.4-3.6,3.1l-0.1,20.8C591.2,560.2,592.7,561.6,594.7,561.6z"/>
	<path class="st4" d="M594.6,596.4L594.6,596.4l0.1-27l0,0c-2,0-3.6,1.4-3.6,3.1l-0.1,20.8C591,595,592.6,596.4,594.6,596.4z"/>
	<path class="st4" d="M594.8,530.4L594.8,530.4l0.1-18.1l0,0c-2,0-3.6,0.9-3.6,2.1l0,14C591.3,529.5,592.8,530.4,594.8,530.4z"/>
	<path class="st0" d="M773.3,886.3l-149.9-0.5c-17.4-0.1-31.5-14.2-31.4-31.6l1.2-369.1c0.1-17.4,14.2-31.5,31.6-31.4l148.3,0.5
		c17.4,0.1,31.5,14.2,31.4,31.6l-1.2,370.7C803.3,873,789.8,886.4,773.3,886.3z"/>
	
		<rect x="592.2" y="489.6" transform="matrix(3.294209e-03 -1 1 3.294209e-03 101.6097 1086.0449)" class="st4" width="6.9" height="4.9"/>
	
		<rect x="798.6" y="490.3" transform="matrix(3.294209e-03 -1 1 3.294209e-03 306.7202 1293.1925)" class="st4" width="6.9" height="4.9"/>
	
		<rect x="591" y="845.6" transform="matrix(3.294209e-03 -1 1 3.294209e-03 -255.551 1439.6918)" class="st4" width="6.9" height="4.9"/>
	
		<rect x="797.5" y="846.3" transform="matrix(3.294209e-03 -1 1 3.294209e-03 -50.4405 1646.8394)" class="st4" width="6.9" height="4.9"/>
	<path class="st1" d="M764.9,883.6l-134.6-0.4c-25,0.8-35.9-16.5-35-35.9l1.2-355.3c-0.7-26.2,12.6-36.1,35.2-35.7l134.6,0.4
		c28,0,35.1,16.1,35,35.9L800.1,848C800.9,868.3,792.3,883.7,764.9,883.6z"/>
	
		<rect x="533.1" y="576.8" transform="matrix(3.294209e-03 -1 1 3.294209e-03 29.4772 1362.587)" class="st2" width="330.4" height="179.4"/>
	<g>
		<polygon class="st7" points="787.8,793.3 787.8,832 608.6,831.8 609,501.4 619.4,501.4 		"/>
	</g>
	
		<ellipse transform="matrix(3.294209e-03 -1 1 3.294209e-03 -160.739 1552.1776)" class="st0" cx="698.3" cy="856.7" rx="17.3" ry="17.3"/>
	
		<ellipse transform="matrix(3.294209e-03 -1 1 3.294209e-03 -160.9336 1551.9823)" class="st4" cx="698.1" cy="856.7" rx="15.9" ry="15.9"/>
	<path class="st0" d="M713.6,479.1l-29.4-0.1c-0.9,0-1.7-0.5-1.7-1.1l0,0c0-0.6,0.8-1,1.7-1l29.4,0.1c0.9,0,1.7,0.5,1.7,1.1l0,0
		C715.3,478.7,714.5,479.1,713.6,479.1z"/>
	
		<ellipse transform="matrix(3.294209e-03 -1 1 3.294209e-03 230.5942 1163.4478)" class="st0" cx="698.9" cy="466" rx="2.9" ry="2.9"/>
</g>
</svg>
